<?xml version="1.0" encoding="utf-8"?>
<!-- Generator: Adobe Illustrator 18.1.0, SVG Export Plug-In . SVG Version: 6.00 Build 0)  -->
<svg version="1.1" id="图层_1" xmlns="http://www.w3.org/2000/svg" xmlns:xlink="http://www.w3.org/1999/xlink" x="0px" y="0px"
	 width="1024px" height="1024px" viewBox="0 0 1024 1024" enable-background="new 0 0 1024 1024" xml:space="preserve">
<path fill="#FFBC00" d="M512.845,1024.066c-5.132,0-10.264-1.843-14.328-5.488C481.569,1003.369,83.83,643.483,83.83,417.706
	c0-230.281,192.449-417.64,429.015-417.64c236.545,0,429.015,187.359,429.015,417.64c0,225.777-397.76,585.664-414.686,600.872
	C523.109,1022.222,517.977,1024.066,512.845,1024.066z M512.845,42.967c-212.894,0-386.113,168.108-386.113,374.738
	c0,184.258,314.555,488.842,386.113,555.708c71.558-66.908,386.113-371.533,386.113-555.708
	C898.958,211.075,725.76,42.967,512.845,42.967z"/>
<path fill="#FFBC00" d="M512.845,536.774c-86.767,0-157.34-68.856-157.34-153.507s70.574-153.507,157.34-153.507
	s157.319,68.856,157.319,153.507S599.611,536.774,512.845,536.774z M512.845,272.662c-63.095,0-114.439,49.626-114.439,110.605
	s51.344,110.605,114.439,110.605s114.418-49.626,114.418-110.605S575.94,272.662,512.845,272.662z"/>
</svg>
