<?xml version="1.0" encoding="utf-8"?>
<!-- Generator: Adobe Illustrator 17.0.0, SVG Export Plug-In . SVG Version: 6.00 Build 0)  -->
<!DOCTYPE svg PUBLIC "-//W3C//DTD SVG 1.1//EN" "http://www.w3.org/Graphics/SVG/1.1/DTD/svg11.dtd">
<svg version="1.1" id="图层_3" xmlns="http://www.w3.org/2000/svg" xmlns:xlink="http://www.w3.org/1999/xlink" x="0px" y="0px"
	 width="1024px" height="1024px" viewBox="0 0 1024 1024" enable-background="new 0 0 1024 1024" xml:space="preserve">
<path d="M873.954,873.652"/>
<g>
	<path d="M821.537,197.459H204.245c-42.629,0-77.163,34.528-77.163,77.163v462.967c0,42.634,34.534,77.165,77.163,77.165h617.292
		c42.634,0,77.165-34.531,77.165-77.165V274.622C898.702,231.987,864.171,197.459,821.537,197.459z M512.892,303.555
		c47.843,0,86.808,38.967,86.808,86.808c0,48.032-38.965,86.808-86.808,86.808c-47.84,0-86.805-38.776-86.805-86.808
		C426.087,342.522,465.052,303.555,512.892,303.555z M705.799,699.01h-385.81v-57.872c0-64.236,128.665-96.45,192.904-96.45
		c64.236,0,192.906,32.214,192.906,96.45V699.01z"/>
	<path d="M814.288,120.252H227.168c-12.43,0-22.488-10.179-22.488-22.758s10.058-22.758,22.488-22.758h587.119
		c12.43,0,22.488,10.179,22.488,22.758S826.717,120.252,814.288,120.252z"/>
	<path d="M814.288,932.896H227.168c-12.43,0-22.488-10.179-22.488-22.758s10.058-22.758,22.488-22.758h587.119
		c12.43,0,22.488,10.179,22.488,22.758S826.717,932.896,814.288,932.896z"/>
</g>
</svg>
