<?xml version="1.0" encoding="utf-8"?>
<!-- Generator: Adobe Illustrator 18.1.0, SVG Export Plug-In . SVG Version: 6.00 Build 0)  -->
<svg version="1.1" id="图层_1" xmlns="http://www.w3.org/2000/svg" xmlns:xlink="http://www.w3.org/1999/xlink" x="0px" y="0px"
	 width="1024px" height="1024px" viewBox="0 0 1024 1024" enable-background="new 0 0 1024 1024" xml:space="preserve">
<g>
	<path fill="#FF8F3D" d="M341.333,1024H121.905C54.69,1024,0,969.31,0,902.095V682.667C0,615.452,54.69,561,121.905,561H366v49
		H121.905C81.571,610,49,642.333,49,682.667v219.429C49,942.429,81.571,975,121.905,975h219.429
		C381.667,975,414,942.429,414,902.095V658h49v244.095C463,969.31,408.548,1024,341.333,1024z"/>
	<path fill="#FF8F3D" d="M902.095,1024H682.667C615.452,1024,561,969.31,561,902.095V658h49v244.095
		C610,942.429,642.333,975,682.667,975h219.429C942.429,975,975,942.429,975,902.095V682.667C975,642.333,942.429,610,902.095,610
		H658v-49h244.095C969.31,561,1024,615.452,1024,682.667v219.429C1024,969.31,969.31,1024,902.095,1024z"/>
	<path fill="#FF8F3D" d="M902.095,463H658v-49h244.095C942.429,414,975,381.667,975,341.333V121.905
		C975,81.571,942.429,49,902.095,49H682.667C642.333,49,610,81.571,610,121.905V341h-49V121.905C561,54.69,615.452,0,682.667,0
		h219.429C969.31,0,1024,54.69,1024,121.905v219.429C1024,408.548,969.31,463,902.095,463z"/>
	<path fill="#FF8F3D" d="M366,463H121.905C54.69,463,0,408.548,0,341.333V121.905C0,54.69,54.69,0,121.905,0h219.429
		C408.548,0,463,54.69,463,121.905V341h-49V121.905C414,81.571,381.667,49,341.333,49H121.905C81.571,49,49,81.571,49,121.905
		v219.429C49,381.667,81.571,414,121.905,414H366V463z"/>
</g>
</svg>
