<?xml version="1.0" encoding="utf-8"?>
<!-- Generator: Adobe Illustrator 18.1.0, SVG Export Plug-In . SVG Version: 6.00 Build 0)  -->
<svg version="1.1" id="图层_1" xmlns="http://www.w3.org/2000/svg" xmlns:xlink="http://www.w3.org/1999/xlink" x="0px" y="0px"
	 width="1024px" height="1024px" viewBox="0 0 1024 1024" enable-background="new 0 0 1024 1024" xml:space="preserve">
<g>
	<path fill="#FFBC00" d="M358.345,604.954h-89.043c-12.304,0-22.261-9.957-22.261-22.261v-47.457
		c0-36.826,29.957-66.783,66.783-66.783s66.783,29.957,66.783,66.783v47.457C380.606,594.997,370.649,604.954,358.345,604.954z
		 M291.562,560.432h44.522v-25.196c0-12.283-9.978-22.261-22.261-22.261c-12.283,0-22.261,9.978-22.261,22.261V560.432z"/>
	<path fill="#FFBC00" d="M665.932,276.54H359.736c-6.261,0-12.217-2.63-16.435-7.239c-4.217-4.63-6.304-10.804-5.739-17.022
		c8.326-91.761,83.674-160.957,175.283-160.957s166.957,69.196,175.261,160.957c0.565,6.217-1.522,12.391-5.739,17.022
		C678.149,273.91,672.193,276.54,665.932,276.54z M386.345,232.019h252.978c-15.696-56.239-66.391-96.174-126.478-96.174
		S402.019,175.78,386.345,232.019z"/>
	<path fill="#FFBC00" d="M756.41,604.954h-89.044c-12.304,0-22.261-9.957-22.261-22.261v-47.457
		c0-36.826,29.957-66.783,66.783-66.783c36.826,0,66.783,29.957,66.783,66.783v47.457
		C778.671,594.997,768.714,604.954,756.41,604.954z M689.627,560.432h44.522v-25.196c0-12.283-10-22.261-22.261-22.261
		s-22.261,9.978-22.261,22.261V560.432z"/>
	<path fill="#FFBC00" d="M844.453,1022.432H181.236c-99.478,0-180.391-86.739-180.391-193.348V671.736
		c0-12.304,9.957-22.261,22.261-22.261h979.478c12.304,0,22.261,9.957,22.261,22.261v157.348
		C1024.845,935.693,943.932,1022.432,844.453,1022.432z M45.366,693.997v135.087c0,82.043,60.957,148.826,135.87,148.826h663.217
		c74.913,0,135.87-66.783,135.87-148.826V693.997H45.366z"/>
	<path fill="#FFBC00" d="M1002.584,604.954H756.41c-12.304,0-22.261-9.957-22.261-22.261v-47.457c0-12.283-10-22.261-22.261-22.261
		s-22.261,9.978-22.261,22.261v47.457c0,12.304-9.956,22.261-22.261,22.261H358.345c-12.304,0-22.261-9.957-22.261-22.261v-47.457
		c0-12.283-9.978-22.261-22.261-22.261c-12.283,0-22.261,9.978-22.261,22.261v47.457c0,12.304-9.957,22.261-22.261,22.261H23.106
		c-12.304,0-22.261-9.957-22.261-22.261V425.367c0-106.609,80.913-193.348,180.391-193.348h68.543
		C267.519,101.606,379.258,2.28,512.845,2.28c133.609,0,245.348,99.326,263.043,229.739h68.565
		c99.478,0,180.391,86.739,180.391,193.348v157.326C1024.845,594.997,1014.888,604.954,1002.584,604.954z M778.671,560.432h201.652
		V425.367c0-82.065-60.957-148.826-135.87-148.826h-88.783c-11.826,0-21.565-9.217-22.217-21
		C726.845,138.497,629.932,46.801,512.845,46.801s-214,91.696-220.63,208.739c-0.652,11.783-10.413,21-22.217,21h-88.761
		c-74.913,0-135.87,66.761-135.87,148.826v135.065H247.04v-25.196c0-36.826,29.957-66.783,66.783-66.783
		s66.783,29.957,66.783,66.783v25.196h264.5v-25.196c0-36.826,29.957-66.783,66.783-66.783c36.826,0,66.783,29.957,66.783,66.783
		V560.432z M665.932,276.54H359.736c-6.261,0-12.217-2.63-16.435-7.239c-4.217-4.63-6.304-10.804-5.739-17.022
		c8.326-91.761,83.674-160.957,175.283-160.957s166.957,69.196,175.261,160.957c0.565,6.217-1.522,12.391-5.739,17.022
		C678.149,273.91,672.193,276.54,665.932,276.54z M386.345,232.019h252.978c-15.696-56.239-66.391-96.174-126.478-96.174
		S402.019,175.78,386.345,232.019z"/>
</g>
</svg>
