<?xml version="1.0" encoding="utf-8"?>
<!-- Generator: Adobe Illustrator 17.0.0, SVG Export Plug-In . SVG Version: 6.00 Build 0)  -->
<!DOCTYPE svg PUBLIC "-//W3C//DTD SVG 1.1//EN" "http://www.w3.org/Graphics/SVG/1.1/DTD/svg11.dtd">
<svg version="1.1" id="图层_3" xmlns="http://www.w3.org/2000/svg" xmlns:xlink="http://www.w3.org/1999/xlink" x="0px" y="0px"
	 width="1024px" height="1024px" viewBox="0 0 1024 1024" enable-background="new 0 0 1024 1024" xml:space="preserve">
<g>
	<path d="M973.855,1H50.145c-0.231,0-0.458,0.015-0.682,0.04h925.074C974.313,1.015,974.086,1,973.855,1z"/>
	<path d="M44.001,7.144v1009.712c0,3.392,2.75,6.144,6.144,6.144h923.711c3.394,0,6.144-2.752,6.144-6.144V7.144
		c0-3.161-2.39-5.764-5.462-6.104H49.463C46.39,1.38,44.001,3.983,44.001,7.144z M89.999,47.001h844v929.999h-844V47.001z"/>
	<path d="M687.587,838.81H365.849c-12.703,0-23.001,10.295-23.001,22.998c0,12.703,10.298,23.001,23.001,23.001h321.737
		c12.703,0,22.998-10.298,22.998-23.001C710.585,849.105,700.29,838.81,687.587,838.81z"/>
	<path d="M512,130.448c-93.742,0.046-169.165,76.798-169.335,171.083c-0.002,51.754,22.825,98.301,58.883,129.668V594.18
		c0.016,14.417,11.668,26.054,26.071,26.07h169.186c14.407-0.014,26.057-11.663,26.073-26.07V430.826
		c35.816-31.362,58.459-77.747,58.457-129.296C681.165,207.246,605.742,130.494,512,130.448z"/>
	<path d="M796.224,714.847H286.458c-12.703,0-23.001,10.298-23.001,23.001c0,12.703,10.298,23.001,23.001,23.001h509.766
		c12.701,0,22.998-10.298,22.998-23.001C819.222,725.144,808.924,714.847,796.224,714.847z"/>
</g>
</svg>
