<?xml version="1.0" encoding="utf-8"?>
<!-- Generator: Adobe Illustrator 17.0.0, SVG Export Plug-In . SVG Version: 6.00 Build 0)  -->
<!DOCTYPE svg PUBLIC "-//W3C//DTD SVG 1.1//EN" "http://www.w3.org/Graphics/SVG/1.1/DTD/svg11.dtd">
<svg version="1.1" id="图层_3" xmlns="http://www.w3.org/2000/svg" xmlns:xlink="http://www.w3.org/1999/xlink" x="0px" y="0px"
	 width="1024px" height="1024px" viewBox="0 0 1024 1024" enable-background="new 0 0 1024 1024" xml:space="preserve">
<g>
	<path d="M710.199,119.785V73.884c46.628,0,102.145,0,102.145,0c82.941,0,150.177,67.094,150.177,149.86V873.14
		c0,82.765-67.236,149.86-150.177,149.86H211.652c-82.941,0-150.173-67.094-150.173-149.86V223.744
		c0-82.765,67.232-149.86,150.173-149.86c0,0,70.063,0,134.374,0v45.901H211.652c-57.497,0-104.274,46.635-104.274,103.959V873.14
		c0,57.323,46.777,103.958,104.274,103.958h600.692c57.499,0,104.279-46.635,104.279-103.958V223.744
		c0-57.323-46.779-103.959-104.279-103.959H710.199"/>
	<path d="M261.707,469.457c-12.673,0-22.949-10.275-22.949-22.951c0-12.673,10.275-22.949,22.949-22.949h500.581
		c12.676,0,22.951,10.275,22.951,22.949c0,12.676-10.275,22.951-22.951,22.951H261.707"/>
	<path d="M261.707,669.272c-12.673,0-22.949-10.275-22.949-22.951c0-12.676,10.275-22.951,22.949-22.951h400.468
		c12.676,0,22.951,10.275,22.951,22.951c0,12.676-10.275,22.951-22.951,22.951H261.707"/>
	<path fill-rule="evenodd" clip-rule="evenodd" d="M339.95,23.951h369.123c1.694,0,3.065,1.372,3.065,3.063v168.774
		c0,1.694-1.372,3.065-3.065,3.065H339.95c-1.694,0-3.065-1.371-3.065-3.065V27.014C336.885,25.322,338.256,23.951,339.95,23.951
		L339.95,23.951z"/>
	<path d="M339.95,23.951V46.9h369.123V27.014H689.19c0.014,10.993,8.892,19.872,19.883,19.885V27.014H689.19v168.774h19.883v-19.883
		c-10.991,0.014-19.87,8.892-19.883,19.883h19.883v-19.883H339.95v19.883h19.885c-0.016-10.991-8.895-19.869-19.885-19.883v19.883
		h19.885V27.014H339.95V46.9c10.991-0.014,19.869-8.892,19.885-19.885H339.95V46.9V23.951V1c-14.376,0.014-26,11.638-26.016,26.014
		v168.774c0.016,14.379,11.64,26,26.016,26.016h369.123c14.379-0.016,26-11.638,26.016-26.016V27.014
		c-0.016-14.376-11.638-26-26.016-26.014l0,0H339.95V23.951L339.95,23.951L339.95,23.951z"/>
</g>
</svg>
