<?xml version="1.0" encoding="utf-8"?>
<!-- Generator: Adobe Illustrator 17.0.0, SVG Export Plug-In . SVG Version: 6.00 Build 0)  -->
<!DOCTYPE svg PUBLIC "-//W3C//DTD SVG 1.1//EN" "http://www.w3.org/Graphics/SVG/1.1/DTD/svg11.dtd">
<svg version="1.1" id="图层_3" xmlns="http://www.w3.org/2000/svg" xmlns:xlink="http://www.w3.org/1999/xlink" x="0px" y="0px"
	 width="1024px" height="1024px" viewBox="0 0 1024 1024" enable-background="new 0 0 1024 1024" xml:space="preserve">
<g>
	<path d="M886.777,977.088V47.123H137.223v929.965H886.777 M926.555,1023H97.445c-3.386,0-6.134-2.748-6.134-6.131V7.345
		c0-3.386,2.748-6.134,6.134-6.134h829.111c3.386,0,6.134,2.748,6.134,6.134v1009.524C932.689,1020.252,929.941,1023,926.555,1023
		L926.555,1023L926.555,1023z"/>
	<path d="M459.68,533.165c-12.679,0-22.956-10.278-22.956-22.956c0-12.676,10.278-22.954,22.956-22.954h315.603
		c12.676,0,22.954,10.278,22.954,22.954c0,12.679-10.278,22.956-22.954,22.956H459.68"/>
	<path d="M354.483,661.129c-12.676,0-22.954-10.278-22.954-22.956c0-12.679,10.278-22.957,22.954-22.957h420.8
		c12.676,0,22.954,10.278,22.954,22.957c0,12.679-10.278,22.956-22.954,22.956H354.483"/>
	<path d="M249.289,789.09c-12.679,0-22.956-10.278-22.956-22.954c0-12.679,10.278-22.956,22.956-22.956h525.995
		c12.676,0,22.954,10.278,22.954,22.956c0,12.676-10.278,22.954-22.954,22.954H249.289"/>
	<path d="M492.672,223.6V46.912H268.895v176.684l86.894-56.376c7.6-4.929,16.294-7.395,24.988-7.395
		c8.694,0,17.388,2.466,24.986,7.395L492.672,223.6 M538.584,308.109L380.777,205.737L222.983,308.109V1h315.601V308.109
		L538.584,308.109L538.584,308.109z"/>
</g>
</svg>
