<?xml version="1.0" encoding="utf-8"?>
<!-- Generator: Adobe Illustrator 17.0.0, SVG Export Plug-In . SVG Version: 6.00 Build 0)  -->
<!DOCTYPE svg PUBLIC "-//W3C//DTD SVG 1.1//EN" "http://www.w3.org/Graphics/SVG/1.1/DTD/svg11.dtd">
<svg version="1.1" id="图层_3" xmlns="http://www.w3.org/2000/svg" xmlns:xlink="http://www.w3.org/1999/xlink" x="0px" y="0px"
	 width="1024px" height="1024px" viewBox="0 0 1024 1024" enable-background="new 0 0 1024 1024" xml:space="preserve">
<path fill="#231815" d="M512,1024c-6.172,0-12.359-1.781-17.75-5.375C479.297,1008.656,128,770.031,128,384
	C128,134.578,325.844,0,512,0s384,134.578,384,384c0,353.188-349.781,622.219-364.688,633.5C525.625,1021.812,518.812,1024,512,1024
	z M512,64c-155.125,0-320,112.156-320,320c0,303.125,247.781,513.531,318.906,567.656C581.438,892.188,832,661.312,832,384
	C832,176.156,667.125,64,512,64z"/>
<path fill="#231815" d="M512,549.312c-91.156,0-165.328-74.156-165.328-165.312S420.844,218.672,512,218.672
	S677.344,292.844,677.344,384S603.156,549.312,512,549.312z M512,282.672c-55.875,0-101.328,45.453-101.328,101.328
	S456.125,485.328,512,485.328S613.344,439.875,613.344,384S567.875,282.672,512,282.672z"/>
</svg>
