<?xml version="1.0" encoding="utf-8"?>
<!-- Generator: Adobe Illustrator 17.0.0, SVG Export Plug-In . SVG Version: 6.00 Build 0)  -->
<!DOCTYPE svg PUBLIC "-//W3C//DTD SVG 1.1//EN" "http://www.w3.org/Graphics/SVG/1.1/DTD/svg11.dtd">
<svg version="1.1" id="图层_2" xmlns="http://www.w3.org/2000/svg" xmlns:xlink="http://www.w3.org/1999/xlink" x="0px" y="0px"
	 width="1024px" height="1024px" viewBox="0 0 1024 1024" enable-background="new 0 0 1024 1024" xml:space="preserve">
<path fill="#231815" d="M980,511.994c0-10.503-4.57-19.866-11.741-26.446c-0.179-0.188-0.229-0.439-0.412-0.624L638.891,154.291
	c-14.027-14.074-36.797-14.133-50.918-0.129c-14.086,14.027-14.145,36.82-0.129,50.918l269.542,270.914H80
	c-19.887,0-36,16.113-36,36s16.113,36,36,36h777.385L587.844,818.908c-14.016,14.098-13.957,36.891,0.129,50.918
	c7.031,6.984,16.207,10.477,25.395,10.477c9.246,0,18.48-3.539,25.523-10.605l328.957-330.633c0.183-0.185,0.233-0.437,0.412-0.624
	C975.43,531.86,980,522.497,980,511.994z"/>
</svg>
