<?xml version="1.0" encoding="utf-8"?>
<!-- Generator: Adobe Illustrator 17.0.0, SVG Export Plug-In . SVG Version: 6.00 Build 0)  -->
<!DOCTYPE svg PUBLIC "-//W3C//DTD SVG 1.1//EN" "http://www.w3.org/Graphics/SVG/1.1/DTD/svg11.dtd">
<svg version="1.1" id="图层_3" xmlns="http://www.w3.org/2000/svg" xmlns:xlink="http://www.w3.org/1999/xlink" x="0px" y="0px"
	 width="1024px" height="1024px" viewBox="0 0 1024 1024" enable-background="new 0 0 1024 1024" xml:space="preserve">
<g>
	<path fill-rule="evenodd" clip-rule="evenodd" d="M512.001,4.538C231.727,4.538,4.537,231.726,4.537,511.999
		c0,280.275,227.189,507.463,507.463,507.463c280.273,0,507.462-227.188,507.462-507.463
		C1019.463,231.726,792.054,4.538,512.001,4.538L512.001,4.538z M672.127,550.666L470.059,752.734
		c-21.408,21.408-55.923,21.408-77.333,0l0,0c-21.408-21.408-21.408-55.923,0-77.331l163.403-163.403L392.726,348.596
		c-21.408-21.41-21.408-55.924,0-77.333c21.41-21.408,55.924-21.408,77.333,0l202.068,202.068c21.408,21.408,21.408,56.143,0,77.333
		V550.666L672.127,550.666z"/>
</g>
</svg>
