<?xml version="1.0" encoding="utf-8"?>
<!-- Generator: Adobe Illustrator 17.0.0, SVG Export Plug-In . SVG Version: 6.00 Build 0)  -->
<!DOCTYPE svg PUBLIC "-//W3C//DTD SVG 1.1//EN" "http://www.w3.org/Graphics/SVG/1.1/DTD/svg11.dtd">
<svg version="1.1" id="图层_2" xmlns="http://www.w3.org/2000/svg" xmlns:xlink="http://www.w3.org/1999/xlink" x="0px" y="0px"
	 width="1024px" height="1024px" viewBox="0 0 1024 1024" enable-background="new 0 0 1024 1024" xml:space="preserve">
<g>
	<path fill="#231815" d="M848,92H176c-19.887,0-36,16.113-36,36s16.113,36,36,36h672c19.875,0,36-16.113,36-36S867.875,92,848,92z"
		/>
	<path fill="#231815" d="M538.672,223.754c-0.144-0.144-0.34-0.182-0.485-0.322C531.619,216.433,522.352,212,512,212
		c-10.37,0-19.642,4.443-26.21,11.455c-0.135,0.13-0.316,0.166-0.45,0.299L247.754,461.34c-14.062,14.051-14.062,36.855,0,50.906
		c7.031,7.031,16.242,10.547,25.453,10.547s18.422-3.516,25.453-10.547L476,334.915V896c0,19.875,16.113,36,36,36
		c19.875,0,36-16.125,36-36V334.903l177.352,177.343c7.031,7.031,16.242,10.547,25.453,10.547s18.422-3.516,25.453-10.547
		c14.062-14.062,14.062-36.855,0-50.906L538.672,223.754z"/>
</g>
</svg>
