<?xml version="1.0" encoding="utf-8"?>
<!-- Generator: Adobe Illustrator 17.0.0, SVG Export Plug-In . SVG Version: 6.00 Build 0)  -->
<!DOCTYPE svg PUBLIC "-//W3C//DTD SVG 1.1//EN" "http://www.w3.org/Graphics/SVG/1.1/DTD/svg11.dtd">
<svg version="1.1" id="图层_3" xmlns="http://www.w3.org/2000/svg" xmlns:xlink="http://www.w3.org/1999/xlink" x="0px" y="0px"
	 width="1024px" height="1024px" viewBox="0 0 1024 1024" enable-background="new 0 0 1024 1024" xml:space="preserve">
<g>
	<path d="M1021.457,392.78c-3.387-7.88-10.618-13.441-19.098-14.654l-323.496-46.509L534.242,41.621
		C530.086,33.273,521.558,28,512.237,28c-9.321,0-17.849,5.273-22.005,13.621L345.588,331.617L22.092,378.126
		c-9.297,1.333-17.008,7.856-19.891,16.792c-2.907,8.937-0.432,18.738,6.318,25.26l233.914,225.65l-55.205,318.56
		c-1.586,9.213,2.162,18.546,9.729,24.059c7.519,5.537,17.585,6.258,25.873,1.97l289.407-150.565L801.62,990.417
		c3.603,1.862,7.495,2.775,11.363,2.775c5.91,0,11.795-2.138,16.408-6.27c7.615-6.811,10.234-17.645,6.534-27.194L685.636,570.431
		c-4.901-12.66-19.171-18.954-31.807-14.09c-12.66,4.901-18.978,19.134-14.078,31.819l126.843,328.565L523.6,790.292
		c-7.111-3.7-15.615-3.7-22.726,0L244.186,923.837l48.959-282.453c1.393-8.036-1.297-16.24-7.159-21.909L78.859,419.674
		l286.501-41.2c7.976-1.141,14.894-6.138,18.498-13.369l128.38-257.385l128.356,257.385c3.604,7.219,10.522,12.216,18.498,13.369
		l296.35,42.605L801.452,637.684c-7.856,11.075-5.261,26.438,5.813,34.305c11.051,7.856,26.402,5.249,34.305-5.79l177.339-249.469
		C1023.859,409.74,1024.844,400.659,1021.457,392.78z"/>
	<path d="M293.578,455.048c-9.369,9.849-8.985,25.417,0.865,34.786l100.129,95.252c4.757,4.528,10.858,6.775,16.96,6.775
		c6.486,0,12.997-2.558,17.825-7.639c9.369-9.849,8.985-25.417-0.865-34.786l-100.129-95.252
		C318.562,444.838,302.971,445.198,293.578,455.048z"/>
</g>
</svg>
