<?xml version="1.0" encoding="utf-8"?>
<!-- Generator: Adobe Illustrator 17.0.0, SVG Export Plug-In . SVG Version: 6.00 Build 0)  -->
<!DOCTYPE svg PUBLIC "-//W3C//DTD SVG 1.1//EN" "http://www.w3.org/Graphics/SVG/1.1/DTD/svg11.dtd">
<svg version="1.1" id="图层_3" xmlns="http://www.w3.org/2000/svg" xmlns:xlink="http://www.w3.org/1999/xlink" x="0px" y="0px"
	 width="1024px" height="1024px" viewBox="0 0 1024 1024" enable-background="new 0 0 1024 1024" xml:space="preserve">
<g>
	<g>
		<rect x="105.5" y="946.5" fill="#F14147" width="56" height="56"/>
		<rect x="21.5" y="946.5" fill="#F14147" width="56" height="56"/>
		<rect x="105.5" y="862.5" fill="#F14147" width="56" height="56"/>
		<rect x="21.5" y="862.5" fill="#F14147" width="56" height="56"/>
		<rect x="105.5" y="778.5" fill="#F14147" width="56" height="56"/>
		<rect x="21.5" y="778.5" fill="#F14147" width="56" height="56"/>
		<rect x="105.5" y="694.5" fill="#F14147" width="56" height="56"/>
		<rect x="21.5" y="694.5" fill="#F14147" width="56" height="56"/>
		<rect x="105.5" y="610.5" fill="#F14147" width="56" height="56"/>
		<rect x="21.5" y="610.5" fill="#F14147" width="56" height="56"/>
		<rect x="945.5" y="946.5" fill="#F14147" width="56" height="56"/>
		<rect x="861.5" y="946.5" fill="#F14147" width="56" height="56"/>
		<rect x="945.5" y="862.5" fill="#F14147" width="56" height="56"/>
		<rect x="861.5" y="862.5" fill="#F14147" width="56" height="56"/>
		<rect x="945.5" y="778.5" fill="#F14147" width="56" height="56"/>
		<rect x="861.5" y="778.5" fill="#F14147" width="56" height="56"/>
		<rect x="945.5" y="694.5" fill="#F14147" width="56" height="56"/>
		<rect x="861.5" y="694.5" fill="#F14147" width="56" height="56"/>
		<rect x="945.5" y="610.5" fill="#F14147" width="56" height="56"/>
		<rect x="861.5" y="610.5" fill="#F14147" width="56" height="56"/>
	</g>
	<path fill="#F14147" d="M217.5,22.5v980h588v-980H217.5z M413.5,918.5h-84v-84h84V918.5z M413.5,778.5h-84v-84h84V778.5z
		 M413.5,638.5h-84v-84h84V638.5z M413.5,498.5h-84v-84h84V498.5z M413.5,358.5h-84v-84h84V358.5z M413.5,218.5h-84v-84h84V218.5z
		 M553.5,918.5h-84v-84h84V918.5z M553.5,778.5h-84v-84h84V778.5z M553.5,638.5h-84v-84h84V638.5z M553.5,498.5h-84v-84h84V498.5z
		 M553.5,358.5h-84v-84h84V358.5z M553.5,218.5h-84v-84h84V218.5z M693.5,918.5h-84v-84h84V918.5z M693.5,778.5h-84v-84h84V778.5z
		 M693.5,638.5h-84v-84h84V638.5z M693.5,498.5h-84v-84h84V498.5z M693.5,358.5h-84v-84h84V358.5z M693.5,218.5h-84v-84h84V218.5z"
		/>
</g>
</svg>
