<?xml version="1.0" encoding="utf-8"?>
<!-- Generator: Adobe Illustrator 17.0.0, SVG Export Plug-In . SVG Version: 6.00 Build 0)  -->
<!DOCTYPE svg PUBLIC "-//W3C//DTD SVG 1.1//EN" "http://www.w3.org/Graphics/SVG/1.1/DTD/svg11.dtd">
<svg version="1.1" id="图层_3" xmlns="http://www.w3.org/2000/svg" xmlns:xlink="http://www.w3.org/1999/xlink" x="0px" y="0px"
	 width="1024px" height="1024px" viewBox="0 0 1024 1024" enable-background="new 0 0 1024 1024" xml:space="preserve">
<path d="M880.716,927.133"/>
<g>
	<path d="M144.03,276.21c0,0,63.7-135.388,171.368,0c107.452,135.55,0,175.283,0,175.283s-71.633,67.773-15.977,111.636
		c55.765,43.697,191.314,163.27,191.314,163.27s53.699,71.58,111.42,19.838c71.741-59.567,99.624-69.622,155.333-27.828
		c97.235,72.503,127.617,145.443-19.73,203.164c-163.378,79.678-454.153-195.228-454.153-195.228S-3.313,451.493,144.03,276.21
		L144.03,276.21z M144.03,276.21"/>
	<path d="M514.54,346.268c0,0-53.699,5.71-43.917-50.274c4.512-25.436,47.831-33.808,87.668-21.687
		c40.056,11.905,189.307,77.613,195.34,245.018c0,0-11.034,46.956-46.036,37.664c-37.61-10.002-27.72-81.199-29.839-95.062
		C675.853,448.014,624.165,340.346,514.54,346.268L514.54,346.268z M514.54,346.268"/>
	<path d="M618.024,200.878c0,0-65.707,6.85-53.591-61.361c5.382-31.304,58.538-41.521,107.452-26.904
		c48.751,14.675,231.59,95.115,238.817,299.91c0,0-15.649,63.916-55.872,46.472c-35.164-15.492-36.959-101.908-39.293-118.975
		C812.871,322.951,752.433,193.542,618.024,200.878L618.024,200.878z M618.024,200.878"/>
</g>
</svg>
