<?xml version="1.0" encoding="utf-8"?>
<!-- Generator: Adobe Illustrator 17.0.0, SVG Export Plug-In . SVG Version: 6.00 Build 0)  -->
<!DOCTYPE svg PUBLIC "-//W3C//DTD SVG 1.1//EN" "http://www.w3.org/Graphics/SVG/1.1/DTD/svg11.dtd">
<svg version="1.1" id="图层_2" xmlns="http://www.w3.org/2000/svg" xmlns:xlink="http://www.w3.org/1999/xlink" x="0px" y="0px"
	 width="1024px" height="1024px" viewBox="0 0 1024 1024" enable-background="new 0 0 1024 1024" xml:space="preserve">
<g>
	<path d="M192.717,357.317l210.113-0.562c79.759,0,145.083,64.705,145.619,144.236l46.553-0.305
		c-0.705-105.038-86.914-190.485-192.233-190.485l-210.177,0.562C86.687,311.048,0.29,397.444,0.001,503.356
		c-0.136,51.314,19.747,99.586,55.986,135.928c36.245,36.347,84.47,56.361,135.855,56.361l208.822-0.569l-0.125-46.553
		l-208.758,0.567c-38.861,0-75.384-15.155-102.833-42.677c-27.441-27.523-42.497-64.08-42.394-102.933
		C46.776,423.101,112.343,357.533,192.717,357.317z"/>
	<path d="M968.03,384.72c-36.241-36.347-84.636-56.369-136.325-56.369l-208.369,0.569l0.125,46.553l208.305-0.569
		c39.166,0,75.85,15.158,103.295,42.686c27.444,27.522,42.499,64.08,42.384,102.938c-0.216,80.361-65.784,145.925-146.156,146.153
		l-210.591,0.562c-79.527-0.008-144.635-64.722-145.139-144.261l-46.553,0.297c0.662,105.047,86.656,190.511,191.753,190.519
		l210.661-0.564c105.905-0.297,192.294-86.688,192.578-192.575C1024.148,469.344,1004.27,421.067,968.03,384.72z"/>
</g>
</svg>
