<?xml version="1.0" encoding="utf-8"?>
<!-- Generator: Adobe Illustrator 18.1.0, SVG Export Plug-In . SVG Version: 6.00 Build 0)  -->
<svg version="1.1" id="图层_1" xmlns="http://www.w3.org/2000/svg" xmlns:xlink="http://www.w3.org/1999/xlink" x="0px" y="0px"
	 width="1024px" height="1024px" viewBox="0 0 1024 1024" enable-background="new 0 0 1024 1024" xml:space="preserve">
<g>
	<path fill="#231815" d="M991.548,588.474c-7.561,0-14.976-2.854-20.683-8.209L767.533,388.51
		c-12.092-11.416-12.651-30.481-1.236-42.588c11.386-12.092,30.481-12.651,42.602-1.25L963.215,490.22
		C951.829,251.2,753.793,60.255,512.007,60.255c-148.608,0-287.786,73.304-372.285,196.094c-9.43,13.681-28.2,17.138-41.896,7.738
		c-13.71-9.43-17.167-28.186-7.738-41.896C185.826,83.057,343.554,0,512.007,0C794.306,0,1024,229.679,1024,512.007
		c0,15.564-0.794,31.657-2.471,49.163c-1.059,11.474-8.591,21.301-19.359,25.361C998.727,587.826,995.108,588.474,991.548,588.474z"
		/>
	<path fill="#231815" d="M512.007,1024C229.679,1024,0,794.336,0,512.007c0-15.564,0.809-31.658,2.486-49.207
		c1.103-11.445,8.62-21.286,19.389-25.332c10.783-4.06,22.905-1.633,31.275,6.281l203.302,191.769
		c12.107,11.416,12.666,30.481,1.25,42.602c-11.43,12.092-30.525,12.681-42.588,1.236L60.77,533.764
		c11.401,239.035,209.437,429.98,451.237,429.98c148.608,0,287.801-73.289,372.27-196.094c9.444-13.652,28.186-17.153,41.926-7.738
		c13.681,9.444,17.153,28.215,7.738,41.926C838.174,940.943,680.475,1024,512.007,1024z"/>
</g>
</svg>
