<?xml version="1.0" encoding="utf-8"?>
<!-- Generator: Adobe Illustrator 17.0.0, SVG Export Plug-In . SVG Version: 6.00 Build 0)  -->
<!DOCTYPE svg PUBLIC "-//W3C//DTD SVG 1.1//EN" "http://www.w3.org/Graphics/SVG/1.1/DTD/svg11.dtd">
<svg version="1.1" id="图层_3" xmlns="http://www.w3.org/2000/svg" xmlns:xlink="http://www.w3.org/1999/xlink" x="0px" y="0px"
	 width="1024px" height="1024px" viewBox="0 0 1024 1024" enable-background="new 0 0 1024 1024" xml:space="preserve">
<g>
	<path d="M512,1022.667c-281.824,0-511.095-229.292-511.095-511.116S230.176,0.435,512,0.435s511.095,229.292,511.095,511.116
		S793.824,1022.667,512,1022.667z M512,51.132c-253.898,0-460.439,206.542-460.439,460.419S258.102,971.97,512,971.97
		s460.439-206.542,460.439-460.419S765.898,51.132,512,51.132z"/>
	<path d="M782.645,709.822c-3.135,0-6.311-0.577-9.405-1.815L475.906,589.205c-9.611-3.836-15.923-13.159-15.923-23.533V123.919
		c0-14.005,11.344-25.349,25.328-25.349c13.984,0,25.328,11.344,25.328,25.349v424.593L792.05,660.94
		c12.994,5.198,19.305,19.945,14.149,32.939C802.239,703.799,792.711,709.822,782.645,709.822z"/>
</g>
</svg>
