<?xml version="1.0" encoding="utf-8"?>
<!-- Generator: Adobe Illustrator 16.0.0, SVG Export Plug-In . SVG Version: 6.00 Build 0)  -->
<!DOCTYPE svg PUBLIC "-//W3C//DTD SVG 1.1//EN" "http://www.w3.org/Graphics/SVG/1.1/DTD/svg11.dtd">
<svg version="1.1" id="图层_2" xmlns="http://www.w3.org/2000/svg" xmlns:xlink="http://www.w3.org/1999/xlink" x="0px" y="0px"
	 width="1024px" height="1024px" viewBox="0 0 1024 1024" enable-background="new 0 0 1024 1024" xml:space="preserve">
<g>
	<g>
		<path fill="#231815" d="M277.613,757.314c-4.159,0-8.317-1.587-11.491-4.761c-6.349-6.352-6.349-16.635,0-22.982l463.465-463.457
			c6.349-6.348,16.633-6.348,22.981,0s6.349,16.635,0,22.982L289.103,752.554C285.929,755.728,281.771,757.314,277.613,757.314z"/>
	</g>
	<g>
		<path fill="#231815" d="M741.077,757.314c-4.157,0-8.316-1.587-11.49-4.761L266.122,289.097c-6.349-6.348-6.349-16.635,0-22.982
			s16.633-6.348,22.981,0l463.465,463.457c6.349,6.348,6.349,16.631,0,22.982C749.394,755.728,745.236,757.314,741.077,757.314z"/>
	</g>
</g>
<g>
	<path fill="#231815" d="M510.524,1021.268c-281.566,0-510.641-229.067-510.641-510.627C-0.116,229.072,228.958,0,510.524,0
		c281.567,0,510.641,229.072,510.641,510.641C1021.165,792.2,792.092,1021.268,510.524,1021.268z M510.524,32.586
		c-263.602,0-478.053,214.452-478.053,478.055c0,263.594,214.451,478.037,478.053,478.037
		c263.603,0,478.054-214.443,478.054-478.037C988.578,247.038,774.127,32.586,510.524,32.586z"/>
</g>
</svg>
