<?xml version="1.0" encoding="utf-8"?>
<!-- Generator: Adobe Illustrator 17.0.0, SVG Export Plug-In . SVG Version: 6.00 Build 0)  -->
<!DOCTYPE svg PUBLIC "-//W3C//DTD SVG 1.1//EN" "http://www.w3.org/Graphics/SVG/1.1/DTD/svg11.dtd">
<svg version="1.1" id="图层_2" xmlns="http://www.w3.org/2000/svg" xmlns:xlink="http://www.w3.org/1999/xlink" x="0px" y="0px"
	 width="1024px" height="1024px" viewBox="0 0 1024 1024" enable-background="new 0 0 1024 1024" xml:space="preserve">
<path fill="#231815" d="M562.906,512l406.548-406.547c14.062-14.051,14.062-36.855,0-50.906c-14.062-14.062-36.843-14.062-50.906,0
	L512,461.094L105.452,54.547c-14.062-14.062-36.843-14.062-50.906,0c-14.062,14.051-14.062,36.855,0,50.906L461.094,512
	L54.547,918.547c-14.062,14.062-14.062,36.844,0,50.906C61.578,976.484,70.789,980,80,980s18.422-3.516,25.453-10.547L512,562.906
	l406.548,406.547C925.579,976.484,934.79,980,944,980s18.422-3.516,25.453-10.547c14.062-14.062,14.062-36.844,0-50.906L562.906,512
	z"/>
</svg>
