<?xml version="1.0" encoding="utf-8"?>
<!-- Generator: Adobe Illustrator 17.0.0, SVG Export Plug-In . SVG Version: 6.00 Build 0)  -->
<!DOCTYPE svg PUBLIC "-//W3C//DTD SVG 1.1//EN" "http://www.w3.org/Graphics/SVG/1.1/DTD/svg11.dtd">
<svg version="1.1" id="图层_3" xmlns="http://www.w3.org/2000/svg" xmlns:xlink="http://www.w3.org/1999/xlink" x="0px" y="0px"
	 width="1024px" height="1024px" viewBox="0 0 1024 1024" enable-background="new 0 0 1024 1024" xml:space="preserve">
<g>
	<path d="M401.234,471.468h-34.24c-11.536,0-20.895,9.359-20.895,20.895c0,11.536,9.359,20.895,20.895,20.895h34.24
		c11.536,0,20.895-9.359,20.895-20.895C422.129,480.827,412.77,471.468,401.234,471.468z"/>
	<path d="M401.234,381.304h-34.24c-11.536,0-20.895,9.359-20.895,20.895c0,11.536,9.359,20.895,20.895,20.895h34.24
		c11.536,0,20.895-9.359,20.895-20.895S412.77,381.304,401.234,381.304z"/>
	<path d="M401.234,561.632h-34.24c-11.536,0-20.895,9.359-20.895,20.895s9.359,20.895,20.895,20.895h34.24
		c11.536,0,20.895-9.359,20.895-20.895S412.77,561.632,401.234,561.632z"/>
	<path d="M630.195,513.258h34.24c11.536,0,20.895-9.359,20.895-20.895c0-11.536-9.359-20.895-20.895-20.895h-34.24
		c-11.536,0-20.895,9.359-20.895,20.895S618.659,513.258,630.195,513.258z"/>
	<path d="M511.028,561.632h-34.24c-11.536,0-20.895,9.359-20.895,20.895s9.359,20.895,20.895,20.895h34.24
		c11.536,0,20.895-9.359,20.895-20.895S522.564,561.632,511.028,561.632z"/>
	<path d="M664.435,561.632h-34.24c-11.536,0-20.895,9.359-20.895,20.895s9.359,20.895,20.895,20.895h34.24
		c11.536,0,20.895-9.359,20.895-20.895S675.971,561.632,664.435,561.632z"/>
	<path d="M513.232,1.246C231.144,1.246,2.466,229.924,2.466,512.012c0,282.089,228.679,510.768,510.766,510.768
		c282.089,0,510.768-228.679,510.768-510.768C1024,229.924,795.321,1.246,513.232,1.246z M782.473,727.337H243.991
		c-7.7,0-13.93-6.23-13.93-13.93s6.23-13.93,13.93-13.93h50.814V318.753c0-21.808,17.678-39.486,39.486-39.486h209.436
		c21.808,0,39.488,17.678,39.488,39.486v71.954h107.282c21.808,0,39.486,17.678,39.486,39.486v269.283h52.489
		c7.7,0,13.93,6.23,13.93,13.93S790.172,727.337,782.473,727.337z"/>
	<path d="M511.028,471.468h-34.24c-11.536,0-20.895,9.359-20.895,20.895c0,11.536,9.359,20.895,20.895,20.895h34.24
		c11.536,0,20.895-9.359,20.895-20.895C531.923,480.827,522.564,471.468,511.028,471.468z"/>
	<path d="M511.028,381.304h-34.24c-11.536,0-20.895,9.359-20.895,20.895c0,11.536,9.359,20.895,20.895,20.895h34.24
		c11.536,0,20.895-9.359,20.895-20.895C531.923,390.663,522.564,381.304,511.028,381.304z"/>
</g>
</svg>
