<?xml version="1.0" encoding="utf-8"?>
<!-- Generator: Adobe Illustrator 17.0.0, SVG Export Plug-In . SVG Version: 6.00 Build 0)  -->
<!DOCTYPE svg PUBLIC "-//W3C//DTD SVG 1.1//EN" "http://www.w3.org/Graphics/SVG/1.1/DTD/svg11.dtd">
<svg version="1.1" id="图层_3" xmlns="http://www.w3.org/2000/svg" xmlns:xlink="http://www.w3.org/1999/xlink" x="0px" y="0px"
	 width="1024px" height="1024px" viewBox="0 0 1024 1024" enable-background="new 0 0 1024 1024" xml:space="preserve">
<path fill-rule="evenodd" clip-rule="evenodd" d="M511.909,1023.921c-282.728,0-511.927-229.196-511.927-511.927
	c0-282.721,229.2-511.915,511.927-511.915c282.731,0,511.927,229.193,511.927,511.915
	C1023.837,794.725,794.64,1023.921,511.909,1023.921z M479.914,65.682C247.521,82.163,63.973,275.419,63.973,511.994
	c0,247.399,200.548,447.953,447.936,447.953c236.587,0,429.853-183.552,446.324-415.944H543.908h-63.994v-63.991V65.682z
	 M543.908,65.682v414.328H958.3C942.581,258.266,765.694,81.405,543.908,65.682z"/>
</svg>
