<?xml version="1.0" encoding="utf-8"?>
<!-- Generator: Adobe Illustrator 16.0.0, SVG Export Plug-In . SVG Version: 6.00 Build 0)  -->
<!DOCTYPE svg PUBLIC "-//W3C//DTD SVG 1.1//EN" "http://www.w3.org/Graphics/SVG/1.1/DTD/svg11.dtd">
<svg version="1.1" id="图层_3" xmlns="http://www.w3.org/2000/svg" xmlns:xlink="http://www.w3.org/1999/xlink" x="0px" y="0px"
	 width="1024px" height="1024px" viewBox="0 0 1024 1024" enable-background="new 0 0 1024 1024" xml:space="preserve">
<g>
	<g>
		<path d="M473.267,259.698H235.135v237.726h238.132V259.698z M521.197,260.177v47.653h285.864v-47.653H521.197z M521.197,403.102
			h285.864V355.46H521.197V403.102z M521.197,498.402h285.864V450.76H521.197V498.402z M235.333,593.672h571.728v-47.643H235.333
			V593.672z M235.333,688.971h571.728v-47.643H235.333V688.971z M235.333,784.258h571.728v-47.643H235.333V784.258z"/>
	</g>
</g>
<path d="M513.987,1024c-68.703,0-135.367-13.465-198.14-40.014c-60.617-25.639-115.049-62.338-161.786-109.074
	C107.323,828.174,70.626,773.74,44.987,713.125C18.435,650.353,4.973,583.687,4.973,514.984c0-68.703,13.462-135.367,40.014-198.138
	c25.638-60.617,62.336-115.05,109.074-161.787c46.737-46.738,101.17-83.436,161.786-109.074
	c62.772-26.551,129.437-40.013,198.14-40.013s135.366,13.462,198.139,40.013c60.616,25.639,115.049,62.336,161.787,109.074
	c46.738,46.737,83.436,101.17,109.074,161.787C1009.537,379.617,1023,446.281,1023,514.984c0,68.703-13.463,135.369-40.014,198.141
	c-25.638,60.617-62.336,115.049-109.074,161.787s-101.17,83.436-161.787,109.074C649.353,1010.535,582.69,1024,513.987,1024z
	 M513.987,65.244c-60.729,0-119.623,11.887-175.05,35.331c-53.551,22.651-101.652,55.082-142.965,96.396
	c-41.314,41.313-73.745,89.413-96.396,142.963c-23.443,55.428-35.331,114.322-35.331,175.048
	c0,60.729,11.888,119.625,35.331,175.051c22.651,53.553,55.082,101.652,96.396,142.967c41.313,41.313,89.413,73.744,142.965,96.395
	c55.427,23.445,114.321,35.332,175.05,35.332c60.727,0,119.623-11.887,175.05-35.332C742.587,906.744,790.688,874.312,832,833
	c41.314-41.314,73.746-89.414,96.396-142.965c23.443-55.428,35.331-114.322,35.331-175.051c0-60.726-11.888-119.623-35.331-175.05
	C905.745,286.383,873.315,238.282,832,196.969c-41.313-41.313-89.413-73.745-142.964-96.396
	C633.61,77.132,574.713,65.244,513.987,65.244z"/>
</svg>
