<?xml version="1.0" encoding="utf-8"?>
<!-- Generator: Adobe Illustrator 17.0.0, SVG Export Plug-In . SVG Version: 6.00 Build 0)  -->
<!DOCTYPE svg PUBLIC "-//W3C//DTD SVG 1.1//EN" "http://www.w3.org/Graphics/SVG/1.1/DTD/svg11.dtd">
<svg version="1.1" id="图层_2" xmlns="http://www.w3.org/2000/svg" xmlns:xlink="http://www.w3.org/1999/xlink" x="0px" y="0px"
	 width="1024px" height="1024px" viewBox="0 0 1024 1024" enable-background="new 0 0 1024 1024" xml:space="preserve">
<g>
	<path fill="#231815" d="M764,296h-84V140c0-66.621-41.391-108-108-108H284c-64.887,0-132,40.395-132,108v720
		c0,66.609,65.379,132,132,132h480c67.594,0,108-67.125,108-132V404C872,337.379,830.609,296,764,296z M824,860
		c0,41.297-22.453,84-60,84H284c-40.043,0-84-43.969-84-84V140c0-37.559,42.715-60,84-60h288c39.82,0,60,20.191,60,60v180
		c0,13.254,10.734,24,24,24h108c39.82,0,60,20.191,60,60V860z"/>
	<path fill="#231815" d="M344,248c-13.254,0-24,10.746-24,24v48c0,13.254,10.746,24,24,24s24-10.746,24-24v-48
		C368,258.746,357.254,248,344,248z"/>
	<path fill="#231815" d="M512,248c-13.254,0-24,10.746-24,24v48c0,13.254,10.746,24,24,24s24-10.746,24-24v-48
		C536,258.746,525.254,248,512,248z"/>
	<path fill="#231815" d="M344,464c-13.254,0-24,10.746-24,24v48c0,13.266,10.746,24,24,24s24-10.734,24-24v-48
		C368,474.746,357.254,464,344,464z"/>
	<path fill="#231815" d="M512,464c-13.254,0-24,10.746-24,24v48c0,13.266,10.746,24,24,24s24-10.734,24-24v-48
		C536,474.746,525.254,464,512,464z"/>
	<path fill="#231815" d="M344,680c-13.254,0-24,10.734-24,24v48c0,13.266,10.746,24,24,24s24-10.734,24-24v-48
		C368,690.734,357.254,680,344,680z"/>
	<path fill="#231815" d="M512,680c-13.254,0-24,10.734-24,24v48c0,13.266,10.746,24,24,24s24-10.734,24-24v-48
		C536,690.734,525.254,680,512,680z"/>
	<path fill="#231815" d="M680,464c-13.266,0-24,10.746-24,24v48c0,13.266,10.734,24,24,24s24-10.734,24-24v-48
		C704,474.746,693.266,464,680,464z"/>
	<path fill="#231815" d="M680,680c-13.266,0-24,10.734-24,24v48c0,13.266,10.734,24,24,24s24-10.734,24-24v-48
		C704,690.734,693.266,680,680,680z"/>
</g>
</svg>
