<?xml version="1.0" encoding="utf-8"?>
<!-- Generator: Adobe Illustrator 17.0.0, SVG Export Plug-In . SVG Version: 6.00 Build 0)  -->
<!DOCTYPE svg PUBLIC "-//W3C//DTD SVG 1.1//EN" "http://www.w3.org/Graphics/SVG/1.1/DTD/svg11.dtd">
<svg version="1.1" id="图层_3" xmlns="http://www.w3.org/2000/svg" xmlns:xlink="http://www.w3.org/1999/xlink" x="0px" y="0px"
	 width="1024px" height="1024px" viewBox="0 0 1024 1024" enable-background="new 0 0 1024 1024" xml:space="preserve">
<g>
	<path fill="#6F45BB" d="M833.5,390.5h-266v252h364V488.937C931.5,427.081,895.357,390.5,833.5,390.5z"/>
	<path fill="#6F45BB" d="M91.5,488.937V642.5h364v-252h-238C155.643,390.5,91.5,427.081,91.5,488.937z"/>
	<path fill="#6F45BB" d="M91.5,880.937c0,61.855,64.143,125.563,126,125.563h238v-252h-364V880.937z"/>
	<path fill="#6F45BB" d="M567.5,1006.5h266c61.857,0,98-63.708,98-125.563V754.5h-364V1006.5z"/>
	<path fill="#6F45BB" d="M830.383,250.226c33.059-33.059,51.516-67.812,54.824-103.277c3.309-35.191-9.133-68.824-35.027-94.705
		c-23.242-23.256-52.145-35.547-83.562-35.547c-26.934,0-68.688,9.598-114.406,55.33
		c-58.926,58.926-120.777,184.092-123.402,189.383l-5.688,11.578l-5.688-11.578c-2.625-5.291-64.477-130.457-123.402-189.369
		c-45.719-45.746-87.473-55.344-114.406-55.344c-31.418,0-60.32,12.291-83.562,35.547c-25.895,25.881-38.336,59.514-35.027,94.705
		c3.309,35.465,21.766,70.219,54.824,103.277c63.301,63.314,229.988,70.834,262.773,71.695l20.188,0.533l-0.637,1.299l24.938-0.658
		l24.938,0.658l-0.637-1.299l20.188-0.533C600.395,321.06,767.082,313.541,830.383,250.226z M711.602,131.431
		c19.824-19.824,39.348-30.734,55.016-30.734c8.914,0,16.816,3.582,24.172,10.938c8.23,8.23,11.758,17.227,10.801,27.494
		c-1.422,15.025-12.277,33.387-30.598,51.707c-19.852,19.838-75.578,33.496-130.539,40.865
		C661.863,195.183,688.305,154.715,711.602,131.431z M275.25,190.836c-18.32-18.32-29.176-36.682-30.598-51.707
		c-0.957-10.268,2.57-19.264,10.801-27.494c7.355-7.355,15.258-10.938,24.172-10.938c15.668,0,35.191,10.91,55.016,30.734
		c23.242,23.242,49.711,63.725,71.121,100.256C350.828,224.332,295.074,210.674,275.25,190.836z"/>
</g>
</svg>
