<?xml version="1.0" encoding="utf-8"?>
<!-- Generator: Adobe Illustrator 17.0.0, SVG Export Plug-In . SVG Version: 6.00 Build 0)  -->
<!DOCTYPE svg PUBLIC "-//W3C//DTD SVG 1.1//EN" "http://www.w3.org/Graphics/SVG/1.1/DTD/svg11.dtd">
<svg version="1.1" id="图层_3" xmlns="http://www.w3.org/2000/svg" xmlns:xlink="http://www.w3.org/1999/xlink" x="0px" y="0px"
	 width="1024px" height="1024px" viewBox="0 0 1024 1024" enable-background="new 0 0 1024 1024" xml:space="preserve">
<g>
	<path d="M511.411,0C229.42,0,0,229.42,0,511.411s229.42,511.411,511.411,511.411s511.411-229.42,511.411-511.411
		S793.401,0,511.411,0z M511.411,968.989c-252.314,0-457.578-205.263-457.578-457.578S259.096,53.833,511.411,53.833
		s457.578,205.263,457.578,457.578S763.725,968.989,511.411,968.989z"/>
	<path d="M793.06,535.488H583.024c-7.744-20.59-24.106-36.95-44.697-44.693V179.911c0-14.864-12.039-26.916-26.916-26.916
		c-14.878,0-26.916,12.052-26.916,26.916v310.884c-28.967,10.893-49.583,38.841-49.583,71.615c0,42.249,34.25,76.499,76.499,76.499
		c32.776,0,60.726-20.619,71.617-49.588H793.06c14.878,0,26.916-12.052,26.916-26.916S807.937,535.488,793.06,535.488z"/>
</g>
</svg>
