<?xml version="1.0" encoding="utf-8"?>
<!-- Generator: Adobe Illustrator 17.0.0, SVG Export Plug-In . SVG Version: 6.00 Build 0)  -->
<!DOCTYPE svg PUBLIC "-//W3C//DTD SVG 1.1//EN" "http://www.w3.org/Graphics/SVG/1.1/DTD/svg11.dtd">
<svg version="1.1" id="图层_3" xmlns="http://www.w3.org/2000/svg" xmlns:xlink="http://www.w3.org/1999/xlink" x="0px" y="0px"
	 width="1024px" height="1024px" viewBox="0 0 1024 1024" enable-background="new 0 0 1024 1024" xml:space="preserve">
<g>
	<path d="M512.541,1021.838c-281.429,0-510.378-228.949-510.378-510.378S231.111,1.081,512.541,1.081
		s510.378,228.949,510.378,510.378S793.97,1021.838,512.541,1021.838z M512.541,43.902c-257.803,0-467.558,209.755-467.558,467.558
		s209.755,467.558,467.558,467.558s467.558-209.755,467.558-467.558S770.343,43.902,512.541,43.902z"/>
	<path d="M594.669,838.072c-4.6,0-9.158-1.464-12.963-4.37c-6.774-5.144-9.869-13.821-7.862-22.079l3.722-14.531
		c9.409-36.36,26.93-104.083,12.629-150.667c-7.527-24.651-25.299-38.995-44.117-54.195c-23.334-18.818-49.762-40.144-48.382-80.414
		c2.342-66.949,146.109-186.212,147.531-187.194c34.875-23.752,72.595-16.162,90.701,15.619
		c13.047,22.79,13.549,52.146,1.255,73.034c-24.296,49.804,0.711,86.018,38.806,131.557c22.665,27.118,44.075,52.711,31.865,80.958
		c-72.051,127.271-165.763,188.888-202.73,209.567C601.862,837.173,598.266,838.072,594.669,838.072z M686.793,353.056
		c-3.304,0-9.032,1.213-17.438,6.963c-21.034,14.95-127.584,116.273-128.839,153.302c-0.627,18.023,10.705,28.038,32.45,45.581
		c20.867,16.852,46.835,37.803,58.209,74.999c13.172,43.03,6.314,93.921-2.676,135.028c40.814-30.568,95.761-82.254,141.091-162.209
		c-0.836-3.805-16.267-22.226-26.428-34.415c-33.036-39.475-82.923-99.128-43.657-179.291c5.227-9.033,4.558-22.226-0.711-31.509
		C695.574,355.9,691.56,353.056,686.793,353.056z"/>
	<path d="M465.998,433.01c-0.042,0-0.125,0-0.167,0c-22.372,0-50.348-3.094-79.954-6.335c-64.398-7.109-134.4-11.332-160.62,2.697
		c-8.196,4.412-18.441,3.011-25.132-3.596c-6.691-6.565-8.322-16.727-4.014-25.069c27.767-53.902,90.409-153.887,198.13-218.014
		c2.844-1.694,6.064-2.718,9.409-2.948c39.601-2.885,73.473,9.743,96.347,36.276c32.116,37.259,41.984,99.441,29.23,184.832
		C518.562,432.885,480.55,433.01,465.998,433.01z M287.271,376.369c33.036,0,68.747,3.931,103.288,7.736
		c28.436,3.115,55.24,6.084,75.271,6.084l0,0c13.005,0,19.445-1.296,22.372-2.195c9.158-66.322,2.342-117.36-20.616-143.997
		c-13.089-15.18-32.199-21.996-55.91-21.808C339.501,266.453,289.697,328.593,258.71,377.54
		C267.45,376.745,276.943,376.369,287.271,376.369z"/>
</g>
</svg>
