<?xml version="1.0" encoding="utf-8"?>
<!-- Generator: Adobe Illustrator 17.0.0, SVG Export Plug-In . SVG Version: 6.00 Build 0)  -->
<!DOCTYPE svg PUBLIC "-//W3C//DTD SVG 1.1//EN" "http://www.w3.org/Graphics/SVG/1.1/DTD/svg11.dtd">
<svg version="1.1" id="图层_2" xmlns="http://www.w3.org/2000/svg" xmlns:xlink="http://www.w3.org/1999/xlink" x="0px" y="0px"
	 width="1024px" height="1024px" viewBox="0 0 1024 1024" enable-background="new 0 0 1024 1024" xml:space="preserve">
<g>
	<path d="M958.072,209.842H265.101c-36.36,0-65.921,29.568-65.921,65.928v119.623L17.221,500.44C6.586,506.572,0,517.962,0,530.27
		c0,12.273,6.55,23.682,17.22,29.808l181.959,105.085v83.023c0,36.373,29.561,65.972,65.921,65.972h692.972
		c36.347,0,65.928-29.599,65.928-65.972V275.77C1024,239.41,994.419,209.842,958.072,209.842z M955.116,745.279H268.061V645.264
		c0-12.308-6.583-23.698-17.223-29.843l-147.516-85.134l147.536-85.204c10.651-6.145,17.203-17.522,17.203-29.81V278.726h687.055
		V745.279z"/>
	<path d="M413.272,565.451c29.548,0,53.442-23.911,53.442-53.459c0-29.508-23.894-53.475-53.442-53.475
		c-29.528,0-53.475,23.966-53.475,53.475C359.798,541.539,383.744,565.451,413.272,565.451z"/>
	<path d="M611.587,565.451c29.513,0,53.442-23.911,53.442-53.459c0-29.508-23.929-53.475-53.442-53.475
		c-29.508,0-53.492,23.966-53.492,53.475C558.094,541.539,582.078,565.451,611.587,565.451z"/>
	<path d="M809.89,565.451c29.526,0,53.473-23.911,53.473-53.459c0-29.508-23.947-53.475-53.473-53.475
		c-29.548,0-53.462,23.966-53.462,53.475C756.428,541.539,780.342,565.451,809.89,565.451z"/>
</g>
</svg>
