<?xml version="1.0" encoding="utf-8"?>
<!-- Generator: Adobe Illustrator 17.0.0, SVG Export Plug-In . SVG Version: 6.00 Build 0)  -->
<!DOCTYPE svg PUBLIC "-//W3C//DTD SVG 1.1//EN" "http://www.w3.org/Graphics/SVG/1.1/DTD/svg11.dtd">
<svg version="1.1" id="图层_3" xmlns="http://www.w3.org/2000/svg" xmlns:xlink="http://www.w3.org/1999/xlink" x="0px" y="0px"
	 width="1024px" height="1024px" viewBox="0 0 1024 1024" enable-background="new 0 0 1024 1024" xml:space="preserve">
<g>
	<polygon points="514.253,362.048 649.681,442.435 689.368,368.532 553.969,288.107 	"/>
	<path d="M467.224,449.6l-39.084,69.658c0,0-26.406,47.066-39.082,69.657c-12.678,22.589-16.972,56.783-16.29,67.845l-13.456,96.083
		c0.622,10.048,6.076,19.083,14.537,24.106c8.451,5.025,18.8,5.377,27.574,0.897l74.136-60.018
		c9.677-4.907,36.326-26.115,48.887-48.488c12.561-22.376,19.552-34.819,19.552-34.819l9.765-17.41l48.859-87.066l28.529-53.125
		l-135.418-80.386L467.224,449.6z"/>
	<path d="M512,0C229.23,0,0,229.23,0,512s229.23,512,512,512s512-229.23,512-512S794.77,0,512,0z M723.213,388.649L587.619,637.208
		l-9.775,17.41l-19.542,34.837c-6.359,11.314-13.534,26.699-26.456,33.241l-145.69,99.198c-5.211,2.668-10.838,3.837-16.475,3.954
		v0.273c-31.421,0-39.648-39.882-39.648-39.882l10.517-177.171c-0.915-14.78,8.295-28.938,14.663-40.271l19.532-34.819
		l145.379-265.969c10.788-19.241,34.693-25.821,53.388-14.722l135.399,80.426C727.604,344.813,734.011,369.408,723.213,388.649z"/>
</g>
</svg>
