<?xml version="1.0" encoding="utf-8"?>
<!-- Generator: Adobe Illustrator 17.0.0, SVG Export Plug-In . SVG Version: 6.00 Build 0)  -->
<!DOCTYPE svg PUBLIC "-//W3C//DTD SVG 1.1//EN" "http://www.w3.org/Graphics/SVG/1.1/DTD/svg11.dtd">
<svg version="1.1" id="图层_3" xmlns="http://www.w3.org/2000/svg" xmlns:xlink="http://www.w3.org/1999/xlink" x="0px" y="0px"
	 width="1024px" height="1024px" viewBox="0 0 1024 1024" enable-background="new 0 0 1024 1024" xml:space="preserve">
<g>
	<path d="M1023.051,366.998c0-5.105-2.81-9.792-7.294-12.196L518.076,88.524c-4.106-2.188-8.968-2.188-13.074,0L7.293,354.801
		C2.809,357.206,0,361.892,0,366.998s2.809,9.792,7.293,12.196l149.515,79.991v393.338c0,51.54,41.951,93.477,93.491,93.477h522.452
		c51.54,0,93.491-41.937,93.491-93.477V459.19l149.515-79.996C1020.242,376.79,1023.051,372.103,1023.051,366.998z M838.582,852.523
		c0,36.292-29.525,65.816-65.83,65.816H250.3c-36.305,0-65.83-29.525-65.83-65.816V473.985l320.532,171.487
		c2.053,1.094,4.295,1.634,6.537,1.634c2.242,0,4.484-0.54,6.537-1.634L838.582,473.99V852.523z M511.539,617.594l-468.4-250.597
		l468.4-250.597l468.373,250.597L511.539,617.594z"/>
	<path d="M1009.221,489.79c-7.638,0-13.83,6.192-13.83,13.83v287.26c0,7.638,6.192,13.83,13.83,13.83
		c7.638,0,13.831-6.192,13.831-13.83v-287.26C1023.051,495.982,1016.859,489.79,1009.221,489.79z"/>
</g>
</svg>
