<?xml version="1.0" encoding="utf-8"?>
<!-- Generator: Adobe Illustrator 18.1.0, SVG Export Plug-In . SVG Version: 6.00 Build 0)  -->
<svg version="1.1" id="图层_1" xmlns="http://www.w3.org/2000/svg" xmlns:xlink="http://www.w3.org/1999/xlink" x="0px" y="0px"
	 width="1024px" height="1024px" viewBox="0 0 1024 1024" enable-background="new 0 0 1024 1024" xml:space="preserve">
<g>
	<polygon fill="#FFBC00" points="789.193,439.67 779.068,410.902 934.49,356.092 551.966,217.079 102.362,356.539 254.538,405.318 
		245.217,434.354 0.961,356.062 552.74,184.917 1024.961,356.509 	"/>
	<path fill="#FFBC00" d="M597.44,839.555H433.947c-121.1,0-219.613-98.512-219.613-219.598V507.836
		c0-32.728,7.341-64.548,21.799-94.611l5.762-11.957l295.745,94.805l254.679-89.846l5.747,12.85
		c12.597,28.231,18.97,58.101,18.97,88.759v112.122C817.037,741.043,718.525,839.555,597.44,839.555z M258.29,438.538
		c-8.934,22.275-13.461,45.534-13.461,69.298v112.122c0,104.26,84.843,189.103,189.118,189.103H597.44
		c104.26,0,189.103-84.843,189.103-189.103V507.836c0-21.695-3.722-42.928-11.078-63.327l-237.347,83.726L258.29,438.538z"/>
	<polygon fill="#FFBC00" points="538.118,528.235 245.217,434.354 254.538,405.318 537.641,496.073 779.068,410.902 789.193,439.67 
			"/>
</g>
<path fill="#FFBC00" d="M900.987,783.361h-7.534c-19,0-34.455-15.456-34.455-34.455V404.619c0-19,15.456-34.47,34.455-34.47h7.534
	c19.029,0,34.485,15.471,34.485,34.47v344.287C935.472,767.905,920.016,783.361,900.987,783.361z M893.453,400.643
	c-2.144,0-3.961,1.817-3.961,3.976v344.287c0,2.144,1.817,3.961,3.961,3.961h7.534c2.174,0,3.991-1.817,3.991-3.961V404.619
	c0-2.159-1.817-3.976-3.991-3.976H893.453z"/>
</svg>
