<?xml version="1.0" encoding="utf-8"?>
<!-- Generator: Adobe Illustrator 16.0.0, SVG Export Plug-In . SVG Version: 6.00 Build 0)  -->
<!DOCTYPE svg PUBLIC "-//W3C//DTD SVG 1.1//EN" "http://www.w3.org/Graphics/SVG/1.1/DTD/svg11.dtd">
<svg version="1.1" id="图层_3" xmlns="http://www.w3.org/2000/svg" xmlns:xlink="http://www.w3.org/1999/xlink" x="0px" y="0px"
	 width="1024px" height="1024px" viewBox="0 0 1024 1024" enable-background="new 0 0 1024 1024" xml:space="preserve">
<g>
	<g>
		<path d="M291.116,502.324h196.179v-41.607H291.116V352.104H500.6v-41.848H244.185v354.624h264.638V623.03H291.116V502.324z
			 M737.658,407.983v30.963c-19.677-24.51-44.67-36.769-74.985-36.769c-22.739,0-42.537,5.647-59.388,16.934
			c-16.853,11.289-29.715,27.297-38.583,48.019c-8.871,20.724-13.305,43.342-13.305,67.852c0,35.642,9.676,66.199,29.028,91.679
			c19.352,25.483,46.686,38.222,82.003,38.222c28.384,0,52.089-11.206,71.119-33.623c0.157,28.384-0.89,47.008-3.144,55.876
			c-3.87,14.516-11.292,25.802-22.256,33.867c-10.967,8.063-26.529,12.094-46.686,12.094c-18.711,0-33.466-4.031-44.269-12.094
			c-8.065-5.968-12.982-15.482-14.757-28.545l-42.33-6.289c-0.646,27.736,8.465,48.501,27.334,62.287
			c18.866,13.788,43.621,20.684,74.262,20.684c25.803,0,47.534-4.84,65.193-14.516c17.658-9.677,30.557-22.857,38.704-39.55
			c8.14-16.691,12.215-45.036,12.215-85.027V407.983H737.658z M716.858,605.735c-13.546,15.404-30.322,23.103-50.314,23.103
			c-20.163,0-36.934-7.741-50.315-23.223c-13.388-15.481-20.08-40.072-20.08-73.778c0-30.964,6.775-54.307,20.321-70.029
			s29.994-23.585,49.346-23.585c19.674,0,36.487,7.981,50.436,23.947c13.949,15.965,20.926,39.673,20.926,71.118
			C737.176,566.186,730.404,590.338,716.858,605.735z"/>
	</g>
</g>
<path d="M514.987,1023c-68.703,0-135.367-13.465-198.14-40.014c-60.617-25.639-115.049-62.338-161.786-109.074
	C108.323,827.174,71.626,772.74,45.987,712.125C19.435,649.353,5.973,582.687,5.973,513.984c0-68.703,13.462-135.367,40.014-198.138
	c25.638-60.617,62.336-115.05,109.074-161.787c46.737-46.738,101.17-83.436,161.786-109.074
	c62.772-26.551,129.437-40.013,198.14-40.013s135.366,13.462,198.139,40.013c60.616,25.639,115.049,62.336,161.787,109.074
	c46.738,46.737,83.436,101.17,109.074,161.787C1010.537,378.617,1024,445.281,1024,513.984c0,68.703-13.463,135.369-40.014,198.141
	c-25.638,60.617-62.336,115.049-109.074,161.787s-101.17,83.436-161.787,109.074C650.353,1009.535,583.69,1023,514.987,1023z
	 M514.987,64.244c-60.729,0-119.623,11.887-175.05,35.331c-53.551,22.651-101.652,55.082-142.965,96.396
	c-41.314,41.313-73.745,89.413-96.396,142.963c-23.443,55.428-35.331,114.322-35.331,175.048
	c0,60.729,11.888,119.625,35.331,175.051c22.651,53.553,55.082,101.652,96.396,142.967c41.313,41.313,89.413,73.744,142.965,96.395
	c55.427,23.445,114.321,35.332,175.05,35.332c60.727,0,119.623-11.887,175.05-35.332C743.587,905.744,791.688,873.312,833,832
	c41.314-41.314,73.746-89.414,96.396-142.965c23.443-55.428,35.331-114.322,35.331-175.051c0-60.726-11.888-119.623-35.331-175.05
	C906.745,285.383,874.315,237.282,833,195.969c-41.313-41.313-89.413-73.745-142.964-96.396
	C634.61,76.132,575.713,64.244,514.987,64.244z"/>
</svg>
