<?xml version="1.0" encoding="utf-8"?>
<!-- Generator: Adobe Illustrator 17.0.0, SVG Export Plug-In . SVG Version: 6.00 Build 0)  -->
<!DOCTYPE svg PUBLIC "-//W3C//DTD SVG 1.1//EN" "http://www.w3.org/Graphics/SVG/1.1/DTD/svg11.dtd">
<svg version="1.1" id="图层_3" xmlns="http://www.w3.org/2000/svg" xmlns:xlink="http://www.w3.org/1999/xlink" x="0px" y="0px"
	 width="1024px" height="1024px" viewBox="0 0 1024 1024" enable-background="new 0 0 1024 1024" xml:space="preserve">
<path d="M886.228,162.213H137.772C62.903,162.213,2,223.129,2,298.011v428.004c0,74.869,60.903,135.772,135.772,135.772h748.455
	c74.869,0,135.772-60.903,135.772-135.772V298.011C1022,223.129,961.097,162.213,886.228,162.213z M137.772,215.976h748.455
	c39.259,0,72.073,27.763,80.072,64.661c-1.829,0.683-3.733,1.052-5.436,2.162l-444.083,289.33L63.235,273.466
	c-0.919-0.607-1.974-0.709-2.935-1.19C71.163,239.69,101.595,215.976,137.772,215.976z M886.228,808.024H137.772
	c-45.218,0-82.01-36.778-82.01-82.01V332.901l446.16,293.805c4.476,2.966,9.634,4.437,14.78,4.437
	c5.106,0,10.212-1.444,14.675-4.358l436.86-284.622v383.852C968.237,771.246,931.459,808.024,886.228,808.024z"/>
</svg>
