<?xml version="1.0" encoding="utf-8"?>
<!-- Generator: Adobe Illustrator 17.0.0, SVG Export Plug-In . SVG Version: 6.00 Build 0)  -->
<!DOCTYPE svg PUBLIC "-//W3C//DTD SVG 1.1//EN" "http://www.w3.org/Graphics/SVG/1.1/DTD/svg11.dtd">
<svg version="1.1" id="图层_3" xmlns="http://www.w3.org/2000/svg" xmlns:xlink="http://www.w3.org/1999/xlink" x="0px" y="0px"
	 width="1024px" height="1024px" viewBox="0 0 1024 1024" enable-background="new 0 0 1024 1024" xml:space="preserve">
<g>
	<path d="M849.034,386.955c-72.318,50.065-145.097,100.134-216.953,150.66c-30.132,20.862-81.12,63.509-118.673,63.509h-0.463
		h-0.462c-37.549,0-88.542-42.647-118.674-63.509c-71.856-50.526-144.635-100.596-216.491-150.66
		c-32.911-22.248-79.729-74.629-79.729-116.819c0-45.427,24.57-84.368,74.172-84.368H854.13c40.327,0,74.172,33.374,74.172,74.172
		C928.302,311.863,889.829,358.682,849.034,386.955L849.034,386.955z M928.302,764.301c0,40.793-33.373,74.172-74.167,74.172
		H171.761c-40.794,0-74.172-33.378-74.172-74.172V396.23c13.908,15.295,29.669,28.736,46.818,40.328
		c76.955,52.385,154.83,104.77,230.394,159.929c38.945,28.746,87.15,63.972,137.682,63.972h0.462h0.466
		c50.528,0,98.737-35.227,137.682-63.972c75.559-54.701,153.439-107.544,230.856-159.929c16.687-11.587,32.449-25.033,46.357-40.328
		v368.072H928.302z M928.302,764.301"/>
</g>
</svg>
