<?xml version="1.0" encoding="utf-8"?>
<!-- Generator: Adobe Illustrator 17.0.0, SVG Export Plug-In . SVG Version: 6.00 Build 0)  -->
<!DOCTYPE svg PUBLIC "-//W3C//DTD SVG 1.1//EN" "http://www.w3.org/Graphics/SVG/1.1/DTD/svg11.dtd">
<svg version="1.1" id="图层_3" xmlns="http://www.w3.org/2000/svg" xmlns:xlink="http://www.w3.org/1999/xlink" x="0px" y="0px"
	 width="1024px" height="1024px" viewBox="0 0 1024 1024" enable-background="new 0 0 1024 1024" xml:space="preserve">
<g>
	<path d="M800.948,927.375"/>
	<g>
		<path d="M493.434,134.277c0-20.941-16.985-37.916-37.921-37.916H341.748c-20.941,0-37.921,16.975-37.921,37.916v758.409h189.607
			V134.277L493.434,134.277z"/>
		<path d="M265.906,361.799c0-20.937-16.975-37.916-37.916-37.916H114.226c-20.946,0-37.92,16.975-37.92,37.916v530.887h189.601
			V361.799L265.906,361.799z"/>
		<path d="M720.951,589.321c0-20.941-16.975-37.921-37.916-37.921H569.27c-20.941,0-37.916,16.98-37.916,37.921v303.365h189.597
			V589.321L720.951,589.321z"/>
		<path d="M910.557,778.922H796.798c-20.946,0-37.921,16.984-37.921,37.927v75.838h189.597v-75.838
			C948.473,795.906,931.493,778.922,910.557,778.922L910.557,778.922z"/>
		<path d="M910.557,778.922"/>
	</g>
</g>
</svg>
