<?xml version="1.0" encoding="utf-8"?>
<!-- Generator: Adobe Illustrator 17.0.0, SVG Export Plug-In . SVG Version: 6.00 Build 0)  -->
<!DOCTYPE svg PUBLIC "-//W3C//DTD SVG 1.1//EN" "http://www.w3.org/Graphics/SVG/1.1/DTD/svg11.dtd">
<svg version="1.1" id="图层_2" xmlns="http://www.w3.org/2000/svg" xmlns:xlink="http://www.w3.org/1999/xlink" x="0px" y="0px"
	 width="1024px" height="1024px" viewBox="0 0 1024 1024" enable-background="new 0 0 1024 1024" xml:space="preserve">
<path d="M1019.345,514.327L1019.345,514.327L882.036,107.055c-13.964-37.236-48.873-60.509-90.764-60.509H232.727
	c-44.218,0-74.473,20.945-90.764,62.836L2.327,514.327l0,0c0,6.982-2.327,13.964-2.327,20.945v372.364
	c0,39.564,30.255,69.818,69.818,69.818h884.364c39.564,0,69.818-30.255,69.818-69.818V535.273
	C1024,528.291,1021.673,521.309,1019.345,514.327z M183.855,125.673c9.309-23.273,23.273-32.582,48.873-32.582h558.545
	c27.927,0,41.891,18.618,48.873,30.255l114.036,342.109l0,0H651.636v23.273c0,76.8-62.836,139.636-139.636,139.636
	s-139.636-62.837-139.636-139.637v-23.273H69.819l0,0L183.855,125.673z M977.455,907.636c0,13.964-9.309,23.273-23.273,23.273
	H69.818c-13.964,0-23.273-9.309-23.273-23.273V535.273c0-2.327,0-6.982,2.327-9.309l0,0C51.2,518.982,60.509,512,69.818,512h258.327
	C339.782,602.764,418.909,674.909,512,674.909S684.218,602.764,695.855,512h258.327c13.964,0,23.273,9.309,23.273,23.273
	L977.455,907.636L977.455,907.636z"/>
</svg>
