<?xml version="1.0" encoding="utf-8"?>
<!-- Generator: Adobe Illustrator 17.0.0, SVG Export Plug-In . SVG Version: 6.00 Build 0)  -->
<!DOCTYPE svg PUBLIC "-//W3C//DTD SVG 1.1//EN" "http://www.w3.org/Graphics/SVG/1.1/DTD/svg11.dtd">
<svg version="1.1" id="图层_3" xmlns="http://www.w3.org/2000/svg" xmlns:xlink="http://www.w3.org/1999/xlink" x="0px" y="0px"
	 width="1024px" height="1024px" viewBox="0 0 1024 1024" enable-background="new 0 0 1024 1024" xml:space="preserve">
<path d="M980.366,154.746c-37.983-62.44-98.489-100.299-179.859-112.485c-148.26-22.384-240.536,55.642-288.495,132.661
	C464.08,97.961,371.853,20.024,223.495,42.261c-81.37,12.186-141.889,50.058-179.87,112.538
	C-18.995,257.82,1.801,394.944,23.97,459.714c91.706,267.845,452.585,509.68,467.902,519.838c0.431,0.287,0.923,0.371,1.361,0.638
	c2.028,1.225,4.143,2.175,6.346,2.978c0.972,0.356,1.895,0.823,2.882,1.092c2.984,0.809,6.042,1.285,9.144,1.323
	c0.125,0.002,0.247,0.053,0.371,0.053c0.013,0,0.022-0.004,0.036-0.004c0.013,0,0.024,0.004,0.038,0.004
	c0.125,0,0.247-0.051,0.371-0.053c3.1-0.038,6.155-0.514,9.14-1.323c0.987-0.269,1.915-0.736,2.886-1.092
	c2.206-0.803,4.327-1.755,6.355-2.982c0.434-0.265,0.921-0.349,1.348-0.634c15.317-10.158,376.201-251.992,467.907-519.855
	C1022.206,394.908,1042.984,257.749,980.366,154.746z M931.104,436.127c-72.118,210.693-343.37,414.844-419.092,468.676
	C436.288,850.971,165.04,646.82,92.918,436.127c-23.427-68.453-29.351-173.842,12.971-243.487
	c26.222-43.125,69.436-69.491,128.407-78.328c187.22-28.11,240.447,150.232,242.635,157.915c0.4,1.419,1.379,2.448,1.928,3.778
	c0.945,2.302,1.935,4.452,3.324,6.511c1.348,1.997,2.873,3.671,4.559,5.339c1.583,1.577,3.155,3.018,5.032,4.292
	c2.166,1.474,4.441,2.513,6.876,3.491c1.276,0.516,2.255,1.459,3.614,1.835c0.821,0.229,1.614,0.009,2.435,0.18
	c2.377,0.494,4.748,0.527,7.227,0.531c2.573,0.009,5.03-0.022,7.494-0.543c0.789-0.165,1.554,0.049,2.344-0.169
	c1.332-0.369,2.29-1.296,3.545-1.799c2.477-0.992,4.79-2.046,6.989-3.549c1.863-1.272,3.424-2.717,4.999-4.287
	c1.683-1.67,3.218-3.342,4.563-5.341c1.405-2.084,2.391-4.265,3.342-6.596c0.545-1.33,1.519-2.359,1.912-3.778
	c2.117-7.614,53.972-185.939,242.595-157.811c58.975,8.837,102.167,35.186,128.391,78.308
	C960.422,262.232,954.515,367.654,931.104,436.127z"/>
</svg>
