<?xml version="1.0" encoding="utf-8"?>
<!-- Generator: Adobe Illustrator 17.0.0, SVG Export Plug-In . SVG Version: 6.00 Build 0)  -->
<!DOCTYPE svg PUBLIC "-//W3C//DTD SVG 1.1//EN" "http://www.w3.org/Graphics/SVG/1.1/DTD/svg11.dtd">
<svg version="1.1" id="图层_3" xmlns="http://www.w3.org/2000/svg" xmlns:xlink="http://www.w3.org/1999/xlink" x="0px" y="0px"
	 width="1024px" height="1024px" viewBox="0 0 1024 1024" enable-background="new 0 0 1024 1024" xml:space="preserve">
<g>
	<path d="M1000.55,295.029L646.621,151.497c-17.616-7.128-37.615,1.34-44.761,18.925l-65.442,161.36l-117.245-89.028
		c-12.395-9.375-29.523-9.31-41.788,0.187L15.351,522.774C6.932,529.266,2,539.315,2,549.948v279.867
		c0,10.887,5.15,21.123,13.892,27.6c5.987,4.445,13.186,6.756,20.464,6.756c3.336,0,6.71-0.484,9.981-1.472l404.118-122.774
		l315.538,132.418c4.261,1.795,8.772,2.686,13.303,2.686c4.481,0,8.975-0.872,13.186-2.636c8.486-3.521,15.201-10.3,18.652-18.808
		l208.338-513.799C1026.603,322.186,1018.129,302.156,1000.55,295.029z M70.713,566.812l327.86-253.414l111.09,84.354
		l-50.78,125.207c-0.413,1.019-0.275,2.076-0.585,3.11l-1.378,3.433c-4.8,11.98-2.483,25.65,5.989,35.38
		c8.472,9.713,21.706,13.855,34.222,10.753l68.679-17.195c0.705-0.117,2.548-0.338,5.033-0.338c16.742,0,26.505,8.74,31.639,28.338
		c7.415,28.399-16.004,39.907-25.482,43.231L70.713,783.467V566.812z M760.525,795.528l-207.072-86.893l44.082-13.393
		c38.716-12.496,89.663-56.429,71.414-126.201c-13.054-49.876-49.725-79.653-98.106-79.653c-9.914,0-16.945,1.344-19.978,2.013
		l-5.138,1.275l37.563-93.572c0.015-0.038,0.01-0.075,0.025-0.113l69.308-170.897l290.268,117.7L760.525,795.528z"/>
	<path d="M365.072,508.999l-102.365,48.752c-17.126,8.153-24.39,28.653-16.237,45.797c5.888,12.366,18.202,19.577,31.035,19.577
		c4.963,0,9.979-1.074,14.763-3.336l102.365-48.752c17.128-8.153,24.394-28.653,16.237-45.797
		C402.704,508.095,382.202,500.865,365.072,508.999z"/>
</g>
</svg>
