<?xml version="1.0" encoding="utf-8"?>
<!-- Generator: Adobe Illustrator 17.0.0, SVG Export Plug-In . SVG Version: 6.00 Build 0)  -->
<!DOCTYPE svg PUBLIC "-//W3C//DTD SVG 1.1//EN" "http://www.w3.org/Graphics/SVG/1.1/DTD/svg11.dtd">
<svg version="1.1" id="图层_3" xmlns="http://www.w3.org/2000/svg" xmlns:xlink="http://www.w3.org/1999/xlink" x="0px" y="0px"
	 width="1024px" height="1024px" viewBox="0 0 1024 1024" enable-background="new 0 0 1024 1024" xml:space="preserve">
<path d="M870.204,185.472h-54.119V131.62c0-65.95-53.668-119.619-119.619-119.619H326.213c-65.951,0-119.619,53.668-119.619,119.619
	v53.852h-54.102c-84.808,0-153.795,68.988-153.795,153.795v512.652c0,84.808,68.988,153.795,153.795,153.795h717.713
	c84.808,0,153.796-68.988,153.796-153.795V339.267C1024,254.459,955.012,185.472,870.204,185.472z M240.771,131.62
	c0-47.11,38.332-85.442,85.442-85.442h370.254c47.11,0,85.442,38.332,85.442,85.442v53.852H240.771V131.62z M152.492,219.648
	h717.713c65.951,0,119.619,53.668,119.619,119.619v76.025c-454.605,285.081-894.337,38.163-956.95-0.025v-76
	C32.873,273.317,86.541,219.648,152.492,219.648z M870.204,971.538H152.492c-65.95,0-119.619-53.668-119.619-119.619V454.812
	c67.226,37.901,255.581,130.285,493.561,130.285c141.881,0,301.442-32.924,463.389-129.767v396.589
	C989.823,917.869,936.155,971.538,870.204,971.538z"/>
</svg>
