<?xml version="1.0" encoding="utf-8"?>
<!-- Generator: Adobe Illustrator 17.0.0, SVG Export Plug-In . SVG Version: 6.00 Build 0)  -->
<!DOCTYPE svg PUBLIC "-//W3C//DTD SVG 1.1//EN" "http://www.w3.org/Graphics/SVG/1.1/DTD/svg11.dtd">
<svg version="1.1" id="图层_3" xmlns="http://www.w3.org/2000/svg" xmlns:xlink="http://www.w3.org/1999/xlink" x="0px" y="0px"
	 width="1024px" height="1024px" viewBox="0 0 1024 1024" enable-background="new 0 0 1024 1024" xml:space="preserve">
<g>
	<path d="M512,0C229.686,0,0,229.686,0,512s229.686,512,512,512s512-229.686,512-512S794.314,0,512,0z M512,963.765
		C262.892,963.765,60.235,761.098,60.235,512C60.235,262.892,262.892,60.235,512,60.235c249.098,0,451.765,202.657,451.765,451.765
		C963.765,761.098,761.098,963.765,512,963.765z"/>
	<path d="M662.588,662.588H341.333c-16.637,0-30.118,13.49-30.118,30.118s13.48,30.118,30.118,30.118h321.255
		c16.627,0,30.118-13.49,30.118-30.118S679.216,662.588,662.588,662.588z"/>
	<path d="M371.451,471.843c16.637,0,30.118-13.48,30.118-30.118v-80.314c0-16.637-13.48-30.118-30.118-30.118
		c-16.637,0-30.118,13.48-30.118,30.118v80.314C341.333,458.363,354.814,471.843,371.451,471.843z"/>
	<path d="M632.471,471.843c16.627,0,30.118-13.48,30.118-30.118v-80.314c0-16.637-13.49-30.118-30.118-30.118
		s-30.118,13.48-30.118,30.118v80.314C602.353,458.363,615.843,471.843,632.471,471.843z"/>
</g>
</svg>
