<?xml version="1.0" encoding="utf-8"?>
<!-- Generator: Adobe Illustrator 17.0.0, SVG Export Plug-In . SVG Version: 6.00 Build 0)  -->
<!DOCTYPE svg PUBLIC "-//W3C//DTD SVG 1.1//EN" "http://www.w3.org/Graphics/SVG/1.1/DTD/svg11.dtd">
<svg version="1.1" id="图层_3" xmlns="http://www.w3.org/2000/svg" xmlns:xlink="http://www.w3.org/1999/xlink" x="0px" y="0px"
	 width="1024px" height="1024px" viewBox="0 0 1024 1024" enable-background="new 0 0 1024 1024" xml:space="preserve">
<g>
	<path d="M697.755,755.483c-7.71,0-15.128-4.167-18.941-11.481c-32.485-62.324-96.372-101.06-166.719-101.06
		c-70.367,0-134.233,38.716-166.719,101.04c-5.439,10.439-18.378,14.482-28.776,9.064c-10.46-5.439-14.503-18.337-9.064-28.776
		c39.841-76.493,118.23-124.002,204.559-124.002c86.308,0,164.697,47.53,204.559,124.023c5.439,10.439,1.396,23.338-9.064,28.776
		C704.444,754.712,701.068,755.483,697.755,755.483z"/>
	<path d="M432.939,337.704c0,35.329-28.632,63.919-64.059,63.919c-35.316,0-63.964-28.591-63.964-63.919
		c0-35.286,28.648-63.925,63.964-63.925C404.307,273.78,432.939,302.418,432.939,337.704z"/>
	<path d="M719.284,337.704c0,35.345-28.666,63.948-64.03,63.948c-35.348,0-63.993-28.604-63.993-63.948
		c0-35.302,28.645-63.954,63.993-63.954C690.617,273.751,719.284,302.402,719.284,337.704z"/>
	<path d="M512.096,1024.096C229.73,1024.096,0,794.365,0,512S229.73-0.096,512.096-0.096S1024.191,229.635,1024.191,512
		S794.461,1024.096,512.096,1024.096z M512.096,42.579C253.256,42.579,42.675,253.16,42.675,512s210.581,469.421,469.421,469.421
		S981.516,770.84,981.516,512S770.935,42.579,512.096,42.579z"/>
</g>
</svg>
