<?xml version="1.0" encoding="utf-8"?>
<!-- Generator: Adobe Illustrator 17.0.0, SVG Export Plug-In . SVG Version: 6.00 Build 0)  -->
<!DOCTYPE svg PUBLIC "-//W3C//DTD SVG 1.1//EN" "http://www.w3.org/Graphics/SVG/1.1/DTD/svg11.dtd">
<svg version="1.1" id="图层_3" xmlns="http://www.w3.org/2000/svg" xmlns:xlink="http://www.w3.org/1999/xlink" x="0px" y="0px"
	 width="1024px" height="1024px" viewBox="0 0 1024 1024" enable-background="new 0 0 1024 1024" xml:space="preserve">
<g>
	<path d="M512.634,905.576L643.381,799.94c8.168-6.598,18.352-10.2,28.853-10.2H946.35c16.949,0,30.741-14.249,30.741-31.766V136.57
		c0-17.519-13.792-31.77-30.741-31.77H77.651c-16.949,0-30.741,14.252-30.741,31.77v621.405c0,17.516,13.792,31.766,30.741,31.766
		h280.906c10.836,0,21.321,3.832,29.604,10.82L512.634,905.576 M512.002,965.111L358.557,835.65H77.651
		C35.315,835.65,1,800.871,1,757.974V136.57c0-42.901,34.315-77.68,76.651-77.68H946.35c42.331,0,76.651,34.779,76.651,77.68
		v621.405c0,42.897-34.319,77.676-76.651,77.676H672.234L512.002,965.111L512.002,965.111L512.002,965.111z"/>
	<path d="M207.248,236.81h583.679c1.129,0,2.044,0.915,2.044,2.044v114.008c0,1.127-0.915,2.044-2.044,2.044H207.248
		c-1.127,0-2.042-0.917-2.042-2.044V238.854C205.206,237.724,206.121,236.81,207.248,236.81L207.248,236.81z"/>
	<path d="M747.06,308.995v-26.276H251.115v26.276H747.06 M790.927,354.906H207.248c-1.127,0-2.042-0.915-2.042-2.044v-114.01
		c0-1.127,0.915-2.042,2.042-2.042h583.679c1.129,0,2.044,0.915,2.044,2.042v114.01
		C792.971,353.991,792.056,354.906,790.927,354.906L790.927,354.906L790.927,354.906z"/>
	<path d="M207.248,461.561h583.679c1.129,0,2.044,0.917,2.044,2.044V578.05c0,1.127-0.915,2.044-2.044,2.044H207.248
		c-1.127,0-2.042-0.917-2.042-2.044V463.605C205.206,462.478,206.121,461.561,207.248,461.561L207.248,461.561z"/>
	<path d="M747.06,534.185V507.47H251.115v26.715H747.06 M790.927,580.094H207.248c-1.127,0-2.042-0.917-2.042-2.044V463.605
		c0-1.127,0.915-2.044,2.042-2.044h583.679c1.129,0,2.044,0.917,2.044,2.044V578.05
		C792.971,579.177,792.056,580.094,790.927,580.094L790.927,580.094L790.927,580.094z"/>
</g>
</svg>
