<?xml version="1.0" encoding="utf-8"?>
<!-- Generator: Adobe Illustrator 17.0.0, SVG Export Plug-In . SVG Version: 6.00 Build 0)  -->
<!DOCTYPE svg PUBLIC "-//W3C//DTD SVG 1.1//EN" "http://www.w3.org/Graphics/SVG/1.1/DTD/svg11.dtd">
<svg version="1.1" id="图层_3" xmlns="http://www.w3.org/2000/svg" xmlns:xlink="http://www.w3.org/1999/xlink" x="0px" y="0px"
	 width="1024px" height="1024px" viewBox="0 0 1024 1024" enable-background="new 0 0 1024 1024" xml:space="preserve">
<g>
	<path fill="#FFC100" d="M512,932c-60.869,0-112.142-23.449-131.428-56c-5.212,8.798-8.572,18.129-8.572,28
		c0,46.392,62.68,84,140,84s140-37.608,140-84c0-9.871-3.36-19.202-8.572-28C624.142,908.551,572.869,932,512,932z"/>
	<path fill="#FFC100" d="M512,820c-60.869,0-112.142-23.449-131.428-56c-5.212,8.798-8.572,18.129-8.572,28
		c0,46.392,62.68,84,140,84s140-37.608,140-84c0-9.871-3.36-19.202-8.572-28C624.142,796.551,572.869,820,512,820z"/>
	<path fill="#FFC100" d="M512,708c-60.869,0-112.142-23.449-131.428-56c-5.212,8.798-8.572,18.129-8.572,28
		c0,46.392,62.68,84,140,84s140-37.608,140-84c0-9.871-3.36-19.202-8.572-28C624.142,684.551,572.869,708,512,708z"/>
	<path fill="#FFC100" d="M512,596c-60.869,0-112.142-23.449-131.428-56c-5.212,8.798-8.572,18.129-8.572,28
		c0,46.392,62.68,84,140,84s140-37.608,140-84c0-9.871-3.36-19.202-8.572-28C624.142,572.551,572.869,596,512,596z"/>
	<path fill="#FFC100" d="M512,484c-60.869,0-112.142-23.449-131.428-56c-5.212,8.798-8.572,18.129-8.572,28
		c0,46.392,62.68,84,140,84s140-37.608,140-84c0-9.871-3.36-19.202-8.572-28C624.142,460.551,572.869,484,512,484z"/>
	<path fill="#FFC100" d="M512,372c-60.869,0-112.142-23.449-131.428-56c-5.212,8.798-8.572,18.129-8.572,28
		c0,46.392,62.68,84,140,84s140-37.608,140-84c0-9.871-3.36-19.202-8.572-28C624.142,348.551,572.869,372,512,372z"/>
	<path fill="#FFC100" d="M512,260c-60.869,0-112.142-23.449-131.428-56c-5.212,8.798-8.572,18.129-8.572,28
		c0,46.392,62.68,84,140,84s140-37.608,140-84c0-9.871-3.36-19.202-8.572-28C624.142,236.551,572.869,260,512,260z"/>
	<ellipse fill="#FFC100" cx="512" cy="120" rx="140" ry="84"/>
	<path fill="#FFC100" d="M176,932c-60.869,0-112.142-23.449-131.428-56C39.36,884.798,36,894.129,36,904c0,46.392,62.68,84,140,84
		s140-37.608,140-84c0-9.871-3.36-19.202-8.572-28C288.142,908.551,236.869,932,176,932z"/>
	<path fill="#FFC100" d="M176,820c-60.869,0-112.142-23.449-131.428-56C39.36,772.798,36,782.129,36,792c0,46.392,62.68,84,140,84
		s140-37.608,140-84c0-9.871-3.36-19.202-8.572-28C288.142,796.551,236.869,820,176,820z"/>
	<path fill="#FFC100" d="M176,708c-60.869,0-112.142-23.449-131.428-56C39.36,660.798,36,670.129,36,680c0,46.392,62.68,84,140,84
		s140-37.608,140-84c0-9.871-3.36-19.202-8.572-28C288.142,684.551,236.869,708,176,708z"/>
	<path fill="#FFC100" d="M176,596c-60.869,0-112.142-23.449-131.428-56C39.36,548.798,36,558.129,36,568c0,46.392,62.68,84,140,84
		s140-37.608,140-84c0-9.871-3.36-19.202-8.572-28C288.142,572.551,236.869,596,176,596z"/>
	<path fill="#FFC100" d="M176,484c-60.869,0-112.142-23.449-131.428-56C39.36,436.798,36,446.129,36,456c0,46.392,62.68,84,140,84
		s140-37.608,140-84c0-9.871-3.36-19.202-8.572-28C288.142,460.551,236.869,484,176,484z"/>
	<ellipse fill="#FFC100" cx="176" cy="344" rx="140" ry="84"/>
	<path fill="#FFC100" d="M848,932c-60.869,0-112.142-23.449-131.428-56c-5.212,8.798-8.572,18.129-8.572,28
		c0,46.392,62.68,84,140,84s140-37.608,140-84c0-9.871-3.36-19.202-8.572-28C960.142,908.551,908.869,932,848,932z"/>
	<path fill="#FFC100" d="M848,820c-60.869,0-112.142-23.449-131.428-56c-5.212,8.798-8.572,18.129-8.572,28
		c0,46.392,62.68,84,140,84s140-37.608,140-84c0-9.871-3.36-19.202-8.572-28C960.142,796.551,908.869,820,848,820z"/>
	<path fill="#FFC100" d="M848,708c-60.869,0-112.142-23.449-131.428-56c-5.212,8.798-8.572,18.129-8.572,28
		c0,46.392,62.68,84,140,84s140-37.608,140-84c0-9.871-3.36-19.202-8.572-28C960.142,684.551,908.869,708,848,708z"/>
	<ellipse fill="#FFC100" cx="848" cy="568" rx="140" ry="84"/>
</g>
</svg>
