<?xml version="1.0" encoding="utf-8"?>
<!-- Generator: Adobe Illustrator 17.0.0, SVG Export Plug-In . SVG Version: 6.00 Build 0)  -->
<!DOCTYPE svg PUBLIC "-//W3C//DTD SVG 1.1//EN" "http://www.w3.org/Graphics/SVG/1.1/DTD/svg11.dtd">
<svg version="1.1" id="图层_3" xmlns="http://www.w3.org/2000/svg" xmlns:xlink="http://www.w3.org/1999/xlink" x="0px" y="0px"
	 width="1024px" height="1024px" viewBox="0 0 1024 1024" enable-background="new 0 0 1024 1024" xml:space="preserve">
<g>
	<g>
		<g>
			<defs>
				<rect id="SVGID_1_" x="0.077" y="7.53" width="1023.847" height="1010.94"/>
			</defs>
			<clipPath id="SVGID_2_">
				<use xlink:href="#SVGID_1_"  overflow="visible"/>
			</clipPath>
			<path clip-path="url(#SVGID_2_)" d="M880.688,989.07l28.127-28.128H28.205l28.127,28.128V106.563l-28.127,28.128h332.722
				c15.533,0,28.128-12.591,28.128-28.128c0-15.533-12.595-28.128-28.128-28.128H28.205c-15.533,0-28.128,12.595-28.128,28.128
				V989.07c0,15.537,12.595,28.128,28.128,28.128h880.61c15.533,0,28.128-12.591,28.128-28.128V655.4
				c0-15.533-12.595-28.128-28.128-28.128c-15.537,0-28.127,12.595-28.127,28.128V989.07z"/>
		</g>
	</g>
	<g>
		<g>
			<defs>
				<rect id="SVGID_3_" x="0.077" y="7.53" width="1023.847" height="1010.94"/>
			</defs>
			<clipPath id="SVGID_4_">
				<use xlink:href="#SVGID_3_"  overflow="visible"/>
			</clipPath>
			<path clip-path="url(#SVGID_4_)" d="M800.622,59.157c6.403,6.402,16.283,6.391,22.491,0.183L353.93,528.521
				c-0.605,0.601-4.134,6.82-4.347,7.673l-61.738,245.957c4.897-19.517-19.543-43.745-38.892-38.886l245.964-61.739
				c0.883-0.224,7.027-3.702,7.672-4.347l469.182-469.182c-6.029,6.029-6.045,16.257,0.184,22.485L800.622,59.157z
				 M1011.549,247.776L542.367,716.96c-7.86,7.86-23.021,16.435-33.755,19.13l-245.962,61.739
				c-21.657,5.434-34.878-7.414-29.369-29.368l61.739-245.964c2.705-10.783,11.374-25.999,19.131-33.755L783.333,19.561
				c15.81-15.811,41.551-15.702,57.069-0.184l171.331,171.331C1027.439,206.415,1027.518,231.808,1011.549,247.776L1011.549,247.776
				z"/>
		</g>
	</g>
</g>
</svg>
