<?xml version="1.0" encoding="utf-8"?>
<!-- Generator: Adobe Illustrator 17.0.0, SVG Export Plug-In . SVG Version: 6.00 Build 0)  -->
<!DOCTYPE svg PUBLIC "-//W3C//DTD SVG 1.1//EN" "http://www.w3.org/Graphics/SVG/1.1/DTD/svg11.dtd">
<svg version="1.1" id="图层_3" xmlns="http://www.w3.org/2000/svg" xmlns:xlink="http://www.w3.org/1999/xlink" x="0px" y="0px"
	 width="1024px" height="1024px" viewBox="0 0 1024 1024" enable-background="new 0 0 1024 1024" xml:space="preserve">
<path fill-rule="evenodd" clip-rule="evenodd" d="M956.565,1020.5H68.437C33.404,1020.5,5,992.096,5,957.062V322.688V259.25v-63.438
	V68.938C5,33.901,33.404,5.5,68.437,5.5h317.191c35.033,0,63.438,28.401,63.438,63.438v63.434h507.5
	c35.033,0,63.434,28.404,63.434,63.441v126.875v634.375C1020,992.096,991.599,1020.5,956.565,1020.5z M924.847,195.812h-63.438
	H385.628v-31.719v-31.722v-31.716c0-17.518-14.201-31.719-31.722-31.719h-253.75c-17.515,0-31.719,14.2-31.719,31.719v31.716v31.722
	v31.719v63.438h792.972h63.438c17.515,0,31.719-14.2,31.719-31.719S942.362,195.812,924.847,195.812z M956.565,386.122v-31.716
	v-31.719h-31.719H100.156H68.437v31.719v31.716v539.222c0,17.518,14.204,31.719,31.719,31.719h824.691
	c17.515,0,31.719-14.201,31.719-31.719V386.122z"/>
</svg>
