<?xml version="1.0" encoding="utf-8"?>
<!-- Generator: Adobe Illustrator 17.0.0, SVG Export Plug-In . SVG Version: 6.00 Build 0)  -->
<!DOCTYPE svg PUBLIC "-//W3C//DTD SVG 1.1//EN" "http://www.w3.org/Graphics/SVG/1.1/DTD/svg11.dtd">
<svg version="1.1" id="图层_3" xmlns="http://www.w3.org/2000/svg" xmlns:xlink="http://www.w3.org/1999/xlink" x="0px" y="0px"
	 width="1024px" height="1024px" viewBox="0 0 1024 1024" enable-background="new 0 0 1024 1024" xml:space="preserve">
<g>
	<path d="M443.772,307.892c6.786-10.72,20.977-13.909,31.697-7.125c10.72,6.787,13.909,20.977,7.125,31.697L388.986,480.36
		l-38.82-24.569L443.772,307.892 M397.344,435.184l-8.358,45.176l-156.129-28.887c-12.477-2.309-20.719-14.291-18.41-26.768
		c2.309-12.475,14.291-20.716,26.768-18.408L397.344,435.184 M96.792,505.524c-1.67-12.578,7.171-24.125,19.746-25.798
		c12.578-1.67,24.128,7.171,25.798,19.746l48.976,368.652l-45.542,6.05L96.792,505.524 M145.546,872.138l45.766-4.013
		c1.881,21.451,8.763,32.132,19.648,37.419c10.884,5.285,25.771,5.176,43.659,5.045c2.874-0.021,5.823-0.044,8.848-0.044h511.479
		c3.023,0,5.972,0.023,8.846,0.044c17.904,0.13,32.866,0.24,44.295-5.045c11.429-5.285,19.325-15.969,23.098-37.419l30.786-369.84
		l45.784,3.812l-30.786,369.838c-0.117,1.389-0.295,2.773-0.536,4.146c-6.157,35.01-22.663,58.955-49.058,71.161
		c-20.767,9.605-42.705,9.445-63.922,9.29c-2.764-0.021-5.599-0.043-8.507-0.043H263.467c-2.908,0-5.745,0.023-8.509,0.043
		c-21.396,0.156-43.521,0.318-64.071-9.663C164.004,933.813,148.749,908.67,145.546,872.138 M881.97,544.229v-45.945
		c4.073,0,8.148,0,16.277,0c12.685,0,22.97,10.285,22.97,22.972c0,12.687-10.285,22.972-22.97,22.972H881.97 M796.893,404.373
		c12.458-2.4,24.503,5.752,26.903,18.211c2.402,12.456-5.752,24.503-18.208,26.903L645.383,480.36l-8.695-45.112L796.893,404.373
		 M684.685,456.569l-39.302,23.791l-89.535-147.897c-6.569-10.852-3.098-24.977,7.757-31.548
		c10.852-6.569,24.977-3.098,31.548,7.754L684.685,456.569 M388.986,480.36l8.358-45.176L388.986,480.36L388.986,480.36
		L388.986,480.36z M388.986,480.36l-38.82-24.569L388.986,480.36L388.986,480.36L388.986,480.36z M145.77,874.175l45.542-6.05l0,0
		L145.77,874.175L145.77,874.175L145.77,874.175z M145.546,872.136l45.766-4.011l0,0L145.546,872.136L145.546,872.136
		L145.546,872.136z M881.97,544.229v-45.945l45.784,3.812l-45.784-3.812V544.229L881.97,544.229L881.97,544.229z M645.383,480.36
		l39.302-23.791L645.383,480.36L645.383,480.36L645.383,480.36z M645.383,480.36l-8.695-45.112L645.383,480.36L645.383,480.36
		L645.383,480.36z"/>
	<path d="M171.214,814.881c-12.687,0-22.972-10.283-22.972-22.97c0-12.687,10.285-22.972,22.972-22.972h705.172
		c12.687,0,22.972,10.285,22.972,22.972c0,12.687-10.285,22.97-22.972,22.97H171.214"/>
	<path d="M122.582,481.098c12.687,0,22.973,10.286,22.973,22.973c0,12.687-10.286,22.971-22.973,22.971
		c-35.777,0-66.172-9.666-87.623-28.445C13.508,479.816,1,451.923,1,415.468c0-72.908,58.008-132.017,129.554-132.017
		c71.553,0,129.552,59.109,129.552,132.017c0,12.687-10.286,22.973-22.973,22.973c-12.687,0-22.971-10.286-22.971-22.973
		c0-47.461-37.507-86.073-83.608-86.073c-46.104,0-83.611,38.612-83.611,86.073c0,21.604,6.15,37.942,18.279,48.56
		C77.978,475.195,97.813,481.098,122.582,481.098"/>
	<path d="M902.101,525.778c-12.688,0-22.972-10.284-22.972-22.972c0-12.686,10.284-22.97,22.972-22.97
		c41.395,0,74.957-34.194,74.957-76.369c0-42.182-33.562-76.374-74.957-76.374c-41.386,0-74.948,34.191-74.948,76.374
		c0,12.688-10.284,22.972-22.97,22.972c-12.689,0-22.972-10.284-22.972-22.972c0-67.445,54.23-122.316,120.89-122.316
		c66.665,0,120.899,54.871,120.899,122.316C1023,470.909,968.765,525.778,902.101,525.778"/>
	<path d="M459.987,288.32c9.83,8.022,11.294,22.492,3.272,32.321c-8.022,9.829-22.492,11.294-32.321,3.272
		c-32.342-26.395-53.051-66.963-53.051-112.47c0-79.533,63.279-144.014,141.334-144.014c78.056,0,141.335,64.48,141.335,144.014
		c0,49.184-24.194,92.612-61.126,118.596c-10.376,7.299-24.707,4.805-32.006-5.572c-7.301-10.376-4.807-24.704,5.569-32.006
		c26.061-18.332,41.62-48.622,41.62-81.018c0-54.076-42.792-98.069-95.392-98.069c-52.598,0-95.392,43.993-95.392,98.069
		C423.829,241.547,437.008,269.567,459.987,288.32"/>
</g>
</svg>
