<?xml version="1.0" encoding="utf-8"?>
<!-- Generator: Adobe Illustrator 17.0.0, SVG Export Plug-In . SVG Version: 6.00 Build 0)  -->
<!DOCTYPE svg PUBLIC "-//W3C//DTD SVG 1.1//EN" "http://www.w3.org/Graphics/SVG/1.1/DTD/svg11.dtd">
<svg version="1.1" id="图层_3" xmlns="http://www.w3.org/2000/svg" xmlns:xlink="http://www.w3.org/1999/xlink" x="0px" y="0px"
	 width="1024px" height="1024px" viewBox="0 0 1024 1024" enable-background="new 0 0 1024 1024" xml:space="preserve">
<path d="M980.366,154.746c-37.983-62.44-98.489-100.299-179.859-112.485c-148.26-22.384-240.536,55.642-288.495,132.661
	C464.08,97.961,371.853,20.024,223.495,42.261c-81.37,12.186-141.889,50.058-179.87,112.538
	C-18.995,257.82,1.801,394.944,23.97,459.714c91.706,267.845,452.585,509.68,467.902,519.838c0.431,0.287,0.923,0.371,1.361,0.638
	c2.028,1.225,4.143,2.175,6.346,2.978c0.972,0.356,1.895,0.823,2.882,1.092c2.984,0.809,6.042,1.285,9.144,1.323
	c0.125,0.002,0.247,0.053,0.371,0.053c0.013,0,0.022-0.004,0.036-0.004c0.013,0,0.024,0.004,0.038,0.004
	c0.125,0,0.247-0.051,0.371-0.053c3.1-0.038,6.155-0.514,9.14-1.323c0.987-0.269,1.915-0.736,2.886-1.092
	c2.206-0.803,4.327-1.755,6.355-2.982c0.434-0.265,0.921-0.349,1.348-0.634c15.317-10.158,376.201-251.992,467.907-519.855
	C1022.206,394.908,1042.984,257.749,980.366,154.746z"/>
</svg>
