<?xml version="1.0" encoding="utf-8"?>
<!-- Generator: Adobe Illustrator 17.0.0, SVG Export Plug-In . SVG Version: 6.00 Build 0)  -->
<!DOCTYPE svg PUBLIC "-//W3C//DTD SVG 1.1//EN" "http://www.w3.org/Graphics/SVG/1.1/DTD/svg11.dtd">
<svg version="1.1" id="图层_2" xmlns="http://www.w3.org/2000/svg" xmlns:xlink="http://www.w3.org/1999/xlink" x="0px" y="0px"
	 width="1024px" height="1024px" viewBox="0 0 1024 1024" enable-background="new 0 0 1024 1024" xml:space="preserve">
<path fill-rule="evenodd" clip-rule="evenodd" d="M513.379,1022L54.54,833.013V2h914.92v830.947L513.379,1022z M885.269,85.449
	H138.732v691.875l374.545,154.264l371.992-154.195V85.449z M492.27,353.159h60.942h22.538v391.074H492.27V435.905h-73.041v308.328
	h-65.811h-17.67H218.213v-66.636v-16.108V359.7h-23.448v-82.744h23.448h56.071h27.414v384.533h34.051V277.967h-0.292v-82.746
	h206.982l-10.537-30.201h95.263l10.537,30.201h108.052V165.02h83.481v30.201v81.734v1.011H666.568l52.434,150.296l26.752-75.104
	h83.481l-68.925,193.507l68.925,197.568h-95.263l-21.789-62.455l-22.246,62.455h-83.481l64.42-180.858l-99.57-285.408H419.229
	v75.192H492.27z M218.213,165.02h83.484v82.744h-83.484V165.02z"/>
</svg>
