<?xml version="1.0" encoding="utf-8"?>
<!-- Generator: Adobe Illustrator 19.0.0, SVG Export Plug-In . SVG Version: 6.00 Build 0)  -->
<svg version="1.1" id="图层_2" xmlns="http://www.w3.org/2000/svg" xmlns:xlink="http://www.w3.org/1999/xlink" x="0px" y="0px"
	 viewBox="214 -92.1 1024 1024" style="enable-background:new 214 -92.1 1024 1024;" xml:space="preserve">
<path d="M727.4,929.9l-458.8-189v-831h914.9v830.9L727.4,929.9z M1099.3-6.7H352.7v691.9l374.5,154.3l372-154.2V-6.7z"/>
<path d="M746.3,484.3L761,595.8h91.4L837,484.3H746.3z M943.2,507.1l18.1,152.4h83.4l-17.4-152.4H943.2z M426.5,505.1l-14.8,154.4
	h86.7l14.8-154.4H426.5z M571.3,493.7v173.2h327.2v-49.6H678.2V493.7H571.3z M438.5,342.4h478.4v23.5c0,10.1-8,18.8-19.4,18.8H421.8
	v51h530.4c35.5,0,63.7-28.2,63.7-63.7V197.5h-55l56.3-119.4H577.7l22.8-44.9h-99.6l-66.7,131.2h97.6l20.5-35.3h319.3l-32.9,68.4
	H421.8v51h495.2v42.9H438.5V342.4z"/>
</svg>
