<?xml version="1.0" encoding="utf-8"?>
<!-- Generator: Adobe Illustrator 17.0.0, SVG Export Plug-In . SVG Version: 6.00 Build 0)  -->
<!DOCTYPE svg PUBLIC "-//W3C//DTD SVG 1.1//EN" "http://www.w3.org/Graphics/SVG/1.1/DTD/svg11.dtd">
<svg version="1.1" id="图层_3" xmlns="http://www.w3.org/2000/svg" xmlns:xlink="http://www.w3.org/1999/xlink" x="0px" y="0px"
	 width="1024px" height="1024px" viewBox="0 0 1024 1024" enable-background="new 0 0 1024 1024" xml:space="preserve">
<g>
	<path d="M466.478,556.787c-24.09-17.147-69.061-12.656-107.704-12.656c-100.377,0.002-164.057-9.245-162.902,113.111
		c0,0,43.638,40.134,156.529,40.134s151.1-40.134,151.1-40.134C503.853,605.156,493.359,575.92,466.478,556.787z"/>
	<path d="M356.792,499.475c92.685-16.185,87.369-154.488-17.502-152.709c-6.282,1.339-12.566,2.679-18.848,4.019
		c-21.376,8.072-38.124,24.469-46.447,45.545C252.85,449.872,301.26,509.172,356.792,499.475z"/>
	<path d="M853.5,127.534h-682c-94.003,0-170.5,76.485-170.5,170.5v438.429c0,94.015,76.497,170.5,170.5,170.5h682
		c94.003,0,170.5-76.485,170.5-170.5V298.034C1024,204.019,947.503,127.534,853.5,127.534z M975.286,736.463
		c0,67.149-54.637,121.786-121.786,121.786h-682c-67.149,0-121.786-54.637-121.786-121.786V298.034
		c0-67.149,54.637-121.786,121.786-121.786h682c67.149,0,121.786,54.637,121.786,121.786V736.463z"/>
	<path d="M816.964,346.749H622.107c-13.463,0-24.357,10.906-24.357,24.357s10.894,24.357,24.357,24.357h194.857
		c13.463,0,24.357-10.906,24.357-24.357S830.427,346.749,816.964,346.749z"/>
	<path d="M731.714,492.892H622.107c-13.463,0-24.357,10.906-24.357,24.357s10.894,24.357,24.357,24.357h109.607
		c13.463,0,24.357-10.906,24.357-24.357S745.177,492.892,731.714,492.892z"/>
	<path d="M731.714,639.035H622.107c-13.463,0-24.357,10.906-24.357,24.357s10.894,24.357,24.357,24.357h109.607
		c13.463,0,24.357-10.906,24.357-24.357S745.177,639.035,731.714,639.035z"/>
</g>
</svg>
