<?xml version="1.0" encoding="utf-8"?>
<!-- Generator: Adobe Illustrator 17.0.0, SVG Export Plug-In . SVG Version: 6.00 Build 0)  -->
<!DOCTYPE svg PUBLIC "-//W3C//DTD SVG 1.1//EN" "http://www.w3.org/Graphics/SVG/1.1/DTD/svg11.dtd">
<svg version="1.1" id="图层_3" xmlns="http://www.w3.org/2000/svg" xmlns:xlink="http://www.w3.org/1999/xlink" x="0px" y="0px"
	 width="1024px" height="1024px" viewBox="0 0 1024 1024" enable-background="new 0 0 1024 1024" xml:space="preserve">
<g>
	<path d="M895.434,888.957V7.098c0-1.126-0.31-2.176-0.841-3.081H4.101v890.244c0.887,0.503,1.909,0.793,3.001,0.793h882.235
		C892.705,895.055,895.434,892.326,895.434,888.957z M849.792,849.412H46.647V46.643h803.145V849.412z"/>
	<path d="M578.952,665.32H164.103c-12.604,0-22.822,10.218-22.822,22.82c0,12.604,10.218,22.822,22.822,22.822h414.849
		c12.604,0,22.822-10.217,22.822-22.822C601.774,675.538,591.556,665.32,578.952,665.32z"/>
	<path d="M142.202,583.214h586.381c12.604,0,22.822-10.218,22.822-22.82c0-12.604-10.218-22.822-22.822-22.822H142.202
		c-12.604,0-22.822,10.217-22.822,22.822C119.38,572.996,129.598,583.214,142.202,583.214z"/>
	<path d="M132.762,1023h736.944c10.128,0,20.023-0.993,29.603-2.867H121.689C124.969,1021.957,128.743,1023,132.762,1023z"/>
	<path d="M1020.217,117.87v780.983c1.817-9.437,2.779-19.177,2.779-29.144V128.79
		C1022.996,124.834,1021.988,121.113,1020.217,117.87z"/>
	<path d="M894.593,4.017C893.534,2.214,891.58,1,889.336,1H7.102C3.735,1,1.004,3.729,1.004,7.098v881.859
		c0,2.276,1.249,4.257,3.097,5.304V4.017H894.593z"/>
	<path d="M1000.176,105.97c-12.603,0-22.82,10.217-22.82,22.82v740.919c0,59.359-48.292,107.649-107.649,107.649H132.762
		c-12.603,0-22.82,10.217-22.82,22.823c0,8.583,4.742,16.057,11.747,19.953H899.31c61.063-11.949,109.139-60.149,120.907-121.28
		V117.87C1016.345,110.78,1008.822,105.97,1000.176,105.97z"/>
	<ellipse cx="256.55" cy="307.685" rx="127.796" ry="127.78"/>
</g>
</svg>
