<?xml version="1.0" encoding="utf-8"?>
<!-- Generator: Adobe Illustrator 17.0.0, SVG Export Plug-In . SVG Version: 6.00 Build 0)  -->
<!DOCTYPE svg PUBLIC "-//W3C//DTD SVG 1.1//EN" "http://www.w3.org/Graphics/SVG/1.1/DTD/svg11.dtd">
<svg version="1.1" id="图层_3" xmlns="http://www.w3.org/2000/svg" xmlns:xlink="http://www.w3.org/1999/xlink" x="0px" y="0px"
	 width="1024px" height="1024px" viewBox="0 0 1024 1024" enable-background="new 0 0 1024 1024" xml:space="preserve">
<path d="M369.78,967.103c31.385,0,56.889-25.503,56.889-56.889V597.332H113.785c-31.385,0-56.888,25.503-56.888,56.888v255.995
	c0,31.385,25.503,56.889,56.888,56.889L369.78,967.103 M369.78,1023.99H113.785c-62.858,0-113.776-50.918-113.776-113.776V654.22
	c0-62.858,50.918-113.776,113.776-113.776h369.771v369.771C483.556,973.072,432.637,1023.99,369.78,1023.99L369.78,1023.99
	L369.78,1023.99z"/>
<path d="M910.214,967.103c31.385,0,56.889-25.503,56.889-56.889V654.22c0-31.385-25.503-56.888-56.889-56.888H597.332v56.888
	v255.995c0,31.385,25.503,56.889,56.888,56.889L910.214,967.103 M910.214,1023.99H654.22c-62.858,0-113.776-50.918-113.776-113.776
	V654.22V540.444h369.771c62.858,0,113.776,50.918,113.776,113.776v255.995C1023.99,973.072,973.072,1023.99,910.214,1023.99
	L910.214,1023.99L910.214,1023.99z"/>
<path d="M426.668,426.668V113.785c0-31.385-25.503-56.889-56.889-56.889H113.785c-31.385,0-56.888,25.503-56.888,56.889V369.78
	c0,31.385,25.503,56.888,56.888,56.888H426.668 M483.556,483.556H113.785c-62.858,0-113.776-50.918-113.776-113.776V113.785
	c0-62.858,50.918-113.776,113.776-113.776H369.78c62.858,0,113.776,50.918,113.776,113.776V483.556L483.556,483.556L483.556,483.556
	z"/>
<path d="M910.214,426.668c31.385,0,56.889-25.503,56.889-56.888V113.785c0-31.385-25.503-56.889-56.889-56.889H654.22
	c-31.385,0-56.888,25.503-56.888,56.889V369.78v56.888H910.214 M910.214,483.556h-369.77V369.78V113.785
	c0-62.858,50.918-113.776,113.776-113.776h255.995c62.858,0,113.776,50.918,113.776,113.776V369.78
	C1023.99,432.637,973.072,483.556,910.214,483.556L910.214,483.556L910.214,483.556z"/>
</svg>
