<?xml version="1.0" encoding="utf-8"?>
<!-- Generator: Adobe Illustrator 17.0.0, SVG Export Plug-In . SVG Version: 6.00 Build 0)  -->
<!DOCTYPE svg PUBLIC "-//W3C//DTD SVG 1.1//EN" "http://www.w3.org/Graphics/SVG/1.1/DTD/svg11.dtd">
<svg version="1.1" id="图层_3" xmlns="http://www.w3.org/2000/svg" xmlns:xlink="http://www.w3.org/1999/xlink" x="0px" y="0px"
	 width="1024px" height="1024px" viewBox="0 0 1024 1024" enable-background="new 0 0 1024 1024" xml:space="preserve">
<g>
	<path fill="#359FF4" d="M742.795,742.795C649.507,836.092,546.604,920.34,447.527,983.13C468.665,985.999,490.074,988,512,988
		c262.886,0,476-213.114,476-476c0-21.863-1.989-43.215-4.843-64.297C920.379,546.713,836.024,649.566,742.795,742.795z"/>
	<path fill="#359FF4" d="M962.596,323.212c81.77-163.552,54.624-242.196,17.464-279.349C956.28,20.065,923.428,8,882.411,8
		c-53.932,0-121.763,21.889-196.614,61.062C631.967,47.843,573.414,36,512,36C249.114,36,36,249.112,36,512
		c0,61.563,11.907,120.244,33.223,174.18c-2.538,4.847-5.421,9.81-7.819,14.607C-20.366,864.34,6.78,942.984,43.94,980.137
		c23.781,23.798,56.632,35.863,97.65,35.863c131.858,0,346.058-129.02,545.694-328.689
		C807.61,566.964,905.393,437.652,962.596,323.212z M882.411,89.729c18.553,0,31.96,4.018,39.874,11.92
		c16.015,16.018,19.862,63.344-14.923,146.24c-34.675-51.886-79.331-96.428-131.084-131.223
		C819.448,98.636,855.675,89.729,882.411,89.729z M101.715,922.351c-16.01-16.013-19.855-63.32,14.892-146.161
		c34.785,51.762,79.312,96.426,131.19,131.112c-43.205,18.052-79.458,26.968-106.208,26.968
		C123.037,934.27,109.63,930.252,101.715,922.351z"/>
</g>
</svg>
