<?xml version="1.0" encoding="utf-8"?>
<!-- Generator: Adobe Illustrator 17.0.0, SVG Export Plug-In . SVG Version: 6.00 Build 0)  -->
<!DOCTYPE svg PUBLIC "-//W3C//DTD SVG 1.1//EN" "http://www.w3.org/Graphics/SVG/1.1/DTD/svg11.dtd">
<svg version="1.1" id="图层_2" xmlns="http://www.w3.org/2000/svg" xmlns:xlink="http://www.w3.org/1999/xlink" x="0px" y="0px"
	 width="1024px" height="1024px" viewBox="0 0 1024 1024" enable-background="new 0 0 1024 1024" xml:space="preserve">
<path fill="#231815" d="M902.266,421.616c23.982-27.192,43.475-57.095,56.92-89.514c5.086-12.234-0.727-26.285-12.984-31.359
	c-12.164-5.062-26.273,0.727-31.359,12.984c-52.828,127.417-218.506,216.408-402.887,216.408s-350.06-89.003-402.875-216.443
	c-5.074-12.258-19.137-18.07-31.359-12.984c-12.246,5.074-18.058,19.113-12.984,31.359
	c25.264,60.952,71.109,113.431,130.559,154.223c-5.317,20.496-29.452,87.527-122.907,118.563
	c-12.586,4.172-19.394,17.766-15.223,30.351c3.352,10.055,12.715,16.43,22.781,16.43c2.508,0,5.051-0.398,7.559-1.219
	c99.997-33.205,136.858-101.505,149.886-138.296c77.731,41.934,172.856,66.016,274.564,66.016c3.259,0,6.448-0.242,9.693-0.29
	c-1.214,29.534-9.763,81.597-53.45,101.445c-12.07,5.484-17.402,19.711-11.93,31.781c4.02,8.836,12.75,14.062,21.867,14.062
	c3.316,0,6.691-0.68,9.914-2.156c69.582-31.596,80.739-108.591,81.708-147.739c118.12-10.769,223.982-53.929,298.725-119.615
	c20.44,20.613,66.448,78.042,46.618,162.073c-3.023,12.891,4.969,25.828,17.859,28.875c1.852,0.422,3.703,0.633,5.531,0.633
	c10.875,0,20.719-7.453,23.344-18.492C987.039,521.849,929.335,448.928,902.266,421.616z"/>
</svg>
