<?xml version="1.0" encoding="utf-8"?>
<!-- Generator: Adobe Illustrator 17.0.0, SVG Export Plug-In . SVG Version: 6.00 Build 0)  -->
<!DOCTYPE svg PUBLIC "-//W3C//DTD SVG 1.1//EN" "http://www.w3.org/Graphics/SVG/1.1/DTD/svg11.dtd">
<svg version="1.1" id="图层_3" xmlns="http://www.w3.org/2000/svg" xmlns:xlink="http://www.w3.org/1999/xlink" x="0px" y="0px"
	 width="1024px" height="1024px" viewBox="0 0 1024 1024" enable-background="new 0 0 1024 1024" xml:space="preserve">
<path fill-rule="evenodd" clip-rule="evenodd" d="M827.688,1019H192.691c-35.074,0-63.503-28.438-63.503-63.513V161.744
	c0-35.074,28.429-63.513,63.503-63.513h63.497V66.484C256.188,31.423,284.62,3,319.688,3h381c35.071,0,63.5,28.423,63.5,63.484
	v31.747h63.5c35.071,0,63.5,28.438,63.5,63.513v793.744C891.188,990.562,862.759,1019,827.688,1019z M700.688,66.484h-381v158.76
	h381V66.484z M827.688,161.744h-63.5v63.5c0,35.062-28.429,63.497-63.5,63.497h-381c-35.068,0-63.5-28.435-63.5-63.497v-63.5
	h-63.497v793.744h634.997V161.744z M700.688,479.234h-381v-63.497h381V479.234z M700.688,669.744h-381v-63.497h381V669.744z"/>
</svg>
