<?xml version="1.0" encoding="utf-8"?>
<!-- Generator: Adobe Illustrator 17.0.0, SVG Export Plug-In . SVG Version: 6.00 Build 0)  -->
<!DOCTYPE svg PUBLIC "-//W3C//DTD SVG 1.1//EN" "http://www.w3.org/Graphics/SVG/1.1/DTD/svg11.dtd">
<svg version="1.1" id="图层_2" xmlns="http://www.w3.org/2000/svg" xmlns:xlink="http://www.w3.org/1999/xlink" x="0px" y="0px"
	 width="1024px" height="1024px" viewBox="0 0 1024 1024" enable-background="new 0 0 1024 1024" xml:space="preserve">
<path fill="#231815" d="M523.293,992c-264.668,0-480-215.32-480-480c0-264.668,215.332-480,480-480
	c206.859,0,389.789,131.977,455.203,328.418c4.172,12.574-2.625,26.168-15.211,30.352c-12.539,4.219-26.156-2.625-30.352-15.188
	C874.082,198.781,709.457,80,523.293,80c-238.207,0-432,193.793-432,432s193.793,432,432,432
	c186.164,0,350.789-118.781,409.641-295.582c4.195-12.562,17.812-19.43,30.352-15.188c12.586,4.184,19.383,17.777,15.211,30.352
	C913.082,860.023,730.153,992,523.293,992z"/>
</svg>
