<?xml version="1.0" encoding="utf-8"?>
<!-- Generator: Adobe Illustrator 17.0.0, SVG Export Plug-In . SVG Version: 6.00 Build 0)  -->
<!DOCTYPE svg PUBLIC "-//W3C//DTD SVG 1.1//EN" "http://www.w3.org/Graphics/SVG/1.1/DTD/svg11.dtd">
<svg version="1.1" id="图层_2" xmlns="http://www.w3.org/2000/svg" xmlns:xlink="http://www.w3.org/1999/xlink" x="0px" y="0px"
	 width="1024px" height="1024px" viewBox="0 0 1024 1024" enable-background="new 0 0 1024 1024" xml:space="preserve">
<path d="M946.652,81.846c-5.786-27.059-22.571-51.614-48.412-66.506c-25.807-14.922-54.767-16.557-81.77-8.711
	C727.04,31.484,590.621,91.711,424.487,187.64c-166.07,95.864-286.421,183.852-352.639,248.886
	c-20.716,18.538-33.763,45.464-33.763,75.502c0,31.893,14.736,60.326,37.766,78.897c66.81,65.011,185.875,150.988,348.636,244.963
	c164.878,95.193,300.349,155.389,389.919,180.426c26.862,9.352,57.488,7.467,84.084-7.903c27.264-15.726,44.44-42.27,49.277-71.051
	c22.981-90.268,38.149-236.818,38.149-425.591C985.897,319.973,969.867,171.72,946.652,81.846z M852.388,743.386l-463.148-0.034
	l151.789-549.566l0.201-0.801h149.285L572.178,620.496h314.156L852.388,743.386z"/>
</svg>
