<?xml version="1.0" encoding="utf-8"?>
<!-- Generator: Adobe Illustrator 17.0.0, SVG Export Plug-In . SVG Version: 6.00 Build 0)  -->
<!DOCTYPE svg PUBLIC "-//W3C//DTD SVG 1.1//EN" "http://www.w3.org/Graphics/SVG/1.1/DTD/svg11.dtd">
<svg version="1.1" id="图层_2" xmlns="http://www.w3.org/2000/svg" xmlns:xlink="http://www.w3.org/1999/xlink" x="0px" y="0px"
	 width="1024px" height="1024px" viewBox="0 0 1024 1024" enable-background="new 0 0 1024 1024" xml:space="preserve">
<g>
	<path fill="#0062F8" d="M120,890c0,30.927,27.872,70,58.799,70h56c30.93,0,53.201-39.073,53.201-70v-98H120V890z"/>
	<path fill="#0062F8" d="M736,890c0,30.927,27.872,70,58.799,70h56c30.93,0,53.201-39.073,53.201-70v-98H736V890z"/>
	<path fill="#0062F8" d="M960,400h-56L792,120c-7.583-30.333-25.073-56-56-56H288c-30.927,0-47.602,26.535-56,56L120,400H64
		c-30.927,0-56,25.073-56,56v224c0,30.927,25.073,56,56,56h896c30.927,0,56-25.073,56-56V456C1016,425.073,990.927,400,960,400z
		 M288,176c8.398-29.465,25.073-56,56-56h336c30.927,0,48.417,25.667,56,56l84,224H204L288,176z M203,610c-30.927,0-56-25.073-56-56
		s25.073-56,56-56s56,25.073,56,56S233.927,610,203,610z M824,610c-30.927,0-56-25.073-56-56s25.073-56,56-56s56,25.073,56,56
		S854.927,610,824,610z"/>
</g>
</svg>
