<?xml version="1.0" encoding="utf-8"?>
<!-- Generator: Adobe Illustrator 18.1.0, SVG Export Plug-In . SVG Version: 6.00 Build 0)  -->
<svg version="1.1" id="图层_1" xmlns="http://www.w3.org/2000/svg" xmlns:xlink="http://www.w3.org/1999/xlink" x="0px" y="0px"
	 width="1024px" height="1024px" viewBox="0 0 1024 1024" enable-background="new 0 0 1024 1024" xml:space="preserve">
<path fill="#FF852C" d="M844.8,154H179.2C80.4,154,0,233.988,0,332.8v358.4C0,790.013,80.4,870,179.2,870h665.6
	c98.8,0,179.2-79.987,179.2-178.8V332.8C1024,233.988,943.6,154,844.8,154z M941.15,399.538l-409.6,240.55
	c-6,3.525-12.725,5.287-19.45,5.287c-6.725,0-13.45-1.763-19.45-5.287L83.075,399.538c-18.275-10.738-24.4-34.275-13.65-52.563
	c10.75-18.313,34.275-24.337,52.55-13.663L512.1,562.438l390.15-229.125c18.3-10.675,41.8-4.65,52.55,13.663
	C965.55,365.263,959.425,388.8,941.15,399.538z"/>
</svg>
