<?xml version="1.0" encoding="utf-8"?>
<!-- Generator: Adobe Illustrator 18.1.0, SVG Export Plug-In . SVG Version: 6.00 Build 0)  -->
<svg version="1.1" id="图层_1" xmlns="http://www.w3.org/2000/svg" xmlns:xlink="http://www.w3.org/1999/xlink" x="0px" y="0px"
	 width="1024px" height="1024px" viewBox="0 0 1024 1024" enable-background="new 0 0 1024 1024" xml:space="preserve">
<path fill="#FF852C" d="M459.218-0.025H179.622c-77.208,0-139.798,62.589-139.798,139.798v605.79
	c0,77.208,62.589,139.798,139.798,139.798h279.595c0,0-81.549-343.669,276.217-323.868l3.379-328.517L459.218-0.025z
	 M156.323,302.87h178.631c12.814,0,23.3,10.485,23.3,23.3c0,12.815-10.485,23.3-23.3,23.3H156.323c-12.814,0-23.3-10.485-23.3-23.3
	C133.023,313.355,143.508,302.87,156.323,302.87z M404.853,675.664H148.557c-12.814,0-23.3-10.485-23.3-23.3s10.485-23.3,23.3-23.3
	h256.296c12.815,0,23.3,10.485,23.3,23.3S417.667,675.664,404.853,675.664z M521.351,512.566H148.557
	c-12.814,0-23.3-10.485-23.3-23.3c0-12.814,10.485-23.3,23.3-23.3h372.794c12.815,0,23.3,10.485,23.3,23.3
	C544.65,502.081,534.165,512.566,521.351,512.566z M625.048,256.27c-66.723,0-165.831-52.536-165.831-122.917l0.485-128.039
	l271.829,225.23L625.048,256.27z"/>
<g>
	<path fill="#FF852C" d="M707.686,999.833c-109.194,0-198.024-88.83-198.024-198.024s88.83-198.024,198.024-198.024
		s198.024,88.83,198.024,198.024S816.881,999.833,707.686,999.833z M707.686,650.384c-83.505,0-151.425,67.919-151.425,151.425
		s67.919,151.425,151.425,151.425s151.425-67.919,151.425-151.425S791.192,650.384,707.686,650.384z"/>
	<polygon fill="#FF852C" points="949.329,1023.975 852.376,924.951 885.687,892.368 982.64,991.392 	"/>
</g>
</svg>
