<?xml version="1.0" encoding="utf-8"?>
<!-- Generator: Adobe Illustrator 18.1.0, SVG Export Plug-In . SVG Version: 6.00 Build 0)  -->
<svg version="1.1" id="图层_1" xmlns="http://www.w3.org/2000/svg" xmlns:xlink="http://www.w3.org/1999/xlink" x="0px" y="0px"
	 width="1024px" height="1024px" viewBox="0 0 1024 1024" enable-background="new 0 0 1024 1024" xml:space="preserve">
<path fill="#FF852C" d="M511.845,0.042c-282.769,0-512,229.231-512,512c0,282.772,229.231,512,512,512s512-229.228,512-512
	C1023.845,229.273,794.614,0.042,511.845,0.042z M760.013,699.324c-8.818,16.69-29.688,23.128-46.375,14.307L499.97,600.716
	c-10.258-3.533-18.03-11.614-21.315-21.981c-0.481-1.405-0.579-2.848-0.878-4.307c-0.351-1.959-1.179-3.75-1.179-5.804V119.694
	c0-18.875,15.446-34.321,34.321-34.321c18.875,0,34.318,15.446,34.318,34.321v427.31l200.47,105.946
	C762.396,661.767,768.834,682.637,760.013,699.324z"/>
</svg>
