<?xml version="1.0" encoding="utf-8"?>
<!-- Generator: Adobe Illustrator 17.0.0, SVG Export Plug-In . SVG Version: 6.00 Build 0)  -->
<!DOCTYPE svg PUBLIC "-//W3C//DTD SVG 1.1//EN" "http://www.w3.org/Graphics/SVG/1.1/DTD/svg11.dtd">
<svg version="1.1" id="图层_2" xmlns="http://www.w3.org/2000/svg" xmlns:xlink="http://www.w3.org/1999/xlink" x="0px" y="0px"
	 width="1024px" height="1024px" viewBox="0 0 1024 1024" enable-background="new 0 0 1024 1024" xml:space="preserve">
<path fill="#4CB268" d="M907.981,116.02c-120.282-120.282-315.298-120.282-435.578,0L116.019,472.402
	c-120.282,120.282-120.282,315.298,0,435.58c120.282,120.28,315.298,120.28,435.578,0l356.383-356.383
	C1028.262,431.316,1028.262,236.302,907.981,116.02z M821.855,518.929L670.392,670.393L393.207,393.206L241.743,544.67
	c-98.072,98.072-120.979,235.254-55.142,313.85c-3.779-3.237-7.619-6.371-11.184-9.936c-87.478-87.478-75.51-241.275,26.729-343.513
	L505.07,202.146C607.31,99.906,761.105,87.94,848.583,175.418C936.061,262.894,924.093,416.69,821.855,518.929z"/>
</svg>
