<?xml version="1.0" encoding="utf-8"?>
<!-- Generator: Adobe Illustrator 17.0.0, SVG Export Plug-In . SVG Version: 6.00 Build 0)  -->
<!DOCTYPE svg PUBLIC "-//W3C//DTD SVG 1.1//EN" "http://www.w3.org/Graphics/SVG/1.1/DTD/svg11.dtd">
<svg version="1.1" id="图层_2" xmlns="http://www.w3.org/2000/svg" xmlns:xlink="http://www.w3.org/1999/xlink" x="0px" y="0px"
	 width="1024px" height="1024px" viewBox="0 0 1024 1024" enable-background="new 0 0 1024 1024" xml:space="preserve">
<path fill="#231815" d="M991.36,389.993c-0.13-1.875-0.53-3.62-1.091-5.416c-0.354-1.085-0.674-2.128-1.173-3.141
	c-0.894-1.884-2.084-3.527-3.473-5.152c-0.604-0.688-1.162-1.349-1.837-1.966c-0.759-0.706-1.225-1.619-2.09-2.237L626.078,118.395
	c-80.93-51.246-151.57-51.176-229.734,0.738L41.816,372.082c-0.863,0.615-1.327,1.523-2.083,2.227
	c-0.686,0.623-1.254,1.293-1.863,1.992c-1.383,1.619-2.568,3.255-3.458,5.13c-0.502,1.015-0.822,2.062-1.179,3.154
	c-0.558,1.79-0.959,3.527-1.09,5.395c-0.057,0.674-0.393,1.254-0.393,1.942v372c0,92.531,87.48,180,180,180h624
	c97.641,0,156-91.523,156-180v-372C991.75,391.238,991.416,390.662,991.36,389.993z M423.543,158.66
	c61.98-41.109,111.551-41.063,175.746-0.457L943.75,403.978v41.933L511.844,704.977L79.75,445.792V403.97L423.543,158.66z
	 M835.75,895.922h-624c-66.621,0-132-65.391-132-132v-262.17l419.754,251.788c3.797,2.273,8.062,3.422,12.34,3.422
	c4.266,0,8.555-1.148,12.352-3.422L943.75,501.883v262.039C943.75,828.797,903.344,895.922,835.75,895.922z"/>
</svg>
