<?xml version="1.0" encoding="utf-8"?>
<!-- Generator: Adobe Illustrator 21.0.0, SVG Export Plug-In . SVG Version: 6.00 Build 0)  -->
<svg version="1.1" id="图层_3" xmlns="http://www.w3.org/2000/svg" xmlns:xlink="http://www.w3.org/1999/xlink" x="0px" y="0px"
	 width="1024px" height="1024px" viewBox="0 0 1024 1024" enable-background="new 0 0 1024 1024" xml:space="preserve">
<g>
	<path d="M314,597.75h396v-396H314V597.75z M622.667,311.667H667V356h-44.333V311.667z M357,311.667h44.333V356H357V311.667z
		 M356.932,444.667h44.333v44.166h221.333v-44.166h44.334V533h-16.265v0.167H357.098V533h-0.166V444.667z"/>
	<path d="M512,2.125H91.625V825H331l181,197.875L693,825h239.375V2.125H512z M755,201.75v396v45h-45H314h-45v-45v-396v-45h45h396h45
		V201.75z"/>
</g>
</svg>
