<?xml version="1.0" encoding="utf-8"?>
<!-- Generator: Adobe Illustrator 21.0.0, SVG Export Plug-In . SVG Version: 6.00 Build 0)  -->
<svg version="1.1" id="图层_3" xmlns="http://www.w3.org/2000/svg" xmlns:xlink="http://www.w3.org/1999/xlink" x="0px" y="0px"
	 width="1024px" height="1024px" viewBox="0 0 1024 1024" enable-background="new 0 0 1024 1024" xml:space="preserve">
<g>
	<path d="M1024.25,1h-1V0.5H0.75V1v60.5v901v60.5v0.5h1022.5v-0.5h1V1z M61.75,61.5h901.5v901H61.75V61.5z"/>
	<rect x="481.5" y="756.426" width="61" height="61"/>
	<polygon points="699.758,245.648 660,245.648 361,245.648 312.074,245.648 300,245.648 300,395.367 361,395.367 361,306.648 
		660,306.648 660,483.5 480.5,483.5 480.5,484.332 480.5,544.5 480.5,664.426 541.5,664.426 541.5,544.5 660,544.5 703.842,544.5 
		721,544.5 721,245.648 	"/>
</g>
</svg>
