<?xml version="1.0" encoding="utf-8"?>
<!-- Generator: Adobe Illustrator 17.0.0, SVG Export Plug-In . SVG Version: 6.00 Build 0)  -->
<!DOCTYPE svg PUBLIC "-//W3C//DTD SVG 1.1//EN" "http://www.w3.org/Graphics/SVG/1.1/DTD/svg11.dtd">
<svg version="1.1" id="图层_3" xmlns="http://www.w3.org/2000/svg" xmlns:xlink="http://www.w3.org/1999/xlink" x="0px" y="0px"
	 width="1024px" height="1024px" viewBox="0 0 1024 1024" enable-background="new 0 0 1024 1024" xml:space="preserve">
<path d="M1015.005,496.851L526.058,10.35c-8.251-8.251-21.685-8.251-29.936,0L7.176,496.851c-8.313,8.272-8.355,21.706-0.083,30.019
	c8.23,8.272,21.664,8.355,30.019,0.083L176.737,388.03v506.198c0,69.263,56.348,125.611,125.611,125.611h417.631
	c66.92,0,125.611-62.816,125.611-134.442V388.174l139.48,138.778c4.146,4.126,9.557,6.178,14.968,6.178
	c5.452,0,10.905-2.094,15.051-6.261C1023.36,518.556,1023.318,505.122,1015.005,496.851z M803.132,346.194v539.202
	c0,48.138-39.638,91.985-83.153,91.985H302.347c-45.857,0-83.153-37.296-83.153-83.153V346.194c0-0.131-0.017-0.258-0.02-0.389
	L511.09,55.358l292.054,290.585C803.143,346.027,803.132,346.109,803.132,346.194z"/>
</svg>
