<?xml version="1.0" encoding="utf-8"?>
<!-- Generator: Adobe Illustrator 17.0.0, SVG Export Plug-In . SVG Version: 6.00 Build 0)  -->
<!DOCTYPE svg PUBLIC "-//W3C//DTD SVG 1.1//EN" "http://www.w3.org/Graphics/SVG/1.1/DTD/svg11.dtd">
<svg version="1.1" id="图层_3" xmlns="http://www.w3.org/2000/svg" xmlns:xlink="http://www.w3.org/1999/xlink" x="0px" y="0px"
	 width="1024px" height="1024px" viewBox="0 0 1024 1024" enable-background="new 0 0 1024 1024" xml:space="preserve">
<path fill-rule="evenodd" clip-rule="evenodd" d="M689.467,1.105l239.852,240.352l0.304,15.143l0,0v735.426
	c0,17.657-14.289,31.974-31.907,31.974H131.909c-17.621,0-31.907-14.316-31.907-31.974V32.774c0-17.657,14.286-31.974,31.907-31.974
	h542.445 M610.54,256.6V64.751H195.726c-17.621,0-31.907,14.314-31.907,31.976v831.347c0,17.66,14.286,31.976,31.907,31.976h638.172
	c17.621,0,31.907-14.317,31.907-31.976V320.55H674.354H610.54V256.6z M674.354,79.59V256.6h176.643L674.354,79.59z"/>
</svg>
