<?xml version="1.0" encoding="utf-8"?>
<!-- Generator: Adobe Illustrator 17.0.0, SVG Export Plug-In . SVG Version: 6.00 Build 0)  -->
<!DOCTYPE svg PUBLIC "-//W3C//DTD SVG 1.1//EN" "http://www.w3.org/Graphics/SVG/1.1/DTD/svg11.dtd">
<svg version="1.1" id="图层_2" xmlns="http://www.w3.org/2000/svg" xmlns:xlink="http://www.w3.org/1999/xlink" x="0px" y="0px"
	 width="1024px" height="1024px" viewBox="0 0 1024 1024" enable-background="new 0 0 1024 1024" xml:space="preserve">
<g>
	<path fill="#231815" d="M763.984,433.265C763.82,191.541,685.316,74,524,74c-140.109,0-230.648,85.043-230.648,216.645
		c0,13.254,10.746,24,24,24s24-10.746,24-24C341.352,134.164,481.156,122,524,122c81.278,0,188.867,31.625,191.858,300.601
		C711.925,422.324,708.003,422,704,422H320c-92.637,0-168,75.363-168,168v192c0,92.625,75.363,168,168,168h384
		c92.625,0,168-75.375,168-168V590C872,518.519,827.038,457.487,763.984,433.265z M824,782c0,66.164-53.836,120-120,120H320
		c-66.164,0-120-53.836-120-120V590c0-66.164,53.836-120,120-120h384c66.164,0,120,53.836,120,120V782z"/>
	<path fill="#231815" d="M512,590c-13.254,0-24,10.734-24,24v144c0,13.266,10.746,24,24,24s24-10.734,24-24V614
		C536,600.734,525.254,590,512,590z"/>
</g>
</svg>
