<?xml version="1.0" encoding="utf-8"?>
<!-- Generator: Adobe Illustrator 17.0.0, SVG Export Plug-In . SVG Version: 6.00 Build 0)  -->
<!DOCTYPE svg PUBLIC "-//W3C//DTD SVG 1.1//EN" "http://www.w3.org/Graphics/SVG/1.1/DTD/svg11.dtd">
<svg version="1.1" id="图层_1" xmlns="http://www.w3.org/2000/svg" xmlns:xlink="http://www.w3.org/1999/xlink" x="0px" y="0px"
	 width="1024px" height="1024px" viewBox="0 0 1024 1024" enable-background="new 0 0 1024 1024" xml:space="preserve">
<g>
	<path d="M636.778,342.375L464.944,571.458l-81.722-90.778c-21-23.278-56.972-25.222-80.333-4.222s-25.25,57-4.222,80.333
		l128,142.222c10.806,12,26.194,18.833,42.278,18.833c0.833,0,1.694,0,2.528-0.056c17-0.778,32.778-9.111,42.972-22.722
		l213.333-284.417c18.889-25.139,13.778-60.806-11.389-79.639C691.278,312.125,655.667,317.292,636.778,342.375z"/>
	<path d="M512-0.014c-282.306,0-512,229.694-512,512s229.694,512.028,512,512.028c282.333,0,512-229.722,512-512.028
		S794.333-0.014,512-0.014z M512,910.236c-219.583,0-398.222-178.667-398.222-398.25S292.417,113.764,512,113.764
		c219.556,0,398.222,178.639,398.222,398.222S731.556,910.236,512,910.236z"/>
</g>
</svg>
