<?xml version="1.0" encoding="utf-8"?>
<!-- Generator: Adobe Illustrator 17.0.0, SVG Export Plug-In . SVG Version: 6.00 Build 0)  -->
<!DOCTYPE svg PUBLIC "-//W3C//DTD SVG 1.1//EN" "http://www.w3.org/Graphics/SVG/1.1/DTD/svg11.dtd">
<svg version="1.1" id="图层_2" xmlns="http://www.w3.org/2000/svg" xmlns:xlink="http://www.w3.org/1999/xlink" x="0px" y="0px"
	 width="1024px" height="1024px" viewBox="0 0 1024 1024" enable-background="new 0 0 1024 1024" xml:space="preserve">
<path d="M999.785,346.99L675.641,22.887C645.19-7.64,592.014-7.605,561.639,22.848L11.798,572.686
	c-9.298,9.298-12.394,21.917-10.66,33.997L15.21,971.309c0.803,20.947,17.577,37.738,38.526,38.546l360.626,14.106
	c0.529,0.039,1.061,0.039,1.585,0.039c5.7,0,11.052-1.342,15.987-3.508c6.557-1.766,12.864-4.59,18.013-9.739l549.838-549.841
	C1031.157,429.544,1031.176,378.462,999.785,346.99z M81.812,616.185l424.246-423.888l324.426,324.428L403.962,943.249
	L93.963,931.117L81.812,616.185z M887.231,459.975L562.827,135.576l56.03-55.981l324.181,324.573L887.231,459.975z"/>
</svg>
