<?xml version="1.0" encoding="utf-8"?>
<!-- Generator: Adobe Illustrator 17.0.0, SVG Export Plug-In . SVG Version: 6.00 Build 0)  -->
<!DOCTYPE svg PUBLIC "-//W3C//DTD SVG 1.1//EN" "http://www.w3.org/Graphics/SVG/1.1/DTD/svg11.dtd">
<svg version="1.1" id="图层_3" xmlns="http://www.w3.org/2000/svg" xmlns:xlink="http://www.w3.org/1999/xlink" x="0px" y="0px"
	 width="1024px" height="1024px" viewBox="0 0 1024 1024" enable-background="new 0 0 1024 1024" xml:space="preserve">
<g>
	<path d="M933.917,1021.465H91.298c-54.542,0-88.413-38.706-88.413-101.031c0-120.063,98.873-293.775,277.691-293.775
		c11.747,0,21.252,9.505,21.252,21.252s-9.505,21.252-21.252,21.252c-151.422,0-235.186,148.579-235.186,251.271
		c0,38.831,15.441,58.527,45.908,58.527h842.618c30.467,0,45.908-19.696,45.908-58.527c0-102.692-83.764-251.271-235.228-251.271
		c-11.747,0-21.252-9.505-21.252-21.252s9.505-21.252,21.252-21.252c178.818,0,277.732,173.712,277.732,293.775
		C1022.33,982.758,988.459,1021.465,933.917,1021.465z"/>
	<path d="M517.962,668.105c-153,0-277.483-149.409-277.483-333.042C240.479,151.409,364.963,2,517.962,2
		s277.483,149.409,277.483,333.063C795.445,518.695,670.962,668.105,517.962,668.105z M517.962,44.505
		c-129.547,0-234.978,130.336-234.978,290.558c0,160.201,105.431,290.537,234.978,290.537s234.978-130.336,234.978-290.537
		C752.941,174.841,647.51,44.505,517.962,44.505z"/>
</g>
</svg>
