<?xml version="1.0" encoding="utf-8"?>
<!-- Generator: Adobe Illustrator 17.0.0, SVG Export Plug-In . SVG Version: 6.00 Build 0)  -->
<!DOCTYPE svg PUBLIC "-//W3C//DTD SVG 1.1//EN" "http://www.w3.org/Graphics/SVG/1.1/DTD/svg11.dtd">
<svg version="1.1" id="图层_3" xmlns="http://www.w3.org/2000/svg" xmlns:xlink="http://www.w3.org/1999/xlink" x="0px" y="0px"
	 width="1024px" height="1024px" viewBox="0 0 1024 1024" enable-background="new 0 0 1024 1024" xml:space="preserve">
<path fill-rule="evenodd" clip-rule="evenodd" d="M1009.053,846.397L944.67,957.915c-29.526,51.146-94.611,59.258-94.611,59.258
	c-186.33,11.402-402.431-69.434-578.125-234.759C70.104,592.5-23.457,342.724,9.146,138.322c0,0,32.336-43.368,57.835-58.102
	l47.086-27.179l12.658-7.311l51.767-29.893c46.191-26.658,105.256-10.852,131.924,35.34l109.47,189.63l0.47-0.48
	c57.751,128.408-10.552,140.953-46.893,183.346l-14.924,8.624c-4.671,37.992,7.037,77.633,36.206,106.789l91.05,91.07
	c29.172,29.169,68.809,40.867,106.808,36.196l9.477-16.411c19.376-23.583,60.159-93.806,182.152-45.074l-0.138,0.138L973.704,714.49
	C1019.895,741.135,1035.72,800.193,1009.053,846.397z M885.757,738.044l-111.514-64.383
	c-46.191-26.671-105.256-10.852-131.924,35.353l-6.464,11.19c-28.493,9.3-55.108,13.099-82.252,9.612
	c-7.217-0.876-14.338-2.414-21.44-4.066c-28.064-7.678-57.613-23.213-91.894-50.07l-91.05-91.053
	c-42.425-60.542-56.551-114.312-56.551-114.312s-11.08-55.067,7.533-78.689l15.684-9.062
	c46.191-26.674,62.017-85.732,35.349-131.907l-64.386-111.517c-23.39-40.532-71.706-57.652-114.399-43.243
	c-12.191,2.698-24.144,8.482-35.588,18.32l-9.815,5.659c-60.269,34.802-49.916,164.408-48.532,173.483l-0.538-0.943
	c12.748,153.823,92.982,320.974,232.663,454.659c81.283,77.803,172.482,134.196,264.44,168.644
	c9.731,5.534,77.163,25.544,125.495,33.038c45.383,8.396,89.991,11.235,131.022-3.445c48.335-5.205,89.505-75.344,89.505-75.344
	C947.774,823.776,931.945,764.715,885.757,738.044z"/>
</svg>
