<?xml version="1.0" encoding="utf-8"?>
<!-- Generator: Adobe Illustrator 17.0.0, SVG Export Plug-In . SVG Version: 6.00 Build 0)  -->
<!DOCTYPE svg PUBLIC "-//W3C//DTD SVG 1.1//EN" "http://www.w3.org/Graphics/SVG/1.1/DTD/svg11.dtd">
<svg version="1.1" id="图层_2" xmlns="http://www.w3.org/2000/svg" xmlns:xlink="http://www.w3.org/1999/xlink" x="0px" y="0px"
	 width="1024px" height="1024px" viewBox="0 0 1024 1024" enable-background="new 0 0 1024 1024" xml:space="preserve">
<g>
	<path fill="#231815" d="M584,128H440c-13.254,0-24,10.746-24,24s10.746,24,24,24h144c13.266,0,24-10.746,24-24S597.266,128,584,128
		z"/>
	<circle fill="#231815" cx="524" cy="812" r="72"/>
	<path fill="#231815" d="M656,32H368c-92.637,0-168,75.363-168,168v624c0,92.625,75.363,168,168,168h288
		c92.625,0,168-75.375,168-168V200C824,107.363,748.625,32,656,32z M776,824c0,66.164-53.836,120-120,120H368
		c-66.164,0-120-53.836-120-120V200c0-66.164,53.836-120,120-120h288c66.164,0,120,53.836,120,120V824z"/>
</g>
</svg>
