<?xml version="1.0" encoding="utf-8"?>
<!-- Generator: Adobe Illustrator 17.0.0, SVG Export Plug-In . SVG Version: 6.00 Build 0)  -->
<!DOCTYPE svg PUBLIC "-//W3C//DTD SVG 1.1//EN" "http://www.w3.org/Graphics/SVG/1.1/DTD/svg11.dtd">
<svg version="1.1" id="图层_3" xmlns="http://www.w3.org/2000/svg" xmlns:xlink="http://www.w3.org/1999/xlink" x="0px" y="0px"
	 width="1024px" height="1024px" viewBox="0 0 1024 1024" enable-background="new 0 0 1024 1024" xml:space="preserve">
<path d="M433.71,980.189c-15.082,0-27.311-12.215-27.311-27.311V749.511c0-18.91,2.814-53.902,21.644-75.746l459.035-534.808
	L81.319,569.935l257.415,83c14.362,4.641,22.244,20.03,17.616,34.379c-4.614,14.349-19.923,22.19-34.366,17.63L32.471,611.649
	c-27.284-8.241-31.739-27.044-32.365-34.752c-0.627-7.708,0.733-26.991,26.858-39.793L956.596,39.822
	c8.708-4.667,18.776-4.134,26.724,0.533c9.068-1.76,16.256,0.853,20.057,2.854c7.081,3.681,22.737,15.576,15.109,46.701
	L872.742,833.632c-4.614,18.856-15.589,33.659-30.392,41.954c-13.069,7.335-28.085,8.855-42.22,4.374l-289.834-90.602
	c-14.402-4.481-22.417-19.817-17.923-34.192c4.494-14.456,19.883-22.484,34.219-17.923l289.967,90.628
	c-0.307-0.187,1.92-2.24,2.867-6.028l132.048-673.844L469.449,709.398c-4.214,4.881-8.428,20.19-8.428,40.113v203.367
	C461.021,967.974,448.792,980.189,433.71,980.189z"/>
</svg>
