<?xml version="1.0" encoding="utf-8"?>
<!-- Generator: Adobe Illustrator 17.0.0, SVG Export Plug-In . SVG Version: 6.00 Build 0)  -->
<!DOCTYPE svg PUBLIC "-//W3C//DTD SVG 1.1//EN" "http://www.w3.org/Graphics/SVG/1.1/DTD/svg11.dtd">
<svg version="1.1" id="图层_2" xmlns="http://www.w3.org/2000/svg" xmlns:xlink="http://www.w3.org/1999/xlink" x="0px" y="0px"
	 width="1024px" height="1024px" viewBox="0 0 1024 1024" enable-background="new 0 0 1024 1024" xml:space="preserve">
<path d="M985.515,473.515H550.46V38.485C550.46,17.225,533.247,0,511.987,0c-21.259,0-38.485,17.225-38.485,38.485v435.031H38.485
	C17.225,473.515,0,490.741,0,512c0,21.247,17.225,38.485,38.485,38.485h435.018v435.031c0,21.247,17.225,38.485,38.485,38.485
	c21.259,0,38.472-17.238,38.472-38.485V550.485h435.056c21.247,0,38.485-17.238,38.485-38.485
	C1024,490.741,1006.762,473.515,985.515,473.515z"/>
</svg>
