<?xml version="1.0" encoding="utf-8"?>
<!-- Generator: Adobe Illustrator 17.0.0, SVG Export Plug-In . SVG Version: 6.00 Build 0)  -->
<!DOCTYPE svg PUBLIC "-//W3C//DTD SVG 1.1//EN" "http://www.w3.org/Graphics/SVG/1.1/DTD/svg11.dtd">
<svg version="1.1" id="图层_3" xmlns="http://www.w3.org/2000/svg" xmlns:xlink="http://www.w3.org/1999/xlink" x="0px" y="0px"
	 width="1024px" height="1024px" viewBox="0 0 1024 1024" enable-background="new 0 0 1024 1024" xml:space="preserve">
<g>
	<path d="M639.046,521.557v-19.412c0-11.511-9.339-20.851-20.851-20.851s-20.851,9.339-20.851,20.851v19.412H424.539v-19.412
		c0-11.511-9.339-20.851-20.851-20.851c-11.511,0-20.851,9.339-20.851,20.851v19.412H265.906v41.701h492.186v-41.701H639.046z"/>
	<path d="M511.999,2.317C230.51,2.317,2.317,230.51,2.317,511.999c0,281.491,228.193,509.684,509.682,509.684
		c281.491,0,509.684-228.193,509.684-509.684C1021.683,230.51,793.49,2.317,511.999,2.317z M758.096,563.259h-0.003v81.275
		c0,47.481-35.574,85.973-79.456,85.973H345.36c-43.882,0-79.456-38.493-79.456-85.973V469.702
		c0-47.481,35.574-85.972,79.456-85.972h37.749c-0.032-0.468-0.271-0.865-0.271-1.34c0-69.299,56.389-125.688,125.688-125.688
		s125.688,56.389,125.688,125.688c0,0.475-0.239,0.872-0.271,1.34h44.695c43.882,0,79.456,38.491,79.456,85.972v51.855h0.003
		V563.259z"/>
	<path d="M508.526,298.404c-46.317,0-83.986,37.67-83.986,83.986c0,0.475-0.239,0.872-0.272,1.34h168.516
		c-0.032-0.468-0.271-0.865-0.271-1.34C592.512,336.074,554.842,298.404,508.526,298.404z"/>
</g>
</svg>
