<?xml version="1.0" encoding="utf-8"?>
<!-- Generator: Adobe Illustrator 17.0.0, SVG Export Plug-In . SVG Version: 6.00 Build 0)  -->
<!DOCTYPE svg PUBLIC "-//W3C//DTD SVG 1.1//EN" "http://www.w3.org/Graphics/SVG/1.1/DTD/svg11.dtd">
<svg version="1.1" id="图层_3" xmlns="http://www.w3.org/2000/svg" xmlns:xlink="http://www.w3.org/1999/xlink" x="0px" y="0px"
	 width="1024px" height="1024px" viewBox="0 0 1024 1024" enable-background="new 0 0 1024 1024" xml:space="preserve">
<path d="M922.073,936.769c28.25,0,51.231-22.981,51.231-51.231V322.079c0-28.25-22.981-51.23-51.231-51.23H102.461
	c-28.25,0-51.231,22.981-51.231,51.23v563.459c0,28.25,22.981,51.231,51.231,51.231H922.073 M922.073,987.999H102.461
	C45.882,987.999,0,942.118,0,885.538V322.079C0,265.5,45.882,219.617,102.461,219.617h819.611
	c56.581,0,102.462,45.882,102.462,102.461v563.459C1024.535,942.118,978.653,987.999,922.073,987.999L922.073,987.999
	L922.073,987.999z"/>
<path d="M230.516,450.111c0-14.13,11.479-25.61,25.611-25.61c14.171,0,25.61,11.48,25.61,25.61v307.361
	c0,14.13-11.439,25.609-25.61,25.609c-14.132,0-25.611-11.479-25.611-25.609V450.111"/>
<path d="M742.797,450.111c0-14.13,11.44-25.61,25.611-25.61c14.13,0,25.61,11.48,25.61,25.61v307.361
	c0,14.13-11.48,25.609-25.61,25.609c-14.171,0-25.611-11.479-25.611-25.609V450.111"/>
<path d="M307.387,193.989c0,14.171-11.479,25.61-25.65,25.61c-14.132,0-25.61-11.439-25.61-25.61
	c0-84.866,68.834-153.66,153.7-153.66h204.88c84.865,0,153.7,68.794,153.7,153.66c0,14.171-11.479,25.61-25.611,25.61
	c-14.171,0-25.65-11.439-25.65-25.61c0-56.484-45.955-102.44-102.439-102.44h-204.88
	C353.342,91.549,307.387,137.505,307.387,193.989"/>
</svg>
