<?xml version="1.0" encoding="utf-8"?>
<!-- Generator: Adobe Illustrator 17.0.0, SVG Export Plug-In . SVG Version: 6.00 Build 0)  -->
<!DOCTYPE svg PUBLIC "-//W3C//DTD SVG 1.1//EN" "http://www.w3.org/Graphics/SVG/1.1/DTD/svg11.dtd">
<svg version="1.1" id="图层_2" xmlns="http://www.w3.org/2000/svg" xmlns:xlink="http://www.w3.org/1999/xlink" x="0px" y="0px"
	 width="1024px" height="1024px" viewBox="0 0 1024 1024" enable-background="new 0 0 1024 1024" xml:space="preserve">
<path fill="#231815" d="M824,278h-84.608C733.109,164.495,639.059,74,524,74c-115.047,0-209.109,90.495-215.392,204H200
	c-92.637,0-168,75.363-168,168v336c0,92.637,75.363,168,168,168h624c92.625,0,168-75.363,168-168V446
	C992,353.363,916.625,278,824,278z M524,122c88.575,0,161.194,68.966,167.392,156H356.608C362.804,190.966,435.414,122,524,122z
	 M200,326h624c66.164,0,120,53.836,120,120v96H80v-96C80,379.836,133.836,326,200,326z M824,902H200c-66.164,0-120-53.836-120-120
	V590h864v192C944,848.164,890.164,902,824,902z"/>
</svg>
