<?xml version="1.0" encoding="utf-8"?>
<!-- Generator: Adobe Illustrator 17.0.0, SVG Export Plug-In . SVG Version: 6.00 Build 0)  -->
<!DOCTYPE svg PUBLIC "-//W3C//DTD SVG 1.1//EN" "http://www.w3.org/Graphics/SVG/1.1/DTD/svg11.dtd">
<svg version="1.1" id="图层_2" xmlns="http://www.w3.org/2000/svg" xmlns:xlink="http://www.w3.org/1999/xlink" x="0px" y="0px"
	 width="1024px" height="1024px" viewBox="0 0 1024 1024" enable-background="new 0 0 1024 1024" xml:space="preserve">
<path fill="#647EFF" d="M512,2C258.502,2,53,207.5,53,461c0,253.498,459,561,459,561s459-307.502,459-561C971,207.5,765.498,2,512,2
	z M537.5,715.5h-51v-51h51V715.5z M525.5,587.666V627.5h-42.013l0.822-46.245c1.619-74.695,114.7-117.608,115.099-173.128
	c0.398-35.909-41.213-57.461-81.63-57.461c-37.154,0-92.238,21.834-92.238,96.834h-54.71c0-101,71.021-147.271,142.865-147.669
	c90.62-1.233,135.308,36.769,136.105,117.179C650.62,501.503,525.5,507.256,525.5,587.666z"/>
</svg>
