<?xml version="1.0" encoding="utf-8"?>
<!-- Generator: Adobe Illustrator 17.0.0, SVG Export Plug-In . SVG Version: 6.00 Build 0)  -->
<!DOCTYPE svg PUBLIC "-//W3C//DTD SVG 1.1//EN" "http://www.w3.org/Graphics/SVG/1.1/DTD/svg11.dtd">
<svg version="1.1" id="图层_2" xmlns="http://www.w3.org/2000/svg" xmlns:xlink="http://www.w3.org/1999/xlink" x="0px" y="0px"
	 width="1024px" height="1024px" viewBox="0 0 1024 1024" enable-background="new 0 0 1024 1024" xml:space="preserve">
<g>
	<path fill="#231815" d="M689.914,136.625c-12.211-5.484-26.297-0.105-31.781,11.965c-5.461,12.07-0.117,26.297,11.953,31.758
		C807.336,242.516,896,379.766,896,530c0,211.734-172.266,384-384,384S128,741.734,128,530
		c0-150.234,88.676-287.484,225.902-349.641c12.07-5.473,17.426-19.699,11.965-31.77c-5.473-12.082-19.711-17.402-31.77-11.965
		C179.739,206.551,80,360.957,80,530c0,238.195,193.793,432,432,432c238.195,0,432-193.805,432-432
		C944,360.969,844.25,206.563,689.914,136.625z"/>
	<path fill="#231815" d="M500,398c13.254,0,24-10.746,24-24V86c0-13.254-10.746-24-24-24c-13.254,0-24,10.746-24,24v288
		C476,387.254,486.746,398,500,398z"/>
</g>
</svg>
