<?xml version="1.0" encoding="utf-8"?>
<!-- Generator: Adobe Illustrator 17.0.0, SVG Export Plug-In . SVG Version: 6.00 Build 0)  -->
<!DOCTYPE svg PUBLIC "-//W3C//DTD SVG 1.1//EN" "http://www.w3.org/Graphics/SVG/1.1/DTD/svg11.dtd">
<svg version="1.1" id="图层_3" xmlns="http://www.w3.org/2000/svg" xmlns:xlink="http://www.w3.org/1999/xlink" x="0px" y="0px"
	 width="1024px" height="1024px" viewBox="0 0 1024 1024" enable-background="new 0 0 1024 1024" xml:space="preserve">
<path fill-rule="evenodd" clip-rule="evenodd" d="M1.927,1024V257.448H1024V1024H1.927z M960.121,321.327H65.806v638.791h894.314
	V321.327z M928.181,193.565H97.749c-17.643,0-31.943-14.299-31.943-31.936c0-17.64,14.299-31.94,31.943-31.94h830.432
	c17.637,0,31.94,14.299,31.94,31.94C960.121,179.266,945.818,193.565,928.181,193.565z M832.359,65.809H225.508
	c-17.64,0-31.94-14.303-31.94-31.94c0-17.64,14.299-31.943,31.94-31.943h606.851c17.643,0,31.94,14.303,31.94,31.943
	C864.298,51.507,850.002,65.809,832.359,65.809z"/>
</svg>
