<?xml version="1.0" encoding="utf-8"?>
<!-- Generator: Adobe Illustrator 17.0.0, SVG Export Plug-In . SVG Version: 6.00 Build 0)  -->
<!DOCTYPE svg PUBLIC "-//W3C//DTD SVG 1.1//EN" "http://www.w3.org/Graphics/SVG/1.1/DTD/svg11.dtd">
<svg version="1.1" id="图层_3" xmlns="http://www.w3.org/2000/svg" xmlns:xlink="http://www.w3.org/1999/xlink" x="0px" y="0px"
	 width="1024px" height="1024px" viewBox="0 0 1024 1024" enable-background="new 0 0 1024 1024" xml:space="preserve">
<g>
	<g>
		<g>
			<path d="M737.622,308.294H286.378c-12.178,0-22.051-9.872-22.051-22.051s9.872-22.051,22.051-22.051h451.245
				c12.178,0,22.051,9.872,22.051,22.051S749.8,308.294,737.622,308.294z"/>
		</g>
		<g>
			<path d="M737.622,534.051H286.378c-12.178,0-22.051-9.873-22.051-22.051c0-12.178,9.872-22.051,22.051-22.051h451.245
				c12.178,0,22.051,9.872,22.051,22.051C759.673,524.178,749.8,534.051,737.622,534.051z"/>
		</g>
		<g>
			<path d="M527.501,759.808H286.378c-12.178,0-22.051-9.873-22.051-22.051s9.872-22.051,22.051-22.051h241.123
				c12.178,0,22.051,9.873,22.051,22.051S539.679,759.808,527.501,759.808z"/>
		</g>
	</g>
	<g>
		<path d="M796.484,1023h-566.23c-34.819,0-71.765-16.226-101.364-44.518c-30.09-28.761-47.347-65.189-47.347-99.942V154.774
			c0-34.736,20.218-73.003,55.47-104.989C170.679,19.237,211.296,1,245.662,1H715.82c35.173,0,58.038,19.914,60.531,22.185
			l1.247,1.137l1.06,1.313c39.782,49.301,120.23,147.748,139.955,167.473c16.045,16.046,23.844,35.481,23.844,59.417v619.411
			c0,34.827-16.48,72.179-45.215,102.478C867.958,1005.291,831.234,1023,796.484,1023z M245.662,45.101
			c-23.351,0-53.628,14.309-79.014,37.344c-25.292,22.949-41.004,50.664-41.004,72.329V878.54c0,22.437,12.605,47.881,33.718,68.062
			c21.158,20.223,47.659,32.297,70.891,32.297h566.23c22.37,0,48.074-13.021,68.759-34.832
			c20.733-21.862,33.112-48.828,33.112-72.13V252.525c0-12.13-3.268-20.573-10.928-28.233
			c-25.004-25.004-127.52-151.688-141.635-169.158c-3.389-2.534-14.713-10.032-29.973-10.032L245.662,45.101L245.662,45.101z"/>
	</g>
</g>
</svg>
