<?xml version="1.0" encoding="utf-8"?>
<!-- Generator: Adobe Illustrator 17.0.0, SVG Export Plug-In . SVG Version: 6.00 Build 0)  -->
<!DOCTYPE svg PUBLIC "-//W3C//DTD SVG 1.1//EN" "http://www.w3.org/Graphics/SVG/1.1/DTD/svg11.dtd">
<svg version="1.1" id="图层_2" xmlns="http://www.w3.org/2000/svg" xmlns:xlink="http://www.w3.org/1999/xlink" x="0px" y="0px"
	 width="1024px" height="1024px" viewBox="0 0 1024 1024" enable-background="new 0 0 1024 1024" xml:space="preserve">
<g>
	<path fill="#231815" d="M266,416h168c13.254,0,24-10.746,24-24s-10.746-24-24-24H266c-13.254,0-24,10.746-24,24
		S252.746,416,266,416z"/>
	<path fill="#231815" d="M578,536c0-13.266-10.734-24-24-24H266c-13.254,0-24,10.734-24,24s10.746,24,24,24h288
		C567.266,560,578,549.266,578,536z"/>
	<path fill="#231815" d="M266,656c-13.254,0-24,10.734-24,24s10.746,24,24,24h192c13.254,0,24-10.734,24-24s-10.746-24-24-24H266z"
		/>
	<path fill="#231815" d="M734,548c-71.062,0-137.602,35.039-178.008,93.703c-7.5,10.922-4.734,25.875,6.164,33.398
		c10.969,7.523,25.898,4.734,33.398-6.164C626.961,623.258,678.734,596,734,596c78.469,0,144.562,54.094,162.914,126.938
		l-36.375-34.336c-9.633-9.117-24.82-8.648-33.938,0.984c-9.094,9.656-8.648,24.844,0.984,33.938l81,76.406
		c4.547,4.266,10.453,6.539,16.477,6.539c2.836,0,5.695-0.492,8.438-1.523c8.578-3.234,14.578-11.062,15.445-20.18
		C949.602,777.922,950,771.008,950,764C950,644.891,853.109,548,734,548z"/>
	<path fill="#231815" d="M872.445,859.062C841.039,904.719,789.266,932,734,932c-78.469,0-144.562-54.094-162.914-126.938
		l36.375,34.336c9.656,9.117,24.797,8.625,33.938-0.984c9.094-9.656,8.648-24.844-0.984-33.938l-81-76.406
		c-6.68-6.258-16.336-8.227-24.914-5.016c-8.578,3.234-14.578,11.062-15.457,20.18C518.387,750.078,518,756.992,518,764
		c0,119.109,96.891,216,216,216c71.086,0,137.625-35.039,178.008-93.75c7.5-10.922,4.734-25.852-6.188-33.375
		C894.922,845.375,879.992,848.141,872.445,859.062z"/>
	<path fill="#231815" d="M530,944H254c-66.621,0-132-65.391-132-132V188c0-67.605,67.113-108,132-108h228v84
		c0,92.52,87.469,180,180,180h132v168c0,13.266,10.734,24,24,24s24-10.734,24-24V284c0-7.16-3.188-13.945-8.719-18.504l-276-228
		C552.992,33.945,547.578,32,542,32H254C165.523,32,74,90.348,74,188v624c0,92.531,87.48,180,180,180h276c13.266,0,24-10.734,24-24
		S543.266,944,530,944z M794,295.309V296H662c-66.609,0-132-65.379-132-132V80h3.375L794,295.309z"/>
</g>
</svg>
