<?xml version="1.0" encoding="utf-8"?>
<!-- Generator: Adobe Illustrator 17.0.0, SVG Export Plug-In . SVG Version: 6.00 Build 0)  -->
<!DOCTYPE svg PUBLIC "-//W3C//DTD SVG 1.1//EN" "http://www.w3.org/Graphics/SVG/1.1/DTD/svg11.dtd">
<svg version="1.1" id="图层_3" xmlns="http://www.w3.org/2000/svg" xmlns:xlink="http://www.w3.org/1999/xlink" x="0px" y="0px"
	 width="1024px" height="1024px" viewBox="0 0 1024 1024" enable-background="new 0 0 1024 1024" xml:space="preserve">
<path d="M512.416,0C229.877,0,0.833,229.044,0.833,511.582c0,282.54,229.044,511.584,511.583,511.584
	c282.54,0,511.584-229.044,511.584-511.584C1024,229.044,794.956,0,512.416,0z M517.663,216.429
	c79.664,0,144.247,72.19,144.247,161.248c0,89.051-64.58,161.241-144.247,161.241c-79.663,0-144.247-72.19-144.247-161.241
	C373.416,288.619,438,216.429,517.663,216.429z M751.827,721.647H277.45c-30.938,0-37.812-24.066-37.812-41.25
	c0-58.439,51.561-140.933,144.375-140.933c0,0,27.501,44.684,130.627,44.684c103.124,0,130.62-44.684,130.62-44.684
	c92.814,0,144.382,82.494,144.382,140.933C789.642,697.581,782.761,721.647,751.827,721.647z"/>
</svg>
