<?xml version="1.0" encoding="utf-8"?>
<!-- Generator: Adobe Illustrator 17.0.0, SVG Export Plug-In . SVG Version: 6.00 Build 0)  -->
<!DOCTYPE svg PUBLIC "-//W3C//DTD SVG 1.1//EN" "http://www.w3.org/Graphics/SVG/1.1/DTD/svg11.dtd">
<svg version="1.1" id="图层_3" xmlns="http://www.w3.org/2000/svg" xmlns:xlink="http://www.w3.org/1999/xlink" x="0px" y="0px"
	 width="1024px" height="1024px" viewBox="0 0 1024 1024" enable-background="new 0 0 1024 1024" xml:space="preserve">
<g>
	<path d="M823.109,519.248c-100.365,0-181.685,81.386-181.685,181.699c0,100.365,81.32,181.69,181.685,181.69
		c100.37,0,181.694-81.325,181.694-181.69C1004.804,600.634,923.479,519.248,823.109,519.248L823.109,519.248z M793.78,832.948
		c-9.114,8.698-30.644,9.998-40.875,1.19c-20.994-18.157-48.321-46.426-64.41-62.816c-12.237-12.419-14.244-22.355-3.664-33.002
		c2.895-2.837,15.563-13.008,18.573-15.73c9.816-8.694,20.287-6.086,27.209,1.008c7.986,8.221,27.327,26.617,34.302,33.829
		c7.275,7.51,18.749,5.379,27.743-3.253c25.489-24.367,88.537-89.426,118.344-117.93c10.94-10.475,22.294-18.572,34.541-10.828
		c1.716,1.128,16.561,15.261,18.277,16.915c10.757,10.475-0.12,24.367-7.873,31.766C919.634,708.751,828.02,800.18,793.78,832.948
		L793.78,832.948z M793.78,832.948"/>
	<path d="M347.5,602.937c-2.628-19.991-1.796-18.925-16.022-30.805c-14.727-12.363-22.174-52.76-22.174-52.76
		s-14.645-3.258-24.438-34.302c-9.783-31.02,9.64-52.525,9.64-52.525s-1.949-87.028,35.548-140.699
		c14.459-20.76,37.326-44.649,55.124-54.116c-5.44-18.573-5.827-31.47-18.247-47.167c-18.419-23.22-59.647-47.524-106.9-47.524
		c-36.518,0-81.678,9.998-113.32,55.387c-33.476,47.94-30.016,129.202-30.016,129.202s-17.365,19.16-8.604,46.904
		c8.747,27.734,23.54,28.861,23.54,28.861s8.394,36.074,21.558,47.137c13.16,11.001,26.589,19.929,28.178,39.151
		c2.132,25.67,2.485,41.281-31.641,63.23c-43.287,27.858-121.832,20.966-130.821,81.884c-7.806,52.808-1.128,88.772,7.012,95.215
		c11.527,9.176,95.125,21.152,169.591,25.88c0.832-1.595,1.714-3.195,2.627-4.671c0.616-9.234,1.634-19.045,3.167-29.521
		c10.056-68.193,84.397-66.416,132.833-97.58C344.132,617.673,345.847,613.378,347.5,602.937L347.5,602.937z M347.5,602.937"/>
	<path d="M611.141,700.947c0-9.936,0.912-19.638,2.24-29.196c-0.942-0.378-2.007-0.679-2.919-1.057
		c-44.988-18.428-48.327-47.318-44.123-71.327c3.601-20.501,13.366-24.7,28.502-37.235c13.256-10.996,21.534-47.022,21.534-47.022
		s22.002-4.854,25.881-39.384c3.042-26.617-10.982-35.903-10.982-35.903s4.677-85.608-36.37-137.566
		c-18.386-23.248-59.677-47.491-106.895-47.491c-36.523,0-81.711,9.988-113.353,55.359
		c-33.481,47.959-29.989,129.222-29.989,129.222s-17.391,19.17-8.636,46.903c8.746,27.715,23.563,28.862,23.563,28.862
		s8.402,36.084,21.563,47.113c13.131,11.001,26.559,19.962,28.155,39.184c2.158,25.662,2.484,41.219-31.641,63.22
		c-43.263,27.825-121.837,20.933-130.798,81.851c-7.835,52.821-1.123,88.785,7.002,95.23
		c14.556,11.589,163.128,27.672,234.134,27.978c47.691,0.138,132.479-7.309,186.739-17.598
		C635.535,813.588,611.141,760.088,611.141,700.947L611.141,700.947z M611.141,700.947"/>
	<path d="M795.7,490.96c4.576-12.482,14.46-20.268,24.362-29.196c12.606-11.326,20.674-48.38,20.674-48.38s14.226-1.184,22.6-29.687
		c8.359-28.479-8.259-48.174-8.259-48.174s3.315-83.508-28.799-132.746c-30.346-46.636-73.639-56.925-108.643-56.925
		c-45.312,0-84.849,24.954-102.505,48.819c-11.884,16.145-12.299,29.396-17.506,48.436c17.086,9.76,38.979,34.312,52.869,55.63
		c35.936,55.153,34.077,144.575,34.077,144.575s18.635,22.092,9.258,53.996c-9.377,31.885-23.454,35.224-23.454,35.224
		s-2.718,15.667-8.077,30.7C695.57,524.425,742.554,497.866,795.7,490.96L795.7,490.96z M795.7,490.96"/>
</g>
</svg>
