<?xml version="1.0" encoding="utf-8"?>
<!-- Generator: Adobe Illustrator 17.0.0, SVG Export Plug-In . SVG Version: 6.00 Build 0)  -->
<!DOCTYPE svg PUBLIC "-//W3C//DTD SVG 1.1//EN" "http://www.w3.org/Graphics/SVG/1.1/DTD/svg11.dtd">
<svg version="1.1" id="图层_3" xmlns="http://www.w3.org/2000/svg" xmlns:xlink="http://www.w3.org/1999/xlink" x="0px" y="0px"
	 width="1024px" height="1024px" viewBox="0 0 1024 1024" enable-background="new 0 0 1024 1024" xml:space="preserve">
<g>
	<path d="M824.17,0.146H198.253c-78.434,0-142.254,63.82-142.254,142.254v739.72c0,78.434,63.82,142.254,142.254,142.254h625.918
		c78.434,0,142.254-63.819,142.253-142.254V142.4C966.424,63.966,902.604,0.146,824.17,0.146z M909.522,882.12
		c0,47.066-38.286,85.352-85.352,85.352H198.253c-47.066,0-85.352-38.286-85.352-85.352V142.4c0-47.066,38.286-85.352,85.352-85.352
		H824.17c47.066,0,85.352,38.286,85.352,85.352V882.12z"/>
	<ellipse cx="327.031" cy="299.21" rx="71.876" ry="71.458"/>
	<path d="M515.907,313.105h198.628c15.726,0,28.451-12.739,28.451-28.451s-12.725-28.451-28.451-28.451H515.907
		c-15.726,0-28.451,12.739-28.451,28.451S500.181,313.105,515.907,313.105z"/>
	<path d="M722.398,512.26H283.606c-15.726,0-28.451,12.739-28.451,28.451c0,15.726,12.725,28.451,28.451,28.451h438.792
		c15.726,0,28.451-12.725,28.451-28.451C750.849,524.999,738.124,512.26,722.398,512.26z"/>
	<path d="M722.398,711.415H283.606c-15.726,0-28.451,12.725-28.451,28.451s12.725,28.451,28.451,28.451h438.792
		c15.726,0,28.451-12.725,28.451-28.451S738.124,711.415,722.398,711.415z"/>
</g>
</svg>
