<?xml version="1.0" encoding="utf-8"?>
<!-- Generator: Adobe Illustrator 17.0.0, SVG Export Plug-In . SVG Version: 6.00 Build 0)  -->
<!DOCTYPE svg PUBLIC "-//W3C//DTD SVG 1.1//EN" "http://www.w3.org/Graphics/SVG/1.1/DTD/svg11.dtd">
<svg version="1.1" id="图层_2" xmlns="http://www.w3.org/2000/svg" xmlns:xlink="http://www.w3.org/1999/xlink" x="0px" y="0px"
	 width="1024px" height="1024px" viewBox="0 0 1024 1024" enable-background="new 0 0 1024 1024" xml:space="preserve">
<g>
	<circle cx="730.515" cy="508.337" r="50.92"/>
	<circle cx="524.816" cy="508.337" r="50.92"/>
	<circle cx="315.319" cy="511.557" r="50.919"/>
	<path d="M932.355,803.188C992.365,717.514,1024,617.06,1024,512.011C1024,230.786,794.294,1.99,511.99,1.99S0,230.786,0,512.011
		S229.685,1022.01,511.99,1022.01c90.714,0,179.564-23.843,257.53-69.073l185.958,34.769c1.313,0.254,2.668,0.381,3.981,0.381
		c0.296,0.042,0.635,0,0.847,0c11.985,0,21.683-9.698,21.683-21.683c0-4.32-1.271-8.385-3.43-11.773L932.355,803.188z
		 M754.316,911.519c-72.927,43.917-156.695,67.125-242.326,67.125c-258.398,0-468.623-209.336-468.623-466.633
		c0-257.318,210.225-466.654,468.623-466.654c258.419,0,468.644,209.336,468.644,466.654c0,99.417-31,194.323-89.612,274.491
		C852.758,838.862,797.439,885.725,754.316,911.519z"/>
</g>
</svg>
