<?xml version="1.0" encoding="utf-8"?>
<!-- Generator: Adobe Illustrator 17.0.0, SVG Export Plug-In . SVG Version: 6.00 Build 0)  -->
<!DOCTYPE svg PUBLIC "-//W3C//DTD SVG 1.1//EN" "http://www.w3.org/Graphics/SVG/1.1/DTD/svg11.dtd">
<svg version="1.1" id="图层_3" xmlns="http://www.w3.org/2000/svg" xmlns:xlink="http://www.w3.org/1999/xlink" x="0px" y="0px"
	 width="1024px" height="1024px" viewBox="0 0 1024 1024" enable-background="new 0 0 1024 1024" xml:space="preserve">
<g>
	<path d="M512,0C229.686,0,0,229.686,0,512s229.686,512,512,512s512-229.686,512-512S794.314,0,512,0z M512,963.765
		C262.892,963.765,60.235,761.098,60.235,512C60.235,262.892,262.892,60.235,512,60.235c249.098,0,451.765,202.657,451.765,451.765
		C963.765,761.098,761.098,963.765,512,963.765z"/>
	<path d="M511.98,572.235c-130.265,0-227.441,91.118-263.176,130.294c-11.206,12.294-10.333,31.333,1.961,42.549
		c12.284,11.196,31.353,10.314,42.549-1.961c63.196-69.275,144.941-110.647,218.667-110.647c73.745,0,155.49,41.373,218.686,110.647
		c5.941,6.51,14.098,9.823,22.255,9.823c7.255,0,14.529-2.608,20.294-7.863c12.294-11.216,13.177-30.255,1.961-42.549
		C739.451,663.353,642.275,572.235,511.98,572.235z"/>
	<path d="M371.451,471.843c16.637,0,30.118-13.48,30.118-30.118v-80.314c0-16.637-13.48-30.118-30.118-30.118
		c-16.637,0-30.118,13.48-30.118,30.118v80.314C341.333,458.363,354.814,471.843,371.451,471.843z"/>
	<path d="M632.471,471.843c16.627,0,30.118-13.48,30.118-30.118v-80.314c0-16.637-13.49-30.118-30.118-30.118
		c-16.628,0-30.118,13.48-30.118,30.118v80.314C602.353,458.363,615.843,471.843,632.471,471.843z"/>
</g>
</svg>
