<?xml version="1.0" encoding="utf-8"?>
<!-- Generator: Adobe Illustrator 17.0.0, SVG Export Plug-In . SVG Version: 6.00 Build 0)  -->
<!DOCTYPE svg PUBLIC "-//W3C//DTD SVG 1.1//EN" "http://www.w3.org/Graphics/SVG/1.1/DTD/svg11.dtd">
<svg version="1.1" id="图层_3" xmlns="http://www.w3.org/2000/svg" xmlns:xlink="http://www.w3.org/1999/xlink" x="0px" y="0px"
	 width="1024px" height="1024px" viewBox="0 0 1024 1024" enable-background="new 0 0 1024 1024" xml:space="preserve">
<g>
	<path d="M511.369,0C228.967,0,0,228.967,0,511.369c0,282.403,228.967,511.369,511.369,511.369s511.369-228.967,511.369-511.369
		C1022.739,228.967,793.771,0,511.369,0z M511.369,971.598c-253.767,0-460.229-206.462-460.229-460.229
		c0-253.766,206.462-460.228,460.229-460.228c253.766,0,460.228,206.463,460.228,460.228
		C971.597,765.136,765.136,971.598,511.369,971.598z"/>
	<path d="M693.17,536.935c14.145,0,25.565-11.459,25.565-25.566c0-14.106-11.42-25.565-25.565-25.565H536.934v-34.337
		l144.618-144.618c9.997-9.997,9.997-26.198,0-36.195c-9.957-9.958-26.157-9.958-36.154,0L512.618,403.465
		c-0.414-0.02-0.83-0.032-1.249-0.032c-0.419,0-0.835,0.012-1.25,0.032L377.34,270.654c-9.997-9.958-26.198-9.958-36.155,0
		c-9.997,9.997-9.997,26.197,0,36.195l144.618,144.618v34.338H329.568c-14.145,0-25.564,11.459-25.564,25.565
		c0,14.107,11.419,25.566,25.564,25.566h156.236v76.695H329.568c-14.145,0-25.564,11.459-25.564,25.565
		c0,14.147,11.419,25.566,25.564,25.566h156.236v127.865c0,14.106,11.459,25.565,25.566,25.565c14.106,0,25.565-11.46,25.565-25.565
		V664.761H693.17c14.145,0,25.565-11.419,25.565-25.566c0-14.106-11.42-25.565-25.565-25.565H536.934v-76.695H693.17z"/>
</g>
</svg>
