<?xml version="1.0" encoding="utf-8"?>
<!-- Generator: Adobe Illustrator 17.0.0, SVG Export Plug-In . SVG Version: 6.00 Build 0)  -->
<!DOCTYPE svg PUBLIC "-//W3C//DTD SVG 1.1//EN" "http://www.w3.org/Graphics/SVG/1.1/DTD/svg11.dtd">
<svg version="1.1" id="图层_3" xmlns="http://www.w3.org/2000/svg" xmlns:xlink="http://www.w3.org/1999/xlink" x="0px" y="0px"
	 width="1024px" height="1024px" viewBox="0 0 1024 1024" enable-background="new 0 0 1024 1024" xml:space="preserve">
<g>
	<path d="M660.346,542.313H364.909c-17.115,0-31.001-13.886-31.001-31.001c0-17.115,13.886-31.001,31.001-31.001h295.436
		c17.115,0,31.001,13.886,31.001,31.001C691.347,528.427,677.461,542.313,660.346,542.313z"/>
	<g>
		<g>
			<path d="M492.465,437.564c-8.214,0-16.429-3.249-22.524-9.708L364.708,316.568c-11.767-12.433-11.222-32.05,1.231-43.817
				c12.433-11.767,32.03-11.242,43.817,1.231L514.989,385.27c11.767,12.433,11.222,32.05-1.231,43.817
				C507.764,434.758,500.114,437.564,492.465,437.564z"/>
		</g>
		<g>
			<path d="M535.333,437.564c-7.649,0-15.299-2.805-21.293-8.477c-12.453-11.746-12.998-31.384-1.231-43.817l105.193-111.288
				c11.767-12.473,31.384-12.998,43.817-1.231c12.453,11.746,12.998,31.384,1.231,43.817L557.857,427.856
				C551.762,434.314,543.548,437.564,535.333,437.564z"/>
		</g>
	</g>
	<path d="M660.346,688.396H364.909c-17.115,0-31.001-13.886-31.001-31.001s13.886-31.001,31.001-31.001h295.436
		c17.115,0,31.001,13.886,31.001,31.001S677.461,688.396,660.346,688.396z"/>
	<path d="M512.648,815.023c-17.115,0-31.001-13.886-31.001-31.001V439.501c0-17.115,13.886-31.001,31.001-31.001
		c17.115,0,31.001,13.886,31.001,31.001v344.521C543.649,801.137,529.763,815.023,512.648,815.023z"/>
	<path d="M512.648,1022.664c-281.954,0-511.352-229.378-511.352-511.312C1.296,229.398,230.694,0,512.648,0
		S1024,229.398,1024,511.352C1024,793.286,794.602,1022.664,512.648,1022.664z M512.648,62.002
		c-247.764,0-449.351,201.586-449.351,449.351c0,247.744,201.586,449.31,449.351,449.31s449.351-201.566,449.351-449.31
		C961.998,263.588,760.412,62.002,512.648,62.002z"/>
</g>
</svg>
