<?xml version="1.0" encoding="utf-8"?>
<!-- Generator: Adobe Illustrator 17.0.0, SVG Export Plug-In . SVG Version: 6.00 Build 0)  -->
<!DOCTYPE svg PUBLIC "-//W3C//DTD SVG 1.1//EN" "http://www.w3.org/Graphics/SVG/1.1/DTD/svg11.dtd">
<svg version="1.1" id="图层_2" xmlns="http://www.w3.org/2000/svg" xmlns:xlink="http://www.w3.org/1999/xlink" x="0px" y="0px"
	 width="1024px" height="1024px" viewBox="0 0 1024 1024" enable-background="new 0 0 1024 1024" xml:space="preserve">
<path fill="#231815" d="M973.822,893.947L733.344,653.469c44.399-62.638,70.768-138.907,70.768-221.356
	c0-211.733-172.265-383.998-383.998-383.998S36.116,220.381,36.116,432.114s172.265,383.998,383.998,383.998
	c94.719,0,181.382-34.648,248.416-91.708l237.418,237.418c9.375,9.375,21.656,14.062,33.937,14.062s24.562-4.688,33.937-14.062
	C992.571,943.072,992.571,912.697,973.822,893.947z M84.116,432.114c0-185.272,150.726-335.998,335.998-335.998
	s335.998,150.726,335.998,335.998S605.386,768.112,420.114,768.112S84.116,617.386,84.116,432.114z"/>
</svg>
