<?xml version="1.0" encoding="utf-8"?>
<!-- Generator: Adobe Illustrator 17.0.0, SVG Export Plug-In . SVG Version: 6.00 Build 0)  -->
<!DOCTYPE svg PUBLIC "-//W3C//DTD SVG 1.1//EN" "http://www.w3.org/Graphics/SVG/1.1/DTD/svg11.dtd">
<svg version="1.1" id="图层_3" xmlns="http://www.w3.org/2000/svg" xmlns:xlink="http://www.w3.org/1999/xlink" x="0px" y="0px"
	 width="1024px" height="1024px" viewBox="0 0 1024 1024" enable-background="new 0 0 1024 1024" xml:space="preserve">
<g>
	<path d="M427.902,335.735c-34.056,15.528-62.887,40.191-83.205,70.775c-20.316,30.582-32.119,67.085-32.119,106.285
		c0,12.679,10.278,22.957,22.957,22.957c12.679,0,22.957-10.278,22.957-22.957c0-28.836,8.453-56.802,24.448-80.882
		c15.725-23.668,37.858-42.482,64.007-54.401c11.538-5.261,16.625-18.875,11.366-30.411
		C453.054,335.565,439.438,330.476,427.902,335.735z"/>
	<path d="M966.496,713.672c28.298-61.263,44.053-129.269,44.053-200.877c0-66.767-15.201-136.246-41.494-200.047
		c-23.734-57.588-56.509-110.546-95.303-152.715c7.619-14.824,11.915-31.569,11.915-49.299C885.668,51.09,837.113,2.557,776.614,1
		h-5.997c-38.86,1-72.786,21.387-92.087,51.647c-52.075-18.066-108.132-27.898-166.531-27.898
		c-68.834,0-134.412,13.655-194.056,38.352c-59.647,24.697-113.36,60.435-158.471,104.595
		c-45.109,44.16-81.616,96.741-106.843,155.13C27.401,381.215,13.451,445.41,13.451,512.794s13.95,131.579,39.178,189.968
		c25.227,58.389,61.734,110.973,106.843,155.13c45.111,44.16,98.824,79.896,158.471,104.593
		c59.644,24.697,125.222,38.352,194.056,38.352c81.012,0,157.505-18.927,225.132-52.492l39.702,52.181
		c14.758,14.954,34.417,22.473,54.101,22.473c18.806,0,37.635-6.864,52.23-20.663c29.874-28.244,30.7-74.84,1.848-104.081
		l-26.391-34.688C903.58,820.985,940.382,770.203,966.496,713.672z M860.207,949.846c-0.126,7.221-3.175,14.014-8.582,19.126
		c-5.538,5.235-12.884,8.115-20.691,8.115c-7.424,0-14.357-2.557-19.76-7.251L666.915,780.234L645.3,751.826l-32.859,13.945
		l-0.814,0.345c-0.576,0.247-1.151,0.499-1.693,0.714c-31.238,11.462-64.193,17.278-97.935,17.278
		c-74.481,0-144.454-28.344-197.027-79.808c-52.31-51.208-81.119-119.218-81.119-191.506c0-72.285,28.808-140.298,81.119-191.503
		c52.576-51.469,122.546-79.813,197.027-79.813s144.454,28.344,197.029,79.813c52.313,51.208,81.121,119.218,81.121,191.503
		c0,66.535-25.265,130.7-71.142,180.678l-25.97,28.287l23.253,30.56l132.182,173.736l1.786,2.347l2.072,2.1
		C857.533,935.777,860.33,942.645,860.207,949.846z M830.649,826.802L752.83,724.52c51.574-56.183,83.232-130.245,83.232-211.725
		c0-175.199-145.09-317.229-324.063-317.229c-178.976,0-324.059,142.029-324.059,317.229c0,175.202,145.083,317.227,324.059,317.227
		c40.071,0,78.443-7.118,113.873-20.135c1.402-0.515,2.971-1.201,4.506-1.85l78.391,103.032
		c-60.955,28.735-128.575,43.859-196.77,43.859c-61.245,0-120.626-11.73-176.493-34.861
		c-53.921-22.326-102.341-54.282-143.915-94.981c-41.508-40.632-74.082-87.915-96.814-140.533
		C71.278,630.168,59.363,572.38,59.363,512.795s11.915-117.373,35.414-171.758c22.733-52.618,55.307-99.901,96.814-140.533
		c41.574-40.698,89.994-72.655,143.915-94.983C391.373,82.39,450.754,70.66,511.999,70.66c51.799,0,102.388,8.423,150.614,25.057
		c-0.686,4.91-1.048,9.921-1.048,15.016c0,60.627,50.167,109.774,112.05,109.774c26.803,0,51.404-9.224,70.687-24.603
		c32.889,36.938,61.118,82.931,82.303,134.337c24.88,60.367,38.03,123.494,38.03,182.553c0,63.314-13.397,124.422-39.82,181.622
		C901.88,744.069,870.243,788.521,830.649,826.802z"/>
</g>
</svg>
