<?xml version="1.0" encoding="utf-8"?>
<!-- Generator: Adobe Illustrator 17.0.0, SVG Export Plug-In . SVG Version: 6.00 Build 0)  -->
<!DOCTYPE svg PUBLIC "-//W3C//DTD SVG 1.1//EN" "http://www.w3.org/Graphics/SVG/1.1/DTD/svg11.dtd">
<svg version="1.1" id="图层_3" xmlns="http://www.w3.org/2000/svg" xmlns:xlink="http://www.w3.org/1999/xlink" x="0px" y="0px"
	 width="1024px" height="1024px" viewBox="0 0 1024 1024" enable-background="new 0 0 1024 1024" xml:space="preserve">
<g>
	<polygon fill-rule="evenodd" clip-rule="evenodd" points="525.105,533.397 16.293,269.107 21.793,177.221 78.548,122.281 
		937.052,122.281 995.723,181.01 997.132,283.789 525.105,533.397 	"/>
	<path d="M52.996,513.036c0,14.358-11.64,25.998-25.998,25.998c-14.356,0-25.995-11.639-25.995-25.998V194.852h51.993V513.036
		 M52.99,195.044l-51.858-3.76c1.525-21.011,16.14-45.553,35.607-65.313c19.465-19.76,43.779-34.742,64.705-36.63l4.674,51.783
		c-3.892,0.35-17.442,6.212-32.339,21.334C58.897,177.565,53.273,191.162,52.99,195.044 M105.82,141.132V89.139h812.357v51.993
		H105.82 M917.88,141.124l4.664-51.786c20.928,1.885,45.248,16.865,64.718,36.627c19.467,19.763,34.085,44.308,35.607,65.321
		l-51.859,3.757c-0.28-3.882-5.906-17.481-20.79-32.588C935.322,147.331,921.774,141.474,917.88,141.124 M971.004,194.852H1023
		v634.293h-51.996V194.852 M971.009,828.951l51.859,3.757c-1.52,21.013-16.137,45.558-35.607,65.321
		c-19.467,19.765-43.787,34.747-64.718,36.633l-4.664-51.786c3.895-0.35,17.442-6.209,32.342-21.334
		C965.103,846.435,970.73,832.835,971.009,828.951 M918.177,882.868v51.993H41.693c-14.358,0-25.998-11.639-25.998-25.998
		c0-14.358,11.64-25.995,25.998-25.995H918.177 M52.99,195.044l-2.667-0.192h2.672C52.996,194.977,52.99,195.044,52.99,195.044
		L52.99,195.044L52.99,195.044z M50.323,194.852H1c0-1.178,0.047-2.367,0.135-3.571L50.323,194.852L50.323,194.852L50.323,194.852z
		 M105.82,141.132v-3.325l0.3,3.314C106.118,141.124,106.014,141.132,105.82,141.132L105.82,141.132L105.82,141.132z
		 M105.82,137.807l-4.376-48.466c1.476-0.135,2.936-0.202,4.376-0.202V137.807L105.82,137.807L105.82,137.807z M918.177,141.132
		c-0.194,0-0.298-0.008-0.298-0.008l0.298-3.309V141.132L918.177,141.132L918.177,141.132z M918.177,137.815V89.139
		c1.437,0,2.892,0.067,4.366,0.2L918.177,137.815L918.177,137.815L918.177,137.815z M971.009,195.044c0,0-0.003-0.067-0.003-0.192
		h2.672L971.009,195.044L971.009,195.044L971.009,195.044z M1023,194.852h-49.321l49.189-3.566
		C1022.956,192.486,1023,193.674,1023,194.852L1023,194.852L1023,194.852z M1022.868,832.706l-49.184-3.56H1023
		C1023,830.321,1022.956,831.507,1022.868,832.706L1022.868,832.706L1022.868,832.706z M973.684,829.145h-2.677
		c0-0.127,0.003-0.192,0.003-0.194L973.684,829.145L973.684,829.145L973.684,829.145z M918.177,934.861v-48.676l4.366,48.474
		C921.07,934.794,919.615,934.861,918.177,934.861L918.177,934.861L918.177,934.861z M918.177,886.185l-0.298-3.309
		c0,0,0.104-0.008,0.298-0.008V886.185L918.177,886.185L918.177,886.185z"/>
	<path d="M631.976,724.294c14.358,0,25.998,11.639,25.998,25.998s-11.639,25.998-25.998,25.998H134.078
		c-14.358,0-25.998-11.639-25.998-25.998s11.639-25.998,25.998-25.998H631.976"/>
	<path d="M343.718,565.72c14.358,0,25.998,11.64,25.998,25.998c0,14.356-11.639,25.995-25.998,25.995H29.258
		c-14.356,0-25.995-11.639-25.995-25.995c0-14.358,11.639-25.998,25.995-25.998H343.718"/>
	<polyline points="2.826,267.206 27.202,221.28 525.1,485.572 996.795,221.28 1022.208,266.639 550.515,530.931 525.773,544.793 
		500.723,531.496 2.826,267.206 	"/>
</g>
</svg>
