<?xml version="1.0" encoding="utf-8"?>
<!-- Generator: Adobe Illustrator 17.0.0, SVG Export Plug-In . SVG Version: 6.00 Build 0)  -->
<!DOCTYPE svg PUBLIC "-//W3C//DTD SVG 1.1//EN" "http://www.w3.org/Graphics/SVG/1.1/DTD/svg11.dtd">
<svg version="1.1" id="图层_3" xmlns="http://www.w3.org/2000/svg" xmlns:xlink="http://www.w3.org/1999/xlink" x="0px" y="0px"
	 width="1024px" height="1024px" viewBox="0 0 1024 1024" enable-background="new 0 0 1024 1024" xml:space="preserve">
<g>
	<path d="M512.049,462.038c102.035,0,185.045-93.113,185.045-207.563S614.085,46.911,512.049,46.911
		s-185.046,93.113-185.046,207.563S410.014,462.038,512.049,462.038 M512.049,507.949c-127.554,0-230.957-113.485-230.957-253.475
		S384.496,1,512.049,1s230.957,113.485,230.957,253.475S639.603,507.949,512.049,507.949L512.049,507.949L512.049,507.949z"/>
	<path d="M825.379,977.089c16.411,0,28.263-4.401,38.432-14.274c10.844-10.528,19.906-27.504,26.932-50.456
		c15.846-51.762,17.982-122.062,17.982-184.004c0-46.607-36.9-102.767-98.707-150.229c-61.778-47.439-136.277-76.908-194.422-76.908
		H408.409c-31.314,0-66.327,7.175-101.255,20.75c-34.42,13.378-68.161,32.682-97.577,55.826
		c-59.049,46.458-94.302,102.744-94.302,150.56c0,57.048,2.408,129.292,21.205,182.03c8.106,22.742,18.593,39.708,31.175,50.433
		c12.845,10.949,29.137,16.271,49.806,16.271H825.379 M825.379,1023H217.461C83.652,1023,69.364,862.008,69.364,728.355
		c0-133.649,185.182-273.047,339.045-273.047h207.187c140.968,0,339.04,139.399,339.04,273.047
		C954.636,862.008,944.406,1023,825.379,1023L825.379,1023L825.379,1023z"/>
	<polygon fill-rule="evenodd" clip-rule="evenodd" points="467.393,491.642 558.602,491.642 593.478,736.886 512.996,798.193 
		432.517,736.886 467.393,491.642 	"/>
	<path d="M467.393,491.642v22.956h71.288l30.177,212.186l-55.861,42.551l-55.856-42.551l32.98-231.91L467.393,491.642v22.956
		V491.642l-22.725-3.231L409.79,733.653c-1.175,8.266,2.177,16.433,8.817,21.493l80.479,61.307c8.218,6.26,19.604,6.26,27.822,0.002
		l80.481-61.309c6.642-5.058,9.992-13.227,8.817-21.493l-34.876-245.242c-1.61-11.318-11.297-19.723-22.727-19.723h-91.21
		c-11.43,0-21.116,8.405-22.725,19.723L467.393,491.642L467.393,491.642L467.393,491.642z"/>
</g>
</svg>
