<?xml version="1.0" encoding="utf-8"?>
<!-- Generator: Adobe Illustrator 17.0.0, SVG Export Plug-In . SVG Version: 6.00 Build 0)  -->
<!DOCTYPE svg PUBLIC "-//W3C//DTD SVG 1.1//EN" "http://www.w3.org/Graphics/SVG/1.1/DTD/svg11.dtd">
<svg version="1.1" id="图层_3" xmlns="http://www.w3.org/2000/svg" xmlns:xlink="http://www.w3.org/1999/xlink" x="0px" y="0px"
	 width="1024px" height="1024px" viewBox="0 0 1024 1024" enable-background="new 0 0 1024 1024" xml:space="preserve">
<g>
	<path d="M837.451,1022.702H187.939c-102.314,0-185.549-83.235-185.549-185.549V280.234c0-63.523,32.191-139.23,185.549-139.23
		h247.58c12.795,0,23.148,10.354,23.148,23.148s-10.353,23.148-23.148,23.148h-247.58c-124.83,0-139.252,53.033-139.252,92.933
		v556.918c0,76.792,62.483,139.252,139.252,139.252h649.512c76.77,0,139.252-62.46,139.252-139.252V512.397
		c0-12.795,10.354-23.148,23.148-23.148S1023,499.602,1023,512.397v324.756C1023,939.467,939.765,1022.702,837.451,1022.702z"/>
	<path d="M281.211,737.325c-2.487,0-4.973-0.407-7.415-1.243c-12.117-4.092-18.582-17.203-14.513-29.32
		c1.492-4.408,149.199-424.312,661.358-476.057L646.296,44.41c-10.58-7.189-13.292-21.566-6.149-32.146
		c7.189-10.647,21.656-13.36,32.191-6.149l329.865,224.024c8.274,5.629,11.981,15.937,9.223,25.567
		c-2.803,9.63-11.439,16.367-21.43,16.706c-534.086,18.492-685.41,444.884-686.857,449.201
		C299.838,731.244,290.841,737.325,281.211,737.325z"/>
</g>
</svg>
