<?xml version="1.0" encoding="utf-8"?>
<!-- Generator: Adobe Illustrator 16.0.0, SVG Export Plug-In . SVG Version: 6.00 Build 0)  -->
<!DOCTYPE svg PUBLIC "-//W3C//DTD SVG 1.1//EN" "http://www.w3.org/Graphics/SVG/1.1/DTD/svg11.dtd">
<svg version="1.1" id="图层_3" xmlns="http://www.w3.org/2000/svg" xmlns:xlink="http://www.w3.org/1999/xlink" x="0px" y="0px"
	 width="1024px" height="1024px" viewBox="0 0 1024 1024" enable-background="new 0 0 1024 1024" xml:space="preserve">
<path d="M513.268,1020.459c-68.703,0-135.367-13.464-198.14-40.014c-60.617-25.639-115.049-62.337-161.786-109.074
	C106.604,824.634,69.907,770.2,44.268,709.585C17.716,646.812,4.254,580.147,4.254,511.443c0-68.703,13.462-135.367,40.014-198.139
	c25.638-60.616,62.336-115.05,109.074-161.786c46.737-46.738,101.17-83.436,161.786-109.074
	c62.772-26.551,129.437-40.013,198.14-40.013s135.366,13.462,198.139,40.013c60.616,25.639,115.049,62.336,161.787,109.074
	c46.738,46.737,83.436,101.17,109.074,161.786c26.551,62.772,40.014,129.437,40.014,198.14s-13.463,135.368-40.014,198.14
	c-25.638,60.617-62.336,115.05-109.074,161.787c-46.738,46.738-101.17,83.436-161.787,109.074
	C648.634,1006.995,581.971,1020.459,513.268,1020.459z M513.268,61.703c-60.729,0-119.623,11.887-175.05,35.331
	c-53.551,22.651-101.652,55.082-142.965,96.396c-41.314,41.313-73.745,89.412-96.396,142.964
	C75.413,391.82,63.526,450.716,63.526,511.442c0,60.729,11.888,119.624,35.331,175.051c22.651,53.552,55.082,101.652,96.396,142.966
	c41.313,41.313,89.413,73.744,142.965,96.396c55.427,23.444,114.321,35.331,175.05,35.331c60.727,0,119.623-11.887,175.05-35.331
	c53.551-22.651,101.651-55.082,142.964-96.396c41.314-41.313,73.746-89.413,96.396-142.965
	c23.443-55.427,35.331-114.322,35.331-175.051c0-60.727-11.888-119.622-35.331-175.05c-22.651-53.551-55.082-101.652-96.396-142.965
	c-41.313-41.313-89.413-73.745-142.964-96.396C632.891,73.591,573.994,61.703,513.268,61.703z"/>
<g>
	<g>
		<path d="M429.163,294.266v95.271h381.155v-95.271H429.163z M429.163,580.302h381.155V485.03H429.163V580.302z M429.163,771.104
			h381.155v-95.298H429.163V771.104z M238.591,389.58h95.288v-95.294h-95.288V389.58z M238.591,580.169h95.288V484.89h-95.288
			V580.169z M238.591,770.735h95.288v-95.271h-95.288V770.735z"/>
	</g>
</g>
</svg>
