<?xml version="1.0" encoding="utf-8"?>
<!-- Generator: Adobe Illustrator 17.0.0, SVG Export Plug-In . SVG Version: 6.00 Build 0)  -->
<!DOCTYPE svg PUBLIC "-//W3C//DTD SVG 1.1//EN" "http://www.w3.org/Graphics/SVG/1.1/DTD/svg11.dtd">
<svg version="1.1" id="图层_3" xmlns="http://www.w3.org/2000/svg" xmlns:xlink="http://www.w3.org/1999/xlink" x="0px" y="0px"
	 width="1024px" height="1024px" viewBox="0 0 1024 1024" enable-background="new 0 0 1024 1024" xml:space="preserve">
<path d="M1023.693,627.35c0-44.73-27.252-82.975-65.762-98.443c-9.965-200.095-149.844-365.888-335.286-411.54
	C617.099,64.274,573,22.914,519.416,22.914c-53.584,0-97.682,41.359-103.229,94.452c-183.98,45.29-323.108,208.836-335.025,406.81
	C34.875,534.826,0.307,576.973,0.307,627.35c0,58.418,46.483,105.776,103.822,105.776c4.608,0,9.145-0.31,13.595-0.903
	C185.981,889.031,340.349,998.7,519.414,998.7c178.725,0,332.846-109.254,401.3-265.585
	C977.664,732.653,1023.693,685.481,1023.693,627.35z M519.414,951.101c-158.874,0-295.94-97.026-357.246-236.034
	c27.622-19.008,45.783-51.202,45.783-87.717c0-49.744-33.707-91.461-79.118-102.755c11.515-173.782,132.518-317.428,293.051-359.565
	c14.548,40.517,52.725,69.436,97.532,69.436c44.807,0,82.984-28.918,97.532-69.435C776.7,206.965,897.307,349.423,909.822,522.069
	c-52.623,5.15-93.773,50.317-93.773,105.281c0,41.444,23.398,77.314,57.466,94.664C810.755,857.296,675.627,951.101,519.414,951.101
	z"/>
</svg>
