<?xml version="1.0" encoding="utf-8"?>
<!-- Generator: Adobe Illustrator 17.0.0, SVG Export Plug-In . SVG Version: 6.00 Build 0)  -->
<!DOCTYPE svg PUBLIC "-//W3C//DTD SVG 1.1//EN" "http://www.w3.org/Graphics/SVG/1.1/DTD/svg11.dtd">
<svg version="1.1" id="图层_3" xmlns="http://www.w3.org/2000/svg" xmlns:xlink="http://www.w3.org/1999/xlink" x="0px" y="0px"
	 width="1024px" height="1024px" viewBox="0 0 1024 1024" enable-background="new 0 0 1024 1024" xml:space="preserve">
<path fill-rule="evenodd" clip-rule="evenodd" d="M1006.705,1021.743H18.86c-8.798,0-15.933-7.138-15.933-15.939v-31.866
	c0-8.801,7.135-15.927,15.933-15.927h987.845c8.798,0,15.933,7.125,15.933,15.927v31.866
	C1022.638,1014.605,1015.503,1021.743,1006.705,1021.743z M927.04,830.55H799.576c-35.199,0-63.732-28.539-63.732-63.729V65.76
	c0-35.202,28.533-63.729,63.732-63.729H927.04c35.199,0,63.732,28.526,63.732,63.729v701.061
	C990.772,802.011,962.239,830.55,927.04,830.55z M927.04,65.76H799.576v701.061H927.04V65.76z M576.514,830.55H449.054
	c-35.202,0-63.735-28.539-63.735-63.729V320.695c0-35.202,28.533-63.742,63.735-63.742h127.461
	c35.199,0,63.732,28.539,63.732,63.742v446.127C640.246,802.011,611.714,830.55,576.514,830.55z M576.514,320.695H449.054v446.127
	h127.461V320.695z M225.989,830.55H98.525c-35.199,0-63.732-28.539-63.732-63.729V575.616c0-35.202,28.533-63.729,63.732-63.729
	h127.464c35.199,0,63.732,28.526,63.732,63.729v191.205C289.721,802.011,261.188,830.55,225.989,830.55z M225.989,575.616H98.525
	v191.205h127.464V575.616z"/>
</svg>
