<?xml version="1.0" encoding="utf-8"?>
<!-- Generator: Adobe Illustrator 17.0.0, SVG Export Plug-In . SVG Version: 6.00 Build 0)  -->
<!DOCTYPE svg PUBLIC "-//W3C//DTD SVG 1.1//EN" "http://www.w3.org/Graphics/SVG/1.1/DTD/svg11.dtd">
<svg version="1.1" id="图层_2" xmlns="http://www.w3.org/2000/svg" xmlns:xlink="http://www.w3.org/1999/xlink" x="0px" y="0px"
	 width="1024px" height="1024px" viewBox="0 0 1024 1024" enable-background="new 0 0 1024 1024" xml:space="preserve">
<g>
	<path fill="#231815" d="M272,452v48c144,0,252,108,252,252h48C572,584,440,452,272,452z"/>
	<path fill="#231815" d="M272,236v48c264,0,468,204,468,468h48C788,464,560,236,272,236z"/>
	<path fill="#231815" d="M800,56H224c-92.637,0-168,75.363-168,168v576c0,92.625,75.363,168,168,168h576
		c92.625,0,168-75.375,168-168V224C968,131.363,892.625,56,800,56z M920,800c0,66.164-53.836,120-120,120H224
		c-66.164,0-120-53.836-120-120V224c0-66.164,53.836-120,120-120h576c66.164,0,120,53.836,120,120V800z"/>
	<path fill="#231815" d="M272,620v132h132C404,680,344,620,272,620z"/>
</g>
</svg>
