<?xml version="1.0" encoding="utf-8"?>
<!-- Generator: Adobe Illustrator 17.0.0, SVG Export Plug-In . SVG Version: 6.00 Build 0)  -->
<!DOCTYPE svg PUBLIC "-//W3C//DTD SVG 1.1//EN" "http://www.w3.org/Graphics/SVG/1.1/DTD/svg11.dtd">
<svg version="1.1" id="图层_3" xmlns="http://www.w3.org/2000/svg" xmlns:xlink="http://www.w3.org/1999/xlink" x="0px" y="0px"
	 width="1024px" height="1024px" viewBox="0 0 1024 1024" enable-background="new 0 0 1024 1024" xml:space="preserve">
<g>
	<g>
		<path d="M392.466,658.553c-4.252,0-8.488-1.288-12.1-3.833c-6.577-4.633-9.931-12.615-8.638-20.556l21.106-129.499l-89.291-91.52
			c-5.498-5.636-7.384-13.873-4.885-21.34c2.5-7.467,8.965-12.909,16.748-14.099l122.574-18.734l54.983-117.187
			c3.46-7.375,10.871-12.084,19.017-12.085c8.146-0.001,15.559,4.708,19.02,12.082l55.011,117.19l122.577,18.734
			c7.784,1.19,14.249,6.632,16.748,14.099c2.499,7.467,0.613,15.705-4.886,21.341l-89.303,91.518l21.12,129.497
			c1.295,7.94-2.058,15.923-8.635,20.556c-6.577,4.635-15.223,5.103-22.263,1.213l-109.384-60.46l-109.356,60.461
			C399.456,657.685,395.955,658.553,392.466,658.553z M511.984,550.455c3.501,0,7.001,0.874,10.163,2.622l81.688,45.152
			l-15.863-97.265c-1.073-6.581,1.041-13.281,5.699-18.054l68.153-69.844l-93.239-14.251c-6.925-1.058-12.867-5.499-15.844-11.84
			l-40.752-86.813l-40.73,86.81c-2.976,6.343-8.919,10.786-15.846,11.844l-93.243,14.251l68.144,69.845
			c4.656,4.772,6.77,11.471,5.698,18.051l-15.853,97.265l81.66-45.147C504.981,551.329,508.483,550.455,511.984,550.455z"/>
	</g>
	<g>
		<path d="M798.39,1023l-0.66-0.002c-51.304-0.206-122.862-55.37-192.065-108.718c-22.419-17.282-43.594-33.606-61.17-45.56
			c-23.42-15.93-31.127-17.618-32.63-17.792c-1.788,0.057-10.491,1.323-34.968,17.855c-18.698,12.628-40.819,30.114-64.239,48.626
			c-65.671,51.912-133.578,105.59-186.487,105.59c-38.49,0-74.587-14.933-101.641-42.049
			c-26.997-27.058-41.865-63.09-41.865-101.458V144.507C82.666,65.377,147.043,1,226.173,1h571.655
			c79.13,0,143.507,64.377,143.507,143.507v734.984C941.334,958.622,877.21,1023,798.39,1023z M512,808.907
			c24.65,0,57.866,24.721,119.32,72.096c54.651,42.13,129.497,99.828,166.592,99.977l0.479,0.002
			c26.776,0,52.059-10.573,71.192-29.772c19.174-19.241,29.734-44.711,29.734-71.718V144.507
			c0-55.961-45.527-101.488-101.488-101.488H226.173c-55.961,0-101.488,45.527-101.488,101.488v734.984
			c0,27.162,10.509,52.655,29.592,71.781c19.114,19.157,44.648,29.708,71.897,29.708c15.988,0,39.544-9.904,70.011-29.436
			c29.295-18.781,60.369-43.344,90.42-67.099C447.634,836.203,483.55,808.907,512,808.907z"/>
	</g>
</g>
</svg>
