<?xml version="1.0" encoding="utf-8"?>
<!-- Generator: Adobe Illustrator 17.0.0, SVG Export Plug-In . SVG Version: 6.00 Build 0)  -->
<!DOCTYPE svg PUBLIC "-//W3C//DTD SVG 1.1//EN" "http://www.w3.org/Graphics/SVG/1.1/DTD/svg11.dtd">
<svg version="1.1" id="图层_3" xmlns="http://www.w3.org/2000/svg" xmlns:xlink="http://www.w3.org/1999/xlink" x="0px" y="0px"
	 width="1024px" height="1024px" viewBox="0 0 1024 1024" enable-background="new 0 0 1024 1024" xml:space="preserve">
<path d="M511.511,1024C229.383,1024-0.155,794.462-0.155,512.333S229.383,0.667,511.511,0.667s511.667,229.538,511.667,511.667
	S793.64,1024,511.511,1024z M511.511,43.306c-258.623,0-469.028,210.405-469.028,469.028s210.405,469.028,469.028,469.028
	s469.028-210.405,469.028-469.028S770.135,43.306,511.511,43.306z"/>
<path d="M438.679,693.061c-5.469,0-10.938-2.087-15.113-6.262L252.587,515.82c-8.35-8.35-8.35-21.876,0-30.226
	c8.35-8.35,21.876-8.35,30.226,0L438.679,641.46l304.197-304.176c8.35-8.35,21.876-8.35,30.226,0s8.35,21.876,0,30.226
	l-319.31,319.289C449.617,690.974,444.148,693.061,438.679,693.061z"/>
</svg>
