<?xml version="1.0" encoding="utf-8"?>
<!-- Generator: Adobe Illustrator 17.0.0, SVG Export Plug-In . SVG Version: 6.00 Build 0)  -->
<!DOCTYPE svg PUBLIC "-//W3C//DTD SVG 1.1//EN" "http://www.w3.org/Graphics/SVG/1.1/DTD/svg11.dtd">
<svg version="1.1" id="图层_3" xmlns="http://www.w3.org/2000/svg" xmlns:xlink="http://www.w3.org/1999/xlink" x="0px" y="0px"
	 width="1024px" height="1024px" viewBox="0 0 1024 1024" enable-background="new 0 0 1024 1024" xml:space="preserve">
<g>
	<path fill="#231815" d="M511.509,32c-264.68,0-480,215.332-480,480s215.32,480,480,480s480-215.332,480-480S776.189,32,511.509,32z
		 M511.509,944c-238.195,0-432-193.793-432-432s193.805-432,432-432s432,193.793,432,432S749.705,944,511.509,944z"/>
	<path fill="#231815" d="M739.509,500h-216V236c0-13.254-10.734-24-24-24c-13.266,0-24,10.746-24,24v288c0,13.254,10.734,24,24,24
		h240c13.266,0,24-10.746,24-24S752.775,500,739.509,500z"/>
</g>
</svg>
