<?xml version="1.0" encoding="utf-8"?>
<!-- Generator: Adobe Illustrator 17.0.0, SVG Export Plug-In . SVG Version: 6.00 Build 0)  -->
<!DOCTYPE svg PUBLIC "-//W3C//DTD SVG 1.1//EN" "http://www.w3.org/Graphics/SVG/1.1/DTD/svg11.dtd">
<svg version="1.1" id="图层_3" xmlns="http://www.w3.org/2000/svg" xmlns:xlink="http://www.w3.org/1999/xlink" x="0px" y="0px"
	 width="1024px" height="1024px" viewBox="0 0 1024 1024" enable-background="new 0 0 1024 1024" xml:space="preserve">
<g>
	<path d="M323.128,80.238h377.783c21.603,0,39.119-17.513,39.119-39.119C740.03,19.516,722.514,2,700.911,2H323.128
		c-21.601,0-39.119,17.516-39.119,39.119C284.008,62.725,301.527,80.238,323.128,80.238z"/>
	<path d="M420.391,824.229c21.603,0,39.119-17.516,39.119-39.119V407.324c0-21.601-17.516-39.119-39.119-39.119
		s-39.119,17.518-39.119,39.119V785.11C381.272,806.713,398.787,824.229,420.391,824.229z"/>
	<path d="M603.686,824.229c21.603,0,39.119-17.516,39.119-39.119V407.324c0-21.601-17.516-39.119-39.119-39.119
		s-39.119,17.518-39.119,39.119V785.11C564.566,806.713,582.082,824.229,603.686,824.229z"/>
	<path d="M969.206,166.155H54.794c-21.603,0-39.119,17.518-39.119,39.119c0,21.606,17.516,39.119,39.119,39.119h93.405v738.487
		c0,21.606,17.516,39.119,39.119,39.119c1.01,0,1.855-0.501,2.846-0.575c0.991,0.074,1.836,0.575,2.846,0.575h638.017
		c1.01,0,1.855-0.501,2.846-0.575c0.991,0.074,1.836,0.575,2.846,0.575c21.606,0,39.119-17.513,39.119-39.119V244.394h93.367
		c21.603,0,39.119-17.513,39.119-39.119C1008.325,183.674,990.809,166.155,969.206,166.155z M797.601,943.762H226.438V244.394
		h571.163V943.762z"/>
</g>
</svg>
