<?xml version="1.0" encoding="utf-8"?>
<!-- Generator: Adobe Illustrator 17.0.0, SVG Export Plug-In . SVG Version: 6.00 Build 0)  -->
<!DOCTYPE svg PUBLIC "-//W3C//DTD SVG 1.1//EN" "http://www.w3.org/Graphics/SVG/1.1/DTD/svg11.dtd">
<svg version="1.1" id="图层_2" xmlns="http://www.w3.org/2000/svg" xmlns:xlink="http://www.w3.org/1999/xlink" x="0px" y="0px"
	 width="1024px" height="1024px" viewBox="0 0 1024 1024" enable-background="new 0 0 1024 1024" xml:space="preserve">
<g>
	<path fill="#231815" d="M633.069,554.341C717.846,510.362,776,421.919,776,320c0-145.57-118.43-264-264-264S248,174.43,248,320
		c0,101.919,58.154,190.362,142.931,234.341C224.885,606.039,104,761.161,104,944c0,13.266,10.746,24,24,24s24-10.734,24-24
		c0-198.516,161.496-360,360-360c198.516,0,360,161.484,360,360c0,13.266,10.734,24,24,24s24-10.734,24-24
		C920,761.161,799.115,606.039,633.069,554.341z M296,320c0-119.098,96.902-216,216-216c119.109,0,216,96.902,216,216
		s-96.891,216-216,216C392.902,536,296,439.098,296,320z"/>
	<path fill="#231815" d="M651.805,356.68c-6.234-2.133-13.102,1.066-15.328,7.324C617.891,416.633,567.852,452,512,452
		c-55.84,0-105.855-35.344-124.477-87.949c-2.191-6.234-9.035-9.48-15.316-7.301c-6.246,2.203-9.516,9.059-7.301,15.316
		C386.902,434.234,446.012,476,512,476c66.023,0,125.133-41.801,147.117-104.004C661.32,365.75,658.039,358.895,651.805,356.68z"/>
</g>
</svg>
