<?xml version="1.0" encoding="utf-8"?>
<!-- Generator: Adobe Illustrator 17.0.0, SVG Export Plug-In . SVG Version: 6.00 Build 0)  -->
<!DOCTYPE svg PUBLIC "-//W3C//DTD SVG 1.1//EN" "http://www.w3.org/Graphics/SVG/1.1/DTD/svg11.dtd">
<svg version="1.1" id="图层_2" xmlns="http://www.w3.org/2000/svg" xmlns:xlink="http://www.w3.org/1999/xlink" x="0px" y="0px"
	 width="1024px" height="1024px" viewBox="0 0 1024 1024" enable-background="new 0 0 1024 1024" xml:space="preserve">
<g>
	<path fill="#231815" d="M56,362c13.254,0,24-10.746,24-24c0-64.992,51.586-114,120-114h624c67.289,0,120,51.398,120,117
		c0,13.254,10.734,24,24,24s24-10.746,24-24c0-92.52-73.805-165-168-165H200c-94.207,0-168,71.156-168,162
		C32,351.254,42.746,362,56,362z"/>
	<path fill="#231815" d="M968,650c-13.266,0-24,10.734-24,24c0,68.297-54.961,126-120,126H200c-65.051,0-120-56.32-120-123
		c0-13.266-10.746-24-24-24s-24,10.734-24,24c0,94.289,75.363,171,168,171h624c91.055,0,168-79.688,168-174
		C992,660.734,981.266,650,968,650z"/>
	<polygon fill="#231815" points="184.446,603.144 184.446,637.796 315.077,637.796 315.077,603.144 273.887,603.144 
		273.887,355.895 255.124,355.895 176.001,383.073 178.817,419.1 235.483,399.928 235.483,603.144 	"/>
	<path fill="#231815" d="M499.622,520.271c-30.461,28.083-69.303,66.957-97.888,98.792v18.734h188.268v-34.652H466.345
		c19.203-21.079,40.752-41.687,56.2-54.791c44.001-37.935,63.202-66.957,63.202-106.736c0-53.417-37.903-85.723-91.288-85.723
		c-53.852,0-90.85,35.559-90.85,83.345c0,16.887,4.225,31.868,12.637,42.656l36.965-13.604
		c-7.006-10.789-10.261-21.11-10.261-31.866c0-24.8,19.206-44.972,51.041-44.972s52.446,19.702,52.446,50.602
		C546.438,467.825,532.834,490.278,499.622,520.271z"/>
	<path fill="#231815" d="M753.428,608.306c-25.299,0-44.502-14.543-59.483-40.783l-31.838,23.457
		c19.206,32.774,48.226,52.915,90.382,52.915c56.667,0,95.509-33.712,95.509-87.097c0-32.306-16.825-53.385-44.972-64.173
		c23.893-13.104,37.469-32.745,37.469-61.33c0-46.345-34.154-75.4-85.69-75.4c-39.781,0-70.242,21.549-88.474,59.952l31.368,19.203
		c14.509-29.521,33.243-43.595,57.105-43.595c27.646,0,46.377,16.452,46.377,42.656c0,28.085-15.48,41.218-39.809,41.218h-19.641
		v34.622h20.108c29.052,0,46.816,15.92,46.816,46.349C808.657,587.227,786.201,608.306,753.428,608.306z"/>
</g>
</svg>
