<?xml version="1.0" encoding="utf-8"?>
<!-- Generator: Adobe Illustrator 17.0.0, SVG Export Plug-In . SVG Version: 6.00 Build 0)  -->
<!DOCTYPE svg PUBLIC "-//W3C//DTD SVG 1.1//EN" "http://www.w3.org/Graphics/SVG/1.1/DTD/svg11.dtd">
<svg version="1.1" id="图层_3" xmlns="http://www.w3.org/2000/svg" xmlns:xlink="http://www.w3.org/1999/xlink" x="0px" y="0px"
	 width="1024px" height="1024px" viewBox="0 0 1024 1024" enable-background="new 0 0 1024 1024" xml:space="preserve">
<g>
	<path d="M512,949.645c64.239,0,126.461-9.46,184.938-28.114c55.901-17.832,105.939-43.234,148.721-75.501
		c84.725-63.9,131.386-147.65,131.386-235.825c0-88.175-46.661-171.927-131.386-235.825c-42.782-32.267-92.82-57.671-148.721-75.503
		C638.461,280.223,576.239,270.766,512,270.766s-126.461,9.458-184.938,28.112c-55.901,17.832-105.939,43.236-148.721,75.503
		C93.617,438.278,46.956,522.03,46.956,610.205c0,88.175,46.661,171.925,131.386,235.825c42.782,32.267,92.82,57.668,148.721,75.501
		C385.539,940.185,447.761,949.645,512,949.645 M512,995.598c-282.218,0-511-172.547-511-385.393
		C1,397.357,229.783,224.81,512,224.81s511,172.547,511,385.395C1023,823.051,794.218,995.598,512,995.598L512,995.598L512,995.598z
		"/>
	<path d="M644.136,434.732c-10.102-7.678-12.068-22.092-4.39-32.197c7.679-10.102,22.092-12.068,32.197-4.39
		c58.084,44.146,95.229,111.774,95.229,187.584c0,133.004-114.351,240.827-255.422,240.827c-68.447,0-130.61-25.386-176.463-66.717
		c-9.427-8.496-10.18-23.024-1.684-32.451c8.496-9.427,23.026-10.18,32.451-1.684c39.276,35.401,91.018,54.898,145.697,54.898
		c115.5,0,209.468-87.42,209.468-194.873C721.218,527,693.122,471.965,644.136,434.732"/>
	<path d="M511.999,661.189c45.016,0,81.642-33.733,81.642-75.194s-36.626-75.194-81.642-75.194
		c-45.016,0-81.639,33.733-81.639,75.194S466.984,661.189,511.999,661.189 M511.999,707.144
		c-70.468,0-127.596-54.239-127.596-121.148s57.127-121.148,127.596-121.148c70.47,0,127.596,54.239,127.596,121.148
		S582.47,707.144,511.999,707.144L511.999,707.144L511.999,707.144z"/>
	<path d="M173.72,113.435c-9.233-8.706-9.66-23.248-0.957-32.481c8.706-9.235,23.248-9.663,32.483-0.957l76.625,72.242
		c9.232,8.706,9.663,23.248,0.957,32.481c-8.706,9.235-23.248,9.663-32.481,0.957L173.72,113.435"/>
	<path d="M830.376,87.45c9.232-8.706,23.775-8.276,32.481,0.957c8.704,9.235,8.276,23.777-0.959,32.481l-77.117,72.7
		c-9.235,8.704-23.777,8.276-32.483-0.959c-8.704-9.233-8.276-23.775,0.959-32.481L830.376,87.45"/>
	<path d="M491.34,51.38c0-12.691,10.288-22.978,22.978-22.978c12.691,0,22.978,10.288,22.978,22.978v105.386
		c0,12.688-10.288,22.976-22.978,22.976c-12.691,0-22.978-10.288-22.978-22.976V51.38"/>
</g>
</svg>
