<?xml version="1.0" encoding="utf-8"?>
<!-- Generator: Adobe Illustrator 17.0.0, SVG Export Plug-In . SVG Version: 6.00 Build 0)  -->
<!DOCTYPE svg PUBLIC "-//W3C//DTD SVG 1.1//EN" "http://www.w3.org/Graphics/SVG/1.1/DTD/svg11.dtd">
<svg version="1.1" id="图层_3" xmlns="http://www.w3.org/2000/svg" xmlns:xlink="http://www.w3.org/1999/xlink" x="0px" y="0px"
	 width="1024px" height="1024px" viewBox="0 0 1024 1024" enable-background="new 0 0 1024 1024" xml:space="preserve">
<g>
	<path d="M512,2.027c-281.219,0-510,228.781-510,510c0,281.201,228.781,509.947,510,509.947s510-228.746,510-509.947
		C1022,230.808,793.219,2.027,512,2.027z M512,949.116c-241.037,0-437.143-196.088-437.143-437.089
		C74.857,270.99,270.963,74.884,512,74.884c241.055,0,437.143,196.106,437.143,437.143C949.143,753.028,753.055,949.116,512,949.116
		z"/>
	<rect x="457.357" y="248.56" width="109.286" height="109.286"/>
	<rect x="457.357" y="462.578" width="109.286" height="327.875"/>
</g>
</svg>
