<?xml version="1.0" encoding="utf-8"?>
<!-- Generator: Adobe Illustrator 17.0.0, SVG Export Plug-In . SVG Version: 6.00 Build 0)  -->
<!DOCTYPE svg PUBLIC "-//W3C//DTD SVG 1.1//EN" "http://www.w3.org/Graphics/SVG/1.1/DTD/svg11.dtd">
<svg version="1.1" id="图层_2" xmlns="http://www.w3.org/2000/svg" xmlns:xlink="http://www.w3.org/1999/xlink" x="0px" y="0px"
	 width="1024px" height="1024px" viewBox="0 0 1024 1024" enable-background="new 0 0 1024 1024" xml:space="preserve">
<g>
	<path fill-rule="evenodd" clip-rule="evenodd" d="M693.226,347.298c11.735,0,23.361,0.857,34.894,2.122
		C696.767,203.406,540.639,94.908,362.415,94.908C163.174,94.908,0,230.714,0,403.181c0,99.506,54.261,181.265,145.001,244.685
		l-36.23,109.023l126.684-63.515c45.354,8.943,81.725,18.151,126.96,18.151c11.376,0,22.67-0.549,33.856-1.431
		c-7.095-24.233-11.186-49.611-11.186-75.942C385.084,475.806,521.01,347.298,693.226,347.298z M498.328,249.031
		c27.298,0,45.339,17.936,45.339,45.222c0,27.167-18.041,45.389-45.339,45.389c-27.166,0-54.403-18.222-54.403-45.389
		C443.925,266.968,471.162,249.031,498.328,249.031z M244.675,339.642c-27.178,0-54.584-18.222-54.584-45.389
		c0-27.285,27.405-45.222,54.584-45.222s45.232,17.936,45.232,45.222C289.907,321.419,271.853,339.642,244.675,339.642z"/>
	<path fill-rule="evenodd" clip-rule="evenodd" d="M1024,629.812c0-144.918-144.989-263.053-307.853-263.053
		c-172.48,0-308.285,118.135-308.285,263.053c0,145.13,135.806,262.978,308.285,262.978c36.073,0,72.481-9.063,108.747-18.149
		l99.435,54.452l-27.273-90.61C969.788,783.911,1024,711.525,1024,629.812z M616.212,584.446c-18.056,0-36.242-17.934-36.242-36.276
		c0-18.032,18.186-36.23,36.242-36.23c27.403,0,45.339,18.198,45.339,36.23C661.551,566.512,643.615,584.446,616.212,584.446z
		 M815.579,584.446c-17.934,0-36.024-17.934-36.024-36.276c0-18.032,18.09-36.23,36.024-36.23c27.144,0,45.342,18.198,45.342,36.23
		C860.921,566.512,842.723,584.446,815.579,584.446z"/>
</g>
</svg>
