<?xml version="1.0" encoding="utf-8"?>
<!-- Generator: Adobe Illustrator 17.0.0, SVG Export Plug-In . SVG Version: 6.00 Build 0)  -->
<!DOCTYPE svg PUBLIC "-//W3C//DTD SVG 1.1//EN" "http://www.w3.org/Graphics/SVG/1.1/DTD/svg11.dtd">
<svg version="1.1" id="图层_2" xmlns="http://www.w3.org/2000/svg" xmlns:xlink="http://www.w3.org/1999/xlink" x="0px" y="0px"
	 width="1024px" height="1024px" viewBox="0 0 1024 1024" enable-background="new 0 0 1024 1024" xml:space="preserve">
<g>
	<path fill="#231815" d="M452.003,252.501h96c39.703,0,72-32.297,72-72v-48c0-39.703-32.297-72-72-72h-96c-39.703,0-72,32.297-72,72
		v48C380.004,220.205,412.3,252.501,452.003,252.501z M428.003,132.502c0-13.242,10.769-24,24-24h96c13.242,0,24,10.758,24,24v48
		c0,13.242-10.758,24-24,24h-96c-13.23,0-24-10.758-24-24V132.502z"/>
	<path fill="#231815" d="M774.595,718.413L630.596,316.415c-3.422-9.539-12.469-15.914-22.594-15.914H416.003
		c-10.148,0-19.195,6.375-22.605,15.937L249.399,719.936c-3.305,9.258-0.633,19.57,6.738,26.062l239.999,211.499
		c4.535,4.008,10.195,6,15.867,6c5.695,0,11.391-2.016,15.937-6.047l239.999-212.999C775.252,737.936,777.9,727.624,774.595,718.413
		z M432.925,348.501h158.179l81.032,226.199L408.418,417.168L432.925,348.501z M511.944,907.459L300.07,720.757l45.02-126.146
		l302.323,192.632L511.944,907.459z M684.754,754.107L361.648,548.22l30.325-84.972l304.435,181.854
		c0.357,0.214,0.754,0.284,1.119,0.478l26.42,73.749L684.754,754.107z"/>
</g>
</svg>
