<?xml version="1.0" encoding="utf-8"?>
<!-- Generator: Adobe Illustrator 17.0.0, SVG Export Plug-In . SVG Version: 6.00 Build 0)  -->
<!DOCTYPE svg PUBLIC "-//W3C//DTD SVG 1.1//EN" "http://www.w3.org/Graphics/SVG/1.1/DTD/svg11.dtd">
<svg version="1.1" id="图层_3" xmlns="http://www.w3.org/2000/svg" xmlns:xlink="http://www.w3.org/1999/xlink" x="0px" y="0px"
	 width="1024px" height="1024px" viewBox="0 0 1024 1024" enable-background="new 0 0 1024 1024" xml:space="preserve">
<g>
	<path d="M700.973,1024c-275.671,0-369.932-84.241-438.797-145.743c-7.991-7.154-15.647-13.995-23.178-20.291
		c-9.079-7.573-10.292-21.086-2.719-30.165c7.573-9.1,21.086-10.25,30.165-2.719c7.907,6.589,15.898,13.723,24.308,21.233
		c63.677,56.9,150.91,134.844,410.222,134.844c81.04,0,154.424-40.688,172.038-78.697c6.778-14.56,4.853-27.362-6.067-40.29
		c-4.351-5.167-6.025-12.07-4.518-18.639c1.506-6.589,6.066-12.07,12.217-14.79c66.062-29.14,105.515-170.051,105.515-376.939
		c0-57.172-76.312-65.707-121.832-65.707c0.084,0-214.001,0.69-222.369,0.9c-10.208,0.314-18.66-6.15-21.296-15.585
		c-2.678-9.414,1.297-19.455,9.79-24.35c24.726-14.33,148.483-122.481,100.662-256.446c-13.807-38.679-65.351-46.817-74.932-46.817
		c-43.763,0-99.867,13.388-118.443,77.128c-90.119,230.13-198.27,302.928-273.286,323.805c-11.547,3.159-23.178-3.514-26.358-14.873
		c-3.18-11.401,3.473-23.22,14.894-26.379c65.56-18.283,161.202-84.513,244.208-296.38C510.903,39.301,567.551,0.956,650.181,0.956
		c22.927,0,93.341,13.827,115.264,75.267c40.206,112.523-17.739,212.056-70.874,267.617c33.094-0.146,84.304-0.335,163.67-0.586
		c104.721,0,164.758,39.558,164.758,108.549c0,125.033-14.852,335.771-109.825,403.946c9.204,20.522,8.87,42.842-1.297,64.765
		C884.935,978.543,792.305,1024,700.973,1024z"/>
	<path d="M162.099,934.278H115.45c-63.301,0-114.803-51.482-114.803-114.783V446.071c0-63.301,51.503-114.783,114.803-114.783
		h46.649c63.301,0,114.803,51.482,114.803,114.783v373.425C276.903,882.797,225.4,934.278,162.099,934.278z M115.45,374.13
		c-39.662,0-71.961,32.278-71.961,71.94v373.425c0,39.662,32.299,71.94,71.961,71.94h46.649c39.662,0,71.961-32.278,71.961-71.94
		V446.071c0-39.662-32.299-71.94-71.961-71.94H115.45z"/>
</g>
</svg>
